<svg width="232" height="62" viewBox="0 0 232 62" fill="none" xmlns="http://www.w3.org/2000/svg">
<g filter="url(#filter0_d)">
<mask id="mask0" mask-type="alpha" maskUnits="userSpaceOnUse" x="5" y="0" width="222" height="50">
<rect x="5" width="222" height="50" rx="10" fill="white"/>
</mask>
<g mask="url(#mask0)">
<g filter="url(#filter1_d)">
<rect x="5" width="222" height="50" rx="10" fill="white"/>
</g>
<g clip-path="url(#clip0)">
<path opacity="0.1" d="M-5.10065 21.3156V34.9423H16.2379V21.3156H-5.10065ZM-5.10065 35.3639V47.0667C-4.97858 47.0913 -4.85848 47.1159 -4.73739 47.1366C-4.57496 47.1681 -4.41155 47.1967 -4.24518 47.2213L-4.14673 47.2351C-4.08176 47.246 -4.0158 47.2548 -3.94985 47.2627C-3.78545 47.2864 -3.62105 47.3041 -3.45763 47.3198C-3.38085 47.3277 -3.30111 47.3336 -3.22334 47.3405L-3.03334 47.3543C-2.92998 47.3622 -2.8276 47.3681 -2.72521 47.3721C-2.66221 47.3721 -2.59921 47.377 -2.53522 47.379C-2.47123 47.3809 -2.43678 47.379 -2.38559 47.379H-2.19953C-2.11487 47.379 -2.03021 47.379 -1.94653 47.379H-1.83824C-1.75358 47.379 -1.66892 47.379 -1.58524 47.3711H-1.58032C-1.52126 47.3711 -1.46317 47.3711 -1.40411 47.3642C-1.38739 47.3652 -1.37062 47.3652 -1.3539 47.3642C-1.30468 47.3642 -1.25546 47.3642 -1.20821 47.3583C-1.19707 47.3574 -1.18587 47.3574 -1.17474 47.3583C-1.06546 47.3514 -0.955209 47.3425 -0.843968 47.3327C-0.732728 47.3228 -0.627392 47.311 -0.516151 47.2992L-0.292686 47.2716C0.620468 47.1437 1.52347 46.9514 2.40958 46.6963C4.40108 46.1407 6.3473 45.3635 8.33782 44.7951C10.9092 44.0612 13.7522 43.6997 16.2369 44.5931V35.3639H-5.10065ZM16.2379 6.14332V-11.998C13.9019 -12.0237 11.5723 -11.7506 9.30552 -11.1853C3.90197 -9.82688 -0.950286 -6.88049 -5.10065 -3.11747V6.14233H-4.02663V6.56296H-5.10065V20.894H16.2379V6.56296H0.366884V6.14134L16.2379 6.14332ZM43.6523 0.0151033C42.3155 -0.0321808 40.9865 -0.454782 39.7835 -1.10986C37.4858 -2.35994 35.6489 -4.29267 33.5973 -5.922C29.3348 -9.31759 24.0484 -11.3675 18.6251 -11.8759V6.14332H49.0844L49.1602 6.06352L43.6523 0.0151033ZM46.4274 -0.477439L49.3699 2.75462V-1.32757C48.3795 -1.20246 47.5172 -0.91186 46.4274 -0.481379V-0.477439ZM49.3699 49.9727V35.3639H43.0951C43.0794 35.3018 43.0617 35.2388 43.042 35.1757C43.0607 35.2388 43.0774 35.3018 43.0941 35.3639H18.6251V45.9279C18.8575 46.1003 19.0868 46.2826 19.3142 46.4658C19.5597 46.6667 19.8035 46.87 20.0457 47.0756L20.2898 47.2775C20.4069 47.376 20.5261 47.4745 20.6442 47.5681C20.8811 47.7592 21.1197 47.9483 21.3599 48.1355C21.48 48.2301 21.6007 48.323 21.7221 48.4143C23.6449 49.8848 25.6731 51.212 27.7902 52.3852C28.2647 52.6501 28.7441 52.9053 29.2265 53.1545C29.5474 53.32 29.8706 53.4822 30.1961 53.6411C30.6844 53.8795 31.1766 54.1094 31.6728 54.3307C36.247 56.3854 41.084 57.795 46.0455 58.5193C47.1467 58.6815 48.2529 58.8095 49.364 58.9035V49.9707H49.4624L49.3699 49.9727ZM18.6251 6.56296V20.894H49.3699V6.56296H18.6251ZM18.6251 21.3136V34.9423H49.3699V21.3156L18.6251 21.3136ZM51.7562 -1.34727V3.21367L55.5108 -0.910875C54.2664 -1.11643 53.0149 -1.2619 51.7562 -1.34727ZM51.7562 21.3156V34.9423H81.6582V21.3156H51.7562ZM81.5529 51.0533L81.6582 35.3639H51.7562V59.0621C53.6822 59.1422 55.6112 59.1189 57.5348 58.9921H57.5682C58.487 58.933 59.4016 58.849 60.3118 58.7399H60.3325C65.1902 58.1741 69.9399 56.9045 74.4325 54.971L81.5529 51.0533ZM87.427 23.5537C87.3135 23.291 87.197 23.0283 87.0775 22.7656C86.855 22.2731 86.6208 21.7943 86.3786 21.3166H84.0455V34.9423H89.9432C89.9383 31.0827 88.9617 27.1424 87.427 23.5537ZM84.0455 35.3639V48.8595C85.7062 47.2667 87.111 45.4433 88.121 43.3588C89.3368 40.8478 89.893 38.131 89.9393 35.3629L84.0455 35.3639ZM84.0455 17.3447V20.891H86.16C85.5191 19.6719 84.8132 18.4881 84.0455 17.3447ZM63.7662 1.32724C63.6107 1.26715 63.4541 1.20706 63.2976 1.14992C61.6473 0.539574 59.9606 0.0322657 58.2475 -0.369079L52.5004 5.94137L52.3882 6.06254L52.462 6.14233H72.9165C70.0676 4.18064 66.996 2.5643 63.7662 1.32724ZM73.517 6.56296H52.1755L51.7562 6.94616V20.894H55.433H81.6582V14.1363C79.2869 11.2667 76.5498 8.72054 73.517 6.56296Z" fill="#FF7682"/>
<path opacity="0.1" d="M49.3689 7.1658H43.1748V20.893H49.3689V7.1658Z" fill="#FF7682"/>
<path opacity="0.1" d="M49.3699 21.3146V34.9422H18.6251V29.0642H35.0011V32.5317H43.1749V21.3146H49.3699Z" fill="#FF7682"/>
<path opacity="0.1" d="M49.4673 49.9756C49.4349 49.9756 49.4024 49.9756 49.3689 49.9697V58.9093C48.2591 58.8181 47.1533 58.6903 46.0514 58.5261C41.0882 57.8021 36.2493 56.3932 31.6728 54.3395C30.3517 53.7432 29.0575 53.0934 27.7902 52.39C25.6737 51.2163 23.646 49.8891 21.7231 48.4192C21.2388 48.0488 20.7617 47.6702 20.2918 47.2834C19.9659 47.0135 19.643 46.7376 19.3142 46.4707C19.0878 46.2865 18.8584 46.1042 18.6251 45.9308V35.3638H43.0941C43.0764 35.3008 43.0607 35.2387 43.0429 35.1757C43.0617 35.2387 43.0794 35.3008 43.0951 35.3638H49.3699V49.9687C49.4024 49.9697 49.4349 49.9726 49.4673 49.9756Z" fill="#FF7682"/>
<path opacity="0.1" d="M65.5243 6.1433H61.4882V4.8883H63.2966V1.1499C63.4534 1.20769 63.6096 1.2668 63.7652 1.32722V4.8883H65.5234L65.5243 6.1433Z" fill="#FF7682"/>
<path opacity="0.1" d="M75.2496 20.8939H55.433C55.4349 20.8944 55.4369 20.8944 55.4389 20.8939H55.43H51.7561V7.16678H52.7976V17.3132H57.5564V11.3041H61.4892V6.56293H65.5253V11.3071H69.4562V17.3161H75.2505L75.2496 20.8939Z" fill="#FF7682"/>
<path opacity="0.1" d="M51.7561 21.3156V34.9422H75.2505V21.3156H51.7561ZM81.6247 50.9814L81.6582 40.1947H75.2505V35.3678H51.7561V59.062C53.6822 59.1422 55.6111 59.1188 57.5347 58.9921H57.5682C58.487 58.933 59.4015 58.8489 60.3118 58.7399H60.3325C65.1902 58.1741 69.9399 56.9045 74.4325 54.971" fill="#FF7682"/>
<path opacity="0.1" d="M84.4589 35.3639H89.9392C89.8919 38.131 89.3367 40.8488 88.1209 43.3588C87.1109 45.4442 85.7061 47.2676 84.0454 48.8605V40.1918H84.4589V35.3639Z" fill="#FF7682"/>
<path opacity="0.1" d="M89.9432 34.9422H84.4589V23.5537H87.427C88.9617 27.1423 89.9383 31.0827 89.9432 34.9422Z" fill="#FF7682"/>
<path opacity="0.1" d="M49.3698 10.982H46.0513V15.2859H49.3698V10.982Z" fill="#FF7682"/>
<path opacity="0.1" d="M49.3698 19.903H46.0513V20.8939H49.3698V19.903Z" fill="#FF7682"/>
<path opacity="0.1" d="M49.3698 21.3146H46.0513V24.2058H49.3698V21.3146Z" fill="#FF7682"/>
<path opacity="0.1" d="M49.3698 28.8239H46.0513V33.1277H49.3698V28.8239Z" fill="#FF7682"/>
<path opacity="0.1" d="M49.3698 37.7448H46.0513V42.0487H49.3698V37.7448Z" fill="#FF7682"/>
<path opacity="0.1" d="M49.3698 49.9687C49.4023 49.9687 49.4348 49.9687 49.4682 49.9756C49.4358 49.9756 49.4033 49.9756 49.3698 49.9697V50.9696H46.0513V46.6657H49.3698V49.9687Z" fill="#FF7682"/>
<path opacity="0.1" d="M32.8472 34.626H18.6251V34.9422H32.8472V34.626Z" fill="#FF7682"/>
<path opacity="0.1" d="M32.8472 35.3629H18.6251V36.5745H32.8472V35.3629Z" fill="#FF7682"/>
<path opacity="0.1" d="M32.8472 40.5464H18.6251V42.4949H32.8472V40.5464Z" fill="#FF7682"/>
<path opacity="0.1" d="M32.8471 46.4668V48.4153H21.7231C21.2387 48.0462 20.7616 47.6673 20.2917 47.2785C19.9649 47.0095 19.642 46.7337 19.3141 46.4668H32.8471Z" fill="#FF7682"/>
<path opacity="0.1" d="M60.3345 22.6356H57.5347V25.4372H60.3345V22.6356Z" fill="#FF7682"/>
<path opacity="0.1" d="M71.0224 22.6356H68.2227V25.4372H71.0224V22.6356Z" fill="#FF7682"/>
<path opacity="0.1" d="M60.3345 29.546H57.5347V32.3475H60.3345V29.546Z" fill="#FF7682"/>
<path opacity="0.1" d="M71.0224 29.546H68.2227V32.3475H71.0224V29.546Z" fill="#FF7682"/>
<path opacity="0.1" d="M60.3345 36.4553H57.5347V39.2569H60.3345V36.4553Z" fill="#FF7682"/>
<path opacity="0.1" d="M71.0224 36.4553H68.2227V39.2569H71.0224V36.4553Z" fill="#FF7682"/>
<path opacity="0.1" d="M60.3345 43.3657H57.5347V46.1673H60.3345V43.3657Z" fill="#FF7682"/>
<path opacity="0.1" d="M71.0224 43.3657H68.2227V46.1673H71.0224V43.3657Z" fill="#FF7682"/>
<path opacity="0.1" d="M49.3689 49.9687H49.4673H49.3689ZM43.0419 35.1757C43.0606 35.2388 43.0774 35.3018 43.0941 35.3639C43.0793 35.3018 43.0616 35.2388 43.0419 35.1757ZM-4.02667 6.1433V6.56294H0.370784V6.14133L-4.02667 6.1433ZM49.3699 49.9687H49.4683H49.3699ZM43.0419 35.1757C43.0606 35.2388 43.0774 35.3018 43.0941 35.3639C43.0793 35.3018 43.0616 35.2388 43.0419 35.1757ZM49.3689 49.9687H49.4673H49.3689ZM43.0419 35.1757C43.0606 35.2388 43.0774 35.3018 43.0941 35.3639C43.0793 35.3018 43.0616 35.2388 43.0419 35.1757Z" fill="#FF7682"/>
<path d="M29.3554 29.1519C29.3531 29.1421 29.3479 29.1332 29.3407 29.1263C29.194 28.9815 27.3236 26.3346 27.3236 26.3346C27.3236 26.3346 27.2251 26.039 27.0656 25.6549C27.1168 25.5886 27.1551 25.5135 27.1788 25.4332C27.1875 25.3992 27.1937 25.3647 27.1975 25.3298C27.1975 25.319 27.2054 25.3101 27.2084 25.2993C27.2426 25.1656 27.2392 25.0252 27.1985 24.8934C27.1876 24.9272 27.1741 24.9601 27.1582 24.9919C27.1211 24.8772 27.0716 24.7668 27.0105 24.6629C26.7624 24.2354 26.408 23.8748 26.1472 23.4581C25.7521 22.8107 25.5951 22.0457 25.7032 21.2949C25.7032 21.3333 25.7032 21.3727 25.7032 21.4111C25.713 21.2622 25.7328 21.1141 25.7622 20.9678C25.8034 20.8013 25.8584 20.6385 25.9266 20.4812C26.1609 19.9443 26.5399 19.4764 26.7703 18.9376C26.8476 18.7558 26.9063 18.5667 26.9455 18.3731C27.0267 18.0498 27.0563 17.7157 27.0331 17.3831C27.0331 17.4619 27.0203 17.5407 27.0085 17.6185C26.9836 16.819 26.661 16.0576 26.1038 15.4839C25.2996 14.6751 24.1448 14.3609 23.0403 14.1954C22.5761 14.1412 22.1329 13.9719 21.7507 13.7028C21.3264 13.428 20.7781 13.362 20.2819 13.4221C19.7117 13.4838 19.1818 13.7459 18.7866 14.1619C18.2619 14.7391 18.0345 15.5568 17.4221 16.0434C17.051 16.3389 16.5804 16.4768 16.1483 16.6778C15.7161 16.8787 15.3076 17.1703 15.1688 17.6018C15.1688 17.6018 15.1688 17.5959 15.1688 17.5929V17.6176L15.1629 17.6333C15.0191 18.1436 15.2967 18.6627 15.4415 19.172C15.5921 19.699 15.6019 20.2556 15.6098 20.8004C15.6206 21.4663 15.6305 22.1332 15.6196 22.8001C15.6147 23.0621 15.6059 23.3271 15.5862 23.5882C15.3532 23.6586 15.1268 23.7496 14.9099 23.86C14.6894 24.0039 13.8644 24.8954 13.8644 24.8954L12.2509 31.064L12.2726 31.0886L12.2509 31.1723L12.3326 31.1536C12.561 31.3999 13.2432 32.1013 13.9796 32.5386L14.0485 33.7483C14.0485 33.7483 14.1312 34.9619 15.2465 35.4634C15.2721 35.884 15.3519 37.5921 14.9827 38.2689C14.7271 38.7633 14.6068 39.3166 14.6342 39.8726C14.6342 39.8726 14.7632 40.8991 14.6165 41.4389C14.5308 41.7997 14.5244 42.1748 14.5978 42.5382C14.5978 42.5382 14.5978 42.6574 14.5978 42.8623C14.5978 43.9548 14.6106 47.4558 14.5978 47.8518C14.5791 48.3197 14.5978 55.2399 14.5978 55.2399C14.5978 55.2399 14.5062 58.6986 14.2129 59.6354C13.9195 60.5722 13.9934 63.6742 13.9934 63.6742C13.9934 63.6742 13.8093 67.3693 14.46 68.0982C14.46 68.1307 14.4541 68.1642 14.4531 68.1967C14.4531 68.2115 14.4531 68.2283 14.4531 68.243C14.4452 68.5238 14.4994 68.8223 14.7405 68.9139C15.2328 69.103 15.8835 69.6704 16.0065 69.833C16.1296 69.9955 16.8453 70.4004 17.7785 70.292C18.3631 70.2263 18.9515 70.1993 19.5396 70.2112C19.5396 70.2112 19.9078 70.1443 19.7887 69.6862C19.7119 69.4005 19.4245 68.9612 19.2197 68.6725C19.2571 68.6824 19.2935 68.6903 19.328 68.6972L19.3634 68.7041H19.391C19.4061 68.705 19.4212 68.705 19.4363 68.7041H19.456C19.4743 68.7056 19.4928 68.7056 19.5111 68.7041C19.7582 68.6804 20.6796 69.1099 20.844 69.3936C21.0084 69.6773 21.5883 69.8931 22.0253 69.9472C22.2852 69.9788 22.9409 69.9256 23.4912 69.8546C23.7683 69.826 24.0428 69.7759 24.3122 69.7049C24.4421 69.6557 24.4697 69.498 24.4323 69.3207C24.3881 69.0955 24.2678 68.8924 24.0917 68.7454C23.9322 68.6321 23.7215 68.3337 23.566 68.0894L23.5246 68.0234C23.7993 67.7613 24.2954 66.9043 24.4461 66.727C24.6292 66.5113 24.1507 58.6217 24.1507 58.6217V54.6666L24.8841 50.9233L25.397 48.9423L25.8371 45.9516C25.8371 45.9516 26.6069 42.4584 26.3696 42.1156C26.3696 42.1087 26.1727 38.5122 25.966 37.6483C25.8764 37.2631 25.8991 36.3962 25.9522 35.553C26.0078 35.4978 26.0465 35.4279 26.064 35.3515C26.0814 35.2752 26.0768 35.1954 26.0507 35.1215C26.036 35.071 26.0169 35.0219 25.9936 34.9748C25.9936 34.96 25.9936 34.9442 25.9936 34.9294C26.4188 34.7336 26.8632 34.5824 27.3196 34.4783C28.053 34.3344 27.8699 33.9562 27.8699 33.9562C27.8699 33.9562 28.0353 33.6321 28.1446 33.4341C28.2538 33.2361 28.1633 31.4885 28.1446 31.3447C28.1377 31.2866 28.0924 30.9655 28.0402 30.601C28.2755 30.4335 28.5817 30.2257 28.9154 30.0286C29.5503 29.6523 29.4076 29.2554 29.3554 29.1519ZM19.7867 54.1268C19.7867 54.1268 19.2364 55.5315 19.457 55.8911C19.6775 56.2506 19.4205 57.5854 19.4205 57.5854L19.2364 59.5664C19.2364 59.5664 18.7236 63.2408 18.9067 64.1047C19.0504 64.7824 19.1035 66.8068 19.1203 67.651C19.1077 67.6559 19.0955 67.6618 19.0839 67.6687L19.0592 67.6815C19.1439 67.3496 19.1085 66.6777 18.6881 65.3262L18.6527 59.7437C18.6527 59.7437 18.5877 53.2954 19.0967 52.5743C19.6056 51.8532 19.7858 50.6287 19.7858 50.6287C19.7858 50.6287 19.6755 52.395 19.6036 52.8629C19.5318 53.3308 19.7867 54.1268 19.7867 54.1268ZM18.7619 68.0027C18.757 68.0145 18.7511 68.0263 18.7472 68.0372L18.7196 68.0017C18.7337 68.0031 18.7478 68.0034 18.7619 68.0027Z" fill="url(#paint0_linear)"/>
<path d="M25.8823 46.3072L25.4472 49.3156L24.9412 51.3094L24.2166 55.0784V59.068C24.2166 59.068 24.6872 67.0058 24.5061 67.2225C24.3249 67.4392 23.6368 68.6735 23.4557 68.6016C23.2745 68.5297 21.79 68.2755 21.3185 68.4923C20.8469 68.709 19.2512 68.5287 19.2512 68.5287C19.2512 68.5287 19.2147 65.4483 19.0336 64.5785C18.8525 63.7087 19.3594 60.0117 19.3594 60.0117L19.5406 58.0188C19.5406 58.0188 19.7946 56.6772 19.577 56.3146C19.3594 55.9521 19.9029 54.5415 19.9029 54.5415C19.9029 54.5415 19.6499 53.7426 19.7227 53.2717C19.7956 52.8008 19.9029 51.0247 19.9029 51.0247C19.9029 51.0247 19.7227 52.2581 19.2197 52.9821C18.7166 53.7061 18.7806 60.1949 18.7806 60.1949L18.816 65.8099C19.7227 68.7829 18.816 68.4923 18.816 68.4923C18.816 68.4923 15.3764 69.2537 14.6814 68.6371C13.9864 68.0204 14.1853 64.1392 14.1853 64.1392C14.1853 64.1392 14.1134 61.0224 14.4028 60.0806C14.6923 59.1389 14.7838 55.6586 14.7838 55.6586C14.7838 55.6586 14.7651 48.699 14.7838 48.2291C14.7976 47.835 14.7838 44.3074 14.7838 43.2051C14.7838 43.0002 14.7838 42.8791 14.7838 42.8791L15.1992 41.8467L20.1214 41.23H22.4762C22.4762 41.23 26.0201 42.0634 26.3863 42.423C26.3941 42.429 26.4008 42.4363 26.406 42.4447C26.6433 42.7924 25.8823 46.3072 25.8823 46.3072Z" fill="#FF7682"/>
<path d="M18.9234 14.3303C18.4046 14.9105 18.1801 15.7331 17.5757 16.2237C17.2085 16.5192 16.7438 16.6601 16.3166 16.861C15.8894 17.062 15.4661 17.3683 15.3391 17.8234C15.1973 18.3357 15.471 18.8588 15.6147 19.371C15.7634 19.901 15.7722 20.4546 15.7811 21.0092C15.7909 21.68 15.8017 22.3509 15.7899 23.0217C15.7722 24.0669 15.6856 25.1603 15.1313 26.0459C17.1327 26.6833 19.261 26.77 21.3598 26.8517C21.7632 26.8805 22.1683 26.8703 22.5697 26.8212C22.9175 26.7519 23.2615 26.6647 23.6004 26.5602C24.2704 26.3828 24.9609 26.2943 25.6539 26.2971C25.9562 26.2971 26.2643 26.3159 26.5557 26.237C26.8471 26.1582 27.1276 25.9563 27.2064 25.6647C27.2763 25.4027 27.1739 25.1239 27.04 24.8885C26.7959 24.459 26.4494 24.1004 26.1875 23.6768C25.9202 23.2294 25.7616 22.7254 25.7245 22.2054C25.6874 21.6855 25.7728 21.164 25.9739 20.6831C26.2062 20.1423 26.5803 19.6715 26.8087 19.1297C27.0426 18.5479 27.1048 17.9113 26.9879 17.2952C26.871 16.6792 26.5799 16.1097 26.1491 15.6543C25.3547 14.8406 24.2147 14.5254 23.1239 14.3579C22.6647 14.3036 22.2265 14.1342 21.8501 13.8654C21.4317 13.5895 20.8893 13.5226 20.399 13.5836C19.8335 13.647 19.3096 13.9121 18.9234 14.3303Z" fill="#3F3D56"/>
<g opacity="0.1">
<path opacity="0.1" d="M26.0044 20.1148C25.8037 20.5894 25.7177 21.1048 25.7534 21.619C25.7754 21.2513 25.8603 20.8901 26.0044 20.5511C26.2357 20.0103 26.6098 19.5395 26.8382 18.9977C27.0249 18.5453 27.1035 18.0555 27.0676 17.5673C27.0473 17.9095 26.9697 18.2458 26.8382 18.5623C26.6098 19.1041 26.2357 19.5739 26.0044 20.1148Z" fill="black"/>
<path opacity="0.1" d="M15.8106 20.8752C15.8165 21.2614 15.8224 21.6485 15.8234 22.0347C15.8234 21.5027 15.8185 20.9718 15.8106 20.4408C15.8027 19.8901 15.7929 19.3326 15.6442 18.8016C15.5458 18.4647 15.4001 18.1229 15.3489 17.7831C15.2613 18.2657 15.5103 18.7553 15.6442 19.237C15.7929 19.7631 15.8027 20.3246 15.8106 20.8752Z" fill="black"/>
<path opacity="0.1" d="M26.5891 25.6736C26.2938 25.7534 25.9906 25.7356 25.6884 25.7337C24.9959 25.7293 24.3058 25.816 23.6358 25.9918C23.2969 26.0959 22.9529 26.1827 22.6051 26.2518C22.2035 26.3017 21.798 26.3123 21.3943 26.2833C19.3664 26.2036 17.3099 26.1179 15.3676 25.5376C15.3099 25.6664 15.2442 25.7915 15.1707 25.912C17.1721 26.5483 19.3004 26.636 21.3982 26.7178C21.8019 26.7467 22.2075 26.7362 22.6091 26.6863C22.9556 26.6178 23.2983 26.5313 23.6358 26.4272C24.3043 26.2508 24.9931 26.163 25.6844 26.1661C25.9867 26.1661 26.2938 26.1848 26.5852 26.105C26.8766 26.0253 27.1572 25.8253 27.2359 25.5337C27.2691 25.3986 27.2657 25.2572 27.2261 25.1239C27.1384 25.3997 26.8677 25.5918 26.5891 25.6736Z" fill="black"/>
</g>
<path d="M23.6732 24.5063C23.6004 24.6698 23.2933 26.0824 23.2204 26.2272C23.1476 26.372 22.7498 28.6899 22.7134 28.8199C22.677 28.95 20.0919 28.2762 20.0919 28.2762L18.5355 26.9709L16.9358 25.3781C16.9358 25.3781 16.8886 23.9408 18.0669 23.4798C18.147 23.4483 18.2293 23.4227 18.313 23.403C19.7424 23.0592 19.5987 18.71 19.5987 18.71L22.5323 19.9778C22.5323 19.9778 21.9889 22.5154 22.0076 23.005C22.0125 23.1695 22.1415 23.2719 22.3098 23.334C22.5701 23.4081 22.841 23.4374 23.1111 23.4207C23.1111 23.4207 23.7461 24.3437 23.6732 24.5063Z" fill="#FBBEBE"/>
<path d="M28.9252 29.2721L29.3416 29.3815C29.3416 29.3815 29.6497 29.8504 28.9252 30.2867C28.4651 30.5664 28.0235 30.8754 27.6031 31.2117L25.462 31.8639L25.0495 30.5685L27.042 29.0554L28.9252 29.2721Z" fill="#FF7682"/>
<path opacity="0.1" d="M28.9252 29.2721L29.3416 29.3815C29.3416 29.3815 29.6497 29.8504 28.9252 30.2867C28.4651 30.5664 28.0235 30.8754 27.6031 31.2117L25.462 31.8639L25.0495 30.5685L27.042 29.0554L28.9252 29.2721Z" fill="black"/>
<path d="M13.2993 30.5232L12.4664 31.3388C12.4664 31.3388 13.9687 33.0785 15.1244 33.1868C16.2801 33.2952 17.0253 31.8639 17.0253 31.8639L16.0251 30.2877L13.2993 30.5232Z" fill="#FF7682"/>
<path opacity="0.1" d="M13.2993 30.5232L12.4664 31.3388C12.4664 31.3388 13.9687 33.0785 15.1244 33.1868C16.2801 33.2952 17.0253 31.8639 17.0253 31.8639L16.0251 30.2877L13.2993 30.5232Z" fill="black"/>
<path opacity="0.1" d="M21.2102 21.552C22.8102 21.552 24.1073 20.254 24.1073 18.6529C24.1073 17.0518 22.8102 15.7538 21.2102 15.7538C19.6101 15.7538 18.313 17.0518 18.313 18.6529C18.313 20.254 19.6101 21.552 21.2102 21.552Z" fill="black"/>
<path d="M21.2102 21.3343C22.8102 21.3343 24.1073 20.0363 24.1073 18.4352C24.1073 16.834 22.8102 15.5361 21.2102 15.5361C19.6101 15.5361 18.313 16.834 18.313 18.4352C18.313 20.0363 19.6101 21.3343 21.2102 21.3343Z" fill="#FBBEBE"/>
<path opacity="0.1" d="M26.408 42.7737C25.7483 42.8492 25.0985 42.9948 24.4696 43.2081C23.3868 43.5686 14.901 43.214 14.7828 43.2081C14.7828 43.0032 14.7828 42.882 14.7828 42.882L15.1983 41.8497L20.1204 41.233H22.4752C22.4752 41.233 26.0191 42.0664 26.3853 42.4259C26.4001 42.6427 26.408 42.7737 26.408 42.7737Z" fill="black"/>
<path opacity="0.1" d="M23.6732 24.5063C23.6004 24.6698 23.2933 26.0824 23.2204 26.2272C23.1476 26.372 22.7498 28.6899 22.7134 28.8199C22.677 28.95 20.0919 28.2762 20.0919 28.2762L18.5355 26.9709L16.9358 25.3781C16.9358 25.3781 16.8886 23.9408 18.0669 23.4798L20.9926 26.8458L22.3098 23.334C22.5701 23.4081 22.841 23.4374 23.1111 23.4207C23.1111 23.4207 23.7461 24.3437 23.6732 24.5063Z" fill="black"/>
<path d="M20.9926 26.9542L17.998 23.5064C17.8227 23.3944 17.6224 23.3278 17.415 23.3125C17.2076 23.2972 16.9996 23.3337 16.8098 23.4187C16.1394 23.7093 15.3066 23.9448 15.089 24.0896C14.8714 24.2344 14.0563 25.1308 14.0563 25.1308L16.4839 31.4856L15.4149 35.6712C15.4149 35.6712 15.5783 37.8098 15.1619 38.589C14.9083 39.0873 14.7895 39.6432 14.8173 40.2016C14.8173 40.2016 14.9443 41.235 14.7996 41.7778C14.715 42.1407 14.7086 42.5174 14.7809 42.883C14.7809 42.883 23.3838 43.2455 24.4697 42.883C25.0984 42.6692 25.7482 42.5235 26.408 42.4486C26.408 42.4486 26.2111 38.8235 26.0142 37.9537C25.8173 37.0838 26.1776 33.768 26.1776 33.768L25.9424 30.2158L27.354 26.571C27.354 26.571 26.5891 24.2344 25.7917 23.9989C25.7917 23.9989 24.3436 23.6542 24.0355 23.4916C23.7274 23.3291 22.8217 23.1833 22.8217 23.1833L22.3462 23.3429L20.9926 26.9542Z" fill="#FF7682"/>
<path opacity="0.1" d="M25.1708 30.0959L18.8692 29.6671C18.7097 29.6563 18.5717 29.7768 18.5608 29.9364L17.8843 39.8923C17.8734 40.0519 17.9939 40.1901 18.1534 40.2009L24.455 40.6297C24.6144 40.6405 24.7525 40.52 24.7633 40.3604L25.4399 30.4045C25.4507 30.2449 25.3302 30.1067 25.1708 30.0959Z" fill="black"/>
<path d="M25.3877 29.8796L19.0862 29.4509C18.9267 29.44 18.7886 29.5606 18.7778 29.7202L18.1013 39.6761C18.0904 39.8356 18.2109 39.9738 18.3704 39.9847L24.6719 40.4134C24.8314 40.4243 24.9695 40.3037 24.9803 40.1441L25.6569 30.1882C25.6677 30.0287 25.5472 29.8905 25.3877 29.8796Z" fill="#3F3D56"/>
<path d="M25.1798 30.6601L19.1866 30.2523L18.5708 39.3158L24.5639 39.7236L25.1798 30.6601Z" fill="white"/>
<path opacity="0.1" d="M24.6424 32.9735L19.7468 32.6306L19.6513 33.9959L24.5469 34.3388L24.6424 32.9735Z" fill="black"/>
<path opacity="0.1" d="M24.4653 38.3992L23.6884 38.3463L23.6401 39.0579L24.4169 39.1108L24.4653 38.3992Z" fill="black"/>
<path opacity="0.1" d="M23.699 36.6819L19.7222 36.4113L19.6738 37.1229L23.6506 37.3935L23.699 36.6819Z" fill="black"/>
<path d="M24.438 30.3212L20.2972 30.0394L20.2229 31.1333L24.3637 31.415L24.438 30.3212Z" fill="#3F3D56"/>
<path opacity="0.1" d="M24.438 30.3212L20.2972 30.0394L20.2229 31.1333L24.3637 31.415L24.438 30.3212Z" fill="black"/>
<path opacity="0.1" d="M21.3549 42.5737C21.3549 42.5737 21.3185 47.9385 19.9058 51.0188C19.9058 51.0188 21.6089 46.9593 21.6089 46.7968C21.6089 46.6342 22.55 44.93 22.298 44.4227C22.046 43.9154 21.3549 42.5737 21.3549 42.5737Z" fill="black"/>
<path opacity="0.1" d="M21.4317 17.7101C21.3776 17.2353 21.4938 16.7567 21.7595 16.3596C21.7279 16.7576 21.8404 17.1537 22.0764 17.4756C22.3125 17.7975 22.6563 18.0238 23.0452 18.113C23.012 18.0842 22.9883 18.046 22.9772 18.0035C22.9662 17.9609 22.9682 17.916 22.9832 17.8746C23.185 18.1032 23.3395 18.3741 23.5679 18.575C23.7963 18.776 24.1389 18.8962 24.4076 18.7533C24.7729 18.5563 24.7768 18.0372 24.6823 17.6333C24.4795 16.7732 24.0634 15.978 23.4724 15.3213C23.325 15.1228 23.1336 14.9611 22.9133 14.849C22.693 14.7369 22.4497 14.6774 22.2025 14.6751C21.6434 14.6317 21.0625 14.681 20.5615 14.9322C20.2795 15.0862 20.0154 15.2708 19.7739 15.4829L18.3957 16.6078C18.2631 16.7034 18.1496 16.823 18.061 16.9605C18.0019 17.0754 17.9664 17.201 17.9567 17.3299C17.9215 17.6983 17.9896 18.0693 18.1534 18.4011C18.3172 18.733 18.5702 19.0125 18.884 19.2085C18.8774 18.9173 18.9574 18.6307 19.1139 18.3851C19.2705 18.1395 19.4964 17.9461 19.7631 17.8293C19.8049 17.8643 19.8387 17.9078 19.8623 17.9569C19.8859 18.006 19.8987 18.0596 19.8999 18.114L20.1903 17.5959C20.2335 17.5016 20.3016 17.4209 20.3872 17.3624C20.5664 17.2639 20.7899 17.3801 20.9424 17.519C21.095 17.6579 21.2437 17.8313 21.4484 17.853L21.4563 17.0816" fill="black"/>
<path d="M21.4317 17.6018C21.3774 17.1266 21.4936 16.6476 21.7595 16.2502C21.6709 17.0383 22.2645 17.852 23.0462 18.0037C23.013 17.9751 22.9892 17.9371 22.9781 17.8947C22.9671 17.8523 22.9692 17.8075 22.9842 17.7663C23.186 17.9948 23.3405 18.2648 23.5689 18.4667C23.7973 18.6686 24.1399 18.7878 24.4086 18.644C24.7738 18.447 24.7778 17.9279 24.6833 17.525C24.4805 16.6648 24.0644 15.8697 23.4734 15.213C23.2901 14.9893 23.059 14.8095 22.7971 14.6869C22.6076 14.6168 22.4083 14.5762 22.2065 14.5667C21.6473 14.5234 21.0665 14.5717 20.5654 14.8229C20.2836 14.9775 20.0195 15.1625 19.7779 15.3745L18.3997 16.4995C18.2668 16.5948 18.1533 16.7145 18.0649 16.8521C18.0057 16.967 17.9702 17.0926 17.9606 17.2215C17.9255 17.5898 17.9936 17.9606 18.1574 18.2923C18.3213 18.624 18.5742 18.9034 18.8879 19.0991C18.8816 18.808 18.9617 18.5215 19.1182 18.276C19.2747 18.0305 19.5005 17.837 19.767 17.72C19.8087 17.7551 19.8424 17.7986 19.866 17.8477C19.8895 17.8967 19.9025 17.9503 19.9039 18.0047L20.1933 17.4885C20.2362 17.3941 20.3044 17.3133 20.3902 17.255C20.5693 17.1565 20.7928 17.2728 20.9454 17.4117C21.098 17.5506 21.2466 17.723 21.4514 17.7456L21.4593 16.9733" fill="#3F3D56"/>
<path d="M22.804 35.8879C22.551 35.7599 18.3672 36.413 18.3672 36.413C18.3672 36.413 17.678 36.216 16.0124 35.9421C14.3467 35.6683 14.2404 34.0389 14.2404 34.0389L14.0583 30.7773L14.6204 30.2848L17.0283 31.8609C17.0283 31.8609 17.0657 32.6578 17.0283 32.8017C17.0047 32.9002 16.9417 33.0174 16.9476 33.0972C16.9494 33.1188 16.9583 33.1392 16.9729 33.1552C16.9875 33.1712 17.007 33.182 17.0283 33.1858C17.1917 33.2272 19.4185 33.5878 19.4185 33.5878C19.4185 33.5878 24.5799 33.2341 25.8666 34.9738C25.9685 35.1015 26.0456 35.2471 26.094 35.4033C26.4129 36.5923 23.0334 36.0012 22.804 35.8879Z" fill="#FBBEBE"/>
<path opacity="0.1" d="M26.0969 35.4101C25.9 35.4978 25.778 35.5609 25.778 35.5609C25.778 35.5609 23.9312 35.5067 22.8936 35.1304C21.856 34.7541 20.5949 34.8211 20.5949 34.8211C20.5949 34.8211 16.2713 34.0763 16.9417 33.1041C16.9435 33.1257 16.9524 33.1461 16.967 33.1621C16.9816 33.1781 17.0011 33.1889 17.0224 33.1927C17.1858 33.2341 19.4126 33.5946 19.4126 33.5946C19.4126 33.5946 24.574 33.241 25.8607 34.9807C25.9657 35.1076 26.0459 35.2534 26.0969 35.4101Z" fill="black"/>
<path d="M27.8925 29.6711C27.8925 29.6711 28.1464 31.4649 28.1642 31.6107C28.1819 31.7565 28.2734 33.5129 28.1642 33.7129C28.0549 33.9128 27.8925 34.2379 27.8925 34.2379C27.8925 34.2379 28.0736 34.6182 27.3491 34.7639C26.6245 34.9097 25.774 35.3432 25.774 35.3432C25.774 35.3432 23.9262 35.289 22.8945 34.9088C21.8628 34.5285 20.5949 34.6004 20.5949 34.6004C20.5949 34.6004 15.1067 33.6577 17.4614 32.5071C19.8162 31.3565 21.4818 32.9149 21.4818 32.9149L24.1073 32.7524C24.1073 32.7524 25.0858 32.1535 25.3576 32.2086C25.5494 32.2331 25.7442 32.2016 25.9187 32.118L25.9374 30.2148L27.8925 29.6711Z" fill="#FBBEBE"/>
<path opacity="0.1" d="M14.5791 25.2677L14.0534 25.2401L12.4606 31.4462C12.4606 31.4462 14.1804 31.0108 14.9217 31.4462C15.6629 31.8816 17.0224 31.9712 17.0224 31.9712L16.5154 27.0241L14.5791 25.2677Z" fill="black"/>
<path d="M14.5791 25.1584L14.0534 25.1308L12.4606 31.3368C12.4606 31.3368 14.1804 30.9014 14.9217 31.3368C15.6629 31.7722 17.0224 31.8619 17.0224 31.8619L16.5154 26.9148L14.5791 25.1584Z" fill="#FF7682"/>
<path opacity="0.1" d="M26.6255 26.5178L27.349 26.6813C27.349 26.6813 29.1968 29.341 29.3415 29.4898C29.4863 29.6385 28.6524 30.1794 28.3089 30.1794C27.9653 30.1794 26.2809 30.3764 25.7917 30.8315C25.3024 31.2866 25.5062 28.9963 25.5062 28.9441C25.5062 28.8918 26.1136 27.4467 26.1136 27.4467L26.6255 26.5178Z" fill="black"/>
<path d="M26.6255 26.4094L27.349 26.572C27.349 26.572 29.1968 29.2366 29.3415 29.3814C29.4863 29.5262 28.6524 30.071 28.3089 30.071C27.9653 30.071 26.2809 30.268 25.7917 30.7231C25.3024 31.1782 25.5062 28.8879 25.5062 28.8357C25.5062 28.7835 26.1175 27.3334 26.1175 27.3334L26.6255 26.4094Z" fill="#FF7682"/>
<g opacity="0.1">
<path opacity="0.1" d="M21.7546 16.2591C21.7503 16.1836 21.752 16.1078 21.7595 16.0326C21.6096 16.2576 21.5065 16.5105 21.4563 16.7763V17.0048C21.4563 17.0048 21.4563 16.9999 21.4563 16.997V17.0511C21.4563 17.2107 21.4563 17.3713 21.4514 17.5309H21.4376V17.6048C21.4376 17.5791 21.4376 17.5545 21.4327 17.5289C21.2358 17.4974 21.095 17.3319 20.9483 17.1999C20.8016 17.0679 20.5723 16.9418 20.3931 17.0433C20.3073 17.1015 20.2392 17.1823 20.1962 17.2767L19.9038 17.7929C19.9026 17.7386 19.8897 17.6852 19.8661 17.6362C19.8425 17.5873 19.8087 17.544 19.767 17.5092C19.5003 17.6259 19.2744 17.8194 19.1178 18.065C18.9613 18.3105 18.8813 18.5971 18.8879 18.8883C18.6189 18.7197 18.3939 18.4894 18.2315 18.2166C18.069 17.9437 17.9738 17.6361 17.9537 17.3191C17.9366 17.673 18.0141 18.0251 18.1783 18.3391C18.3426 18.653 18.5875 18.9174 18.8879 19.105C18.8815 18.8139 18.9617 18.5274 19.1182 18.2819C19.2747 18.0364 19.5005 17.8429 19.767 17.7259C19.8086 17.761 19.8423 17.8045 19.8659 17.8536C19.8895 17.9027 19.9024 17.9562 19.9038 18.0106L20.1933 17.4944C20.2362 17.4 20.3043 17.3192 20.3901 17.261C20.5693 17.1625 20.7928 17.2787 20.9454 17.4176C21.098 17.5565 21.2466 17.7289 21.4514 17.7515C21.4514 17.4994 21.454 17.2478 21.4592 16.997C21.5075 16.7338 21.608 16.4829 21.7546 16.2591Z" fill="black"/>
<path opacity="0.1" d="M21.4218 17.2511C21.4267 17.1841 21.4346 17.1172 21.4444 17.0541L21.4553 16.7822C21.4257 16.9367 21.4144 17.0941 21.4218 17.2511Z" fill="black"/>
<path opacity="0.1" d="M24.4086 18.4263C24.1399 18.5701 23.7973 18.4499 23.5689 18.249C23.3405 18.048 23.1859 17.7771 22.9841 17.5486C22.9692 17.5899 22.9671 17.6348 22.9782 17.6774C22.9893 17.72 23.013 17.7582 23.0462 17.787C23.0265 17.787 23.0078 17.7771 22.9891 17.7722C23.1859 17.9988 23.3425 18.2647 23.5689 18.4618C23.7953 18.6588 24.1399 18.7829 24.4086 18.6391C24.6774 18.4953 24.7541 18.1584 24.7305 17.8303C24.7128 18.0884 24.6203 18.312 24.4086 18.4263Z" fill="black"/>
<path opacity="0.1" d="M22.9831 17.7702C22.6539 17.6804 22.36 17.4921 22.1408 17.2305C21.9216 16.9689 21.7875 16.6464 21.7565 16.3064C21.7004 17.0797 22.2832 17.8549 23.0461 18.0037C23.0136 17.9754 22.9903 17.9382 22.9791 17.8966C22.9678 17.855 22.9693 17.811 22.9831 17.7702Z" fill="black"/>
</g>
<path d="M70.2594 33.8705C70.2594 33.8705 69.8716 33.8163 69.8716 33.2518C69.8716 32.6874 69.5939 31.6304 69.5939 31.6304C69.5939 31.6304 69.3537 29.7912 69.022 29.4996C68.6902 29.208 68.264 27.496 68.264 27.496C68.264 27.496 68.1911 26.567 68.0425 26.3671C67.8938 26.1671 67.693 25.6775 67.3967 24.9791C67.1004 24.2807 65.8679 23.8019 65.8679 23.8019C65.8679 23.8019 63.6342 22.5055 63.0012 22.0829C62.9433 22.0479 62.8892 22.007 62.8398 21.9608C62.7295 21.817 62.2491 21.814 62.2491 21.814C62.1989 21.4958 62.1507 21.1313 62.1349 20.8013C62.1349 20.7659 62.1349 20.7304 62.1349 20.6949C62.8407 20.2774 63.3724 19.6192 63.6322 18.841C63.644 18.8036 63.6539 18.7652 63.6647 18.7267C63.7079 18.7134 63.7478 18.6911 63.7817 18.6612C63.8157 18.6313 63.8429 18.5945 63.8616 18.5534C63.9177 18.4263 63.9197 18.2785 63.9906 18.1593C64.0733 18.0195 64.2308 17.9446 64.3548 17.8402C64.6679 17.5732 64.7486 17.125 64.7338 16.7182C64.724 16.3872 64.6708 16.0542 64.6915 15.7262C64.6915 15.6986 64.6915 15.671 64.6974 15.6434C64.7033 15.5952 64.7102 15.5449 64.719 15.4976C64.7673 15.2533 64.8726 15.0228 64.9317 14.7805C64.9907 14.5382 64.9967 14.2653 64.8588 14.0565C64.657 13.7501 64.2367 13.689 63.8675 13.6624C63.4491 13.627 63.08 13.6723 62.8073 13.3245C62.6822 13.1429 62.5412 12.9728 62.3859 12.8162C62.3308 12.765 61.7953 12.437 61.7953 12.4163C61.2713 12.1725 60.6769 12.1267 60.1218 12.2872C59.8432 12.368 59.5823 12.5 59.2998 12.566C58.6933 12.7098 57.9944 12.5542 57.4786 12.9019C57.1911 13.099 57.0188 13.4132 56.8574 13.7176C56.7261 13.9685 56.5929 14.2197 56.4577 14.4712C56.2392 14.8839 56.0186 15.3036 55.9271 15.7607C55.9079 15.8605 55.8958 15.9615 55.8907 16.0631C55.8907 16.0995 55.8907 16.136 55.8907 16.1724C55.8907 16.1882 55.8907 16.2039 55.8907 16.2197C55.8907 16.2532 55.8907 16.2867 55.8966 16.3182C55.9025 16.3497 55.8966 16.3586 55.9035 16.3793C55.9104 16.4 55.9123 16.4463 55.9182 16.4778C55.9241 16.5093 55.9359 16.5655 55.9478 16.6078C55.9478 16.6265 55.9596 16.6443 55.9655 16.663C55.9714 16.6817 55.9871 16.729 55.9999 16.7615C56.0127 16.794 56.0137 16.796 56.0216 16.8127C56.0364 16.8472 56.0541 16.8807 56.0718 16.9112C56.0797 16.924 56.0856 16.9368 56.0935 16.9497C56.1205 16.9958 56.1507 17.0399 56.184 17.0817C56.3937 17.3447 56.7048 17.5121 56.9342 17.7584C56.9342 17.7683 56.9342 17.7781 56.9342 17.788C56.9342 17.8146 56.9342 17.8412 56.9342 17.8687C56.9482 18.418 57.0962 18.9556 57.3652 19.4346C57.6342 19.9136 58.0162 20.3195 58.4777 20.6171C58.4777 20.6546 58.4827 20.693 58.4846 20.7314C58.5038 21.0235 58.5002 21.3166 58.4738 21.6081C58.4336 21.561 58.3834 21.5234 58.3269 21.4982C58.2703 21.473 58.2089 21.4607 58.147 21.4623C58.1047 21.4602 58.0623 21.4639 58.021 21.4732L58.0121 21.4663V21.4751C57.7955 21.5283 57.5288 21.7539 57.2738 22.3952C57.2738 22.3952 56.4981 23.27 55.9074 23.2335C55.3167 23.1971 53.8214 24.1447 53.8214 24.1447C53.8214 24.1447 52.3625 25.0914 52.0494 26.0568C51.8744 26.6043 51.6643 27.14 51.4204 27.6605L49.612 31.3762L49.2802 34.3315C49.2802 34.3315 49.4643 35.6426 49.4279 35.8436C49.3915 36.0445 50.1849 37.8472 50.1849 37.8472C50.1849 37.8472 52.8064 42.4555 53.8775 42.6919L53.9543 42.6387C54.0003 42.6619 54.0489 42.6798 54.099 42.6919L54.3195 42.5372C54.3332 42.7104 54.3272 42.8845 54.3018 43.0564C54.1551 43.5125 54.3579 46.4815 54.6158 47.0637C54.8738 47.6459 54.7822 55.2803 54.7822 55.2803L54.7458 55.9531C54.7458 55.9531 54.7458 55.9748 54.7546 56.0122L54.7458 56.1718L54.7724 56.1856C54.7999 56.3996 54.7909 56.6168 54.7458 56.8279C54.6532 57.1234 54.6158 57.9577 54.6158 57.9577C54.6158 57.9577 53.8775 62.6743 54.228 63.622C54.5784 64.5696 54.8747 65.6079 54.8747 65.6079C54.8747 65.6079 55.2439 66.79 54.8925 66.987C54.541 67.184 53.5458 67.5338 53.7485 68.0253C53.9356 68.4804 54.6454 69.7 54.7507 69.8783L54.7418 69.9768L54.5971 71.546C54.6206 71.7532 54.6767 71.9554 54.7635 72.1449C54.922 72.4877 55.2291 72.8414 55.8159 72.803C55.9143 72.7961 56.0275 72.7852 56.1387 72.7705C57.2108 72.6257 58.5299 72.1469 58.5299 72.1469C58.4615 72.1036 58.399 72.0516 58.3439 71.9922C58.2912 71.9412 58.2494 71.8799 58.2212 71.8121C58.1929 71.7444 58.1787 71.6716 58.1795 71.5982C58.1952 71.3116 57.6607 69.9511 57.5268 69.6152L57.4963 69.5404C57.4963 69.5404 58.715 68.2647 58.5122 67.1358C58.5122 67.1358 57.1635 66.3477 57.6075 65.9143C58.0515 65.4808 58.8449 64.2396 58.8449 64.2396C58.8449 64.2396 58.8814 59.595 58.8449 58.9024C58.807 58.4208 58.8298 57.9362 58.9129 57.4603C58.9276 57.3894 58.9454 57.3194 58.9641 57.2495C59.5786 57.3423 60.1992 57.3894 60.8207 57.3903C61.0478 57.3903 61.2775 57.3857 61.5098 57.3765C61.5098 57.4422 61.5128 57.5131 61.5187 57.5893C61.5698 58.7399 61.6653 60.7583 61.7431 61.508C61.8534 62.5817 62.4627 65.4789 62.4627 65.4789C62.4627 65.4789 61.3001 66.2246 62.6655 68.0657C62.6655 68.0657 62.6655 68.7316 62.575 68.8291C62.4782 69.145 62.4003 69.4664 62.3416 69.7916C62.2845 70.1373 62.2609 70.489 62.3535 70.6703C62.575 71.1057 63.9039 71.0702 63.9039 71.0702C63.9146 71.0677 63.9255 71.0661 63.9364 71.0653C64.1873 71.0387 64.4409 71.0625 64.6824 71.1353C64.924 71.208 65.1486 71.3282 65.3432 71.4889C65.8482 71.8947 67.7639 71.7174 68.8025 71.5874C69.209 71.5352 69.4807 71.4889 69.4807 71.4889C69.4938 71.4428 69.4985 71.3947 69.4945 71.347C69.4837 71.0919 69.2838 70.5323 67.9293 70.0329C67.9293 70.0329 66.6554 69.1759 66.6731 68.4292H66.6446H66.4979C66.5904 68.4262 66.6554 68.4262 66.6554 68.4262C66.6554 68.4262 66.1563 66.6048 66.3601 66.4561C66.5639 66.3073 65.9535 64.2889 65.9535 64.2889C65.9535 64.2889 65.604 60.9002 65.5844 60.6638C65.5857 60.46 65.6168 60.2576 65.6769 60.0629L65.5844 58.204C65.5844 58.204 65.5666 57.5864 65.5844 57.3854C65.5824 57.211 65.5686 57.0369 65.543 56.8643C65.5342 56.7953 65.5253 56.7234 65.5154 56.6525C65.9929 56.5313 66.303 56.42 66.303 56.42L66.2479 49.9529C66.6534 49.1649 66.7283 47.4351 66.7263 46.2096C66.7263 45.4216 66.6909 44.8384 66.6909 44.8384L67.2451 43.9331C67.2451 43.9331 67.3731 42.8495 67.1703 42.6121C67.0807 42.5047 67.1211 42.3934 67.1949 42.3018C67.2337 42.2699 67.2749 42.241 67.3179 42.2151C67.3131 42.2082 67.3088 42.201 67.3051 42.1934C67.3438 42.1611 67.385 42.1318 67.4282 42.1058C67.4282 42.1058 67.2313 41.8004 67.4075 41.6713C67.5729 41.7836 67.7206 41.8733 67.8328 41.9373C67.8249 42.0092 67.817 42.0506 67.817 42.0506L67.8643 41.9521C67.9726 42.0132 68.0385 42.0506 68.0385 42.0506C68.0385 42.0506 68.9068 40.3198 68.8881 40.0656C68.8694 39.8115 69.4788 38.7358 69.4788 38.7358C69.4788 38.7358 69.5526 38.1703 69.8853 37.9339C70.2181 37.6975 70.1433 35.9844 70.1433 35.9844C70.1433 35.9844 70.2358 35.092 70.4573 34.7285C70.6788 34.365 70.2594 33.8705 70.2594 33.8705ZM53.6462 33.111L53.6629 33.5237C53.5645 33.3651 53.4936 33.2518 53.4936 33.2518L53.6462 33.111Z" fill="url(#paint1_linear)"/>
<path d="M68.0898 41.3019L67.8771 42.2082C67.8771 42.2082 66.1741 41.3364 65.8679 40.2331C65.5617 39.1298 66.3808 38.7092 66.3808 38.7092L67.9687 39.381L68.0898 41.3019Z" fill="white"/>
<path opacity="0.1" d="M68.0898 41.3019L67.8771 42.2082C67.8771 42.2082 66.1741 41.3364 65.8679 40.2331C65.5617 39.1298 66.3808 38.7092 66.3808 38.7092L67.9687 39.381L68.0898 41.3019Z" fill="black"/>
<path d="M60.869 25.4638C59.5695 24.9584 57.898 23.2887 58.3154 22.5085C58.4076 22.3115 58.4627 22.0991 58.4778 21.882C58.5047 21.5872 58.5086 21.2908 58.4896 20.9954C58.4603 20.5113 58.4021 20.0294 58.3154 19.5523C58.3154 19.5523 62.3722 19.6439 62.1359 20.2418C62.067 20.4182 62.0552 20.7226 62.0749 21.0624C62.0946 21.4023 62.1428 21.7894 62.194 22.1155C62.2639 22.5617 62.3358 22.9035 62.3358 22.9035C62.3358 22.9035 62.0867 23.2513 61.942 23.27C61.7973 23.2887 62.7335 26.1878 60.869 25.4638Z" fill="#CF6F80"/>
<path opacity="0.1" d="M62.136 20.2448C62.067 20.4211 62.0552 20.7255 62.0749 21.0653C61.5315 21.3928 60.9068 21.5602 60.2726 21.5483C59.6384 21.5365 59.0204 21.3459 58.4896 20.9984C58.4603 20.5143 58.4021 20.0324 58.3154 19.5552C58.3154 19.5552 62.3722 19.6468 62.136 20.2448Z" fill="black"/>
<path d="M63.7022 18.0697C63.7129 18.9635 63.3683 19.8249 62.7443 20.4645C62.1203 21.104 61.268 21.4694 60.3748 21.4801C59.4816 21.4908 58.6207 21.146 57.9816 20.5216C57.3425 19.8972 56.9774 19.0443 56.9667 18.1505C56.9667 18.1229 56.9667 18.0973 56.9667 18.0697C56.9667 17.1757 57.3216 16.3183 57.9533 15.6861C58.5851 15.0539 59.442 14.6988 60.3354 14.6988C61.2288 14.6988 62.0857 15.0539 62.7174 15.6861C63.3492 16.3183 63.7041 17.1757 63.7041 18.0697H63.7022Z" fill="#CF6F80"/>
<path opacity="0.1" d="M60.869 25.4638C59.5695 24.9584 57.898 23.2887 58.3154 22.5085C58.4076 22.3115 58.4627 22.0991 58.4778 21.882L60.2567 23.3458L61.3573 24.2491L62.194 22.1184C62.2639 22.5647 62.3358 22.9065 62.3358 22.9065C62.3358 22.9065 62.0867 23.2542 61.942 23.2729C61.7973 23.2916 62.7335 26.1878 60.869 25.4638Z" fill="black"/>
<path d="M65.4692 31.9328L63.9837 56.9047L62.0463 57.0318L57.0287 42.552L57.8517 25.3613L58.0259 21.7293L60.2566 23.5626L61.3572 24.4659L62.2186 22.2721L63.8203 23.6689L65.4692 31.9328Z" fill="#FF7682"/>
<path opacity="0.1" d="M62.6616 57.3224C58.6255 58.0119 54.9289 56.0348 54.9289 56.0348L54.9644 55.365C54.9644 55.365 55.0559 47.771 54.8019 47.1888C54.5479 46.6066 54.3501 43.6582 54.4938 43.2081C54.6375 42.7579 53.9691 35.9608 53.9691 35.9608L53.8608 33.2026L49.8945 31.59L51.6665 27.893C51.9058 27.3747 52.1116 26.8417 52.2828 26.2971C52.5909 25.3367 54.0213 24.3939 54.0213 24.3939C54.0213 24.3939 55.4881 23.4522 56.0679 23.4877C56.6477 23.5231 57.4077 22.6543 57.4077 22.6543C57.9688 21.223 58.4768 21.8662 58.4768 21.8662C58.4768 21.9352 58.4768 21.8662 58.4493 22.078C58.2524 23.6492 61.6329 28.614 61.6811 28.7027L62.007 36.5499L62.3328 46.4805L62.6616 57.3224Z" fill="black"/>
<path d="M62.5534 57.3224C58.5172 58.0119 54.8197 56.0348 54.8197 56.0348L54.8561 55.365C54.8561 55.365 54.9467 47.771 54.6927 47.1888C54.4387 46.6066 54.2408 43.6553 54.3855 43.2012C54.5303 42.747 53.8579 35.9569 53.8579 35.9569L53.7486 33.1986L49.7833 31.586L51.5553 27.889C51.794 27.3709 51.9999 26.8382 52.1716 26.2942C52.4797 25.3367 53.915 24.393 53.915 24.393C53.915 24.393 55.3818 23.4512 55.9606 23.4867C56.5395 23.5221 57.3034 22.6543 57.3034 22.6543C57.8655 21.223 58.4847 21.8662 58.4847 21.8662C58.4847 21.9352 58.4256 21.9647 58.4572 22.078C58.8903 23.6019 61.5325 28.614 61.5808 28.7027L61.9066 36.5499L62.2256 46.4854L62.5534 57.3224Z" fill="white"/>
<path opacity="0.1" d="M61.4655 28.9243C61.0314 28.7431 58.7318 26.1159 58.7318 26.1159V25.5179C58.6481 25.3209 58.1499 25.4411 57.7473 25.579L57.9206 21.947L58.1175 22.1105C58.5477 23.6335 61.4183 28.8367 61.4655 28.9243Z" fill="black"/>
<path d="M61.5748 28.7076C61.1397 28.5254 58.8401 25.8991 58.8401 25.8991V25.3002C58.7564 25.1032 58.2593 25.2234 57.8557 25.3613L58.026 21.7332L58.2228 21.8958C58.657 23.4167 61.5266 28.619 61.5748 28.7076Z" fill="white"/>
<path opacity="0.1" d="M54.929 41.8093C54.9831 41.8093 57.7356 41.5197 57.7356 41.5197C57.7356 41.5197 59.4022 44.8 59.2929 45.5969C59.1837 46.3939 58.9858 47.1012 58.3154 46.976C57.645 46.8509 54.7075 47.0746 54.7075 47.0746L54.929 41.8093Z" fill="black"/>
<path d="M54.8196 41.5916C54.8748 41.5916 57.6272 41.3019 57.6272 41.3019C57.6272 41.3019 59.2929 44.5872 59.1846 45.3753C59.0763 46.1633 58.8765 46.8795 58.2071 46.7544C57.5376 46.6293 54.5981 46.8529 54.5981 46.8529L54.8196 41.5916Z" fill="white"/>
<path d="M56.8939 40.0558C56.8939 40.0558 59.4199 41.4152 59.4741 41.829C59.5282 42.2427 58.1884 41.6477 57.899 41.5748C57.7084 41.5295 57.5145 41.4992 57.3191 41.4842L55.3887 41.5364L56.8939 40.0558Z" fill="#CF6F80"/>
<path opacity="0.1" d="M60.7597 29.0938C60.9065 29.0938 61.0255 28.9747 61.0255 28.8278C61.0255 28.6809 60.9065 28.5619 60.7597 28.5619C60.613 28.5619 60.494 28.6809 60.494 28.8278C60.494 28.9747 60.613 29.0938 60.7597 29.0938Z" fill="black"/>
<path d="M60.7597 28.9854C60.9065 28.9854 61.0255 28.8664 61.0255 28.7195C61.0255 28.5726 60.9065 28.4535 60.7597 28.4535C60.613 28.4535 60.494 28.5726 60.494 28.7195C60.494 28.8664 60.613 28.9854 60.7597 28.9854Z" fill="#3F3D56"/>
<path opacity="0.1" d="M61.249 40.6074C61.3958 40.6074 61.5148 40.4884 61.5148 40.3415C61.5148 40.1946 61.3958 40.0755 61.249 40.0755C61.1022 40.0755 60.9832 40.1946 60.9832 40.3415C60.9832 40.4884 61.1022 40.6074 61.249 40.6074Z" fill="black"/>
<path d="M61.249 40.4981C61.3958 40.4981 61.5148 40.379 61.5148 40.2322C61.5148 40.0853 61.3958 39.9662 61.249 39.9662C61.1022 39.9662 60.9832 40.0853 60.9832 40.2322C60.9832 40.379 61.1022 40.4981 61.249 40.4981Z" fill="#3F3D56"/>
<path opacity="0.1" d="M61.0255 34.8506C61.1723 34.8506 61.2913 34.7315 61.2913 34.5847C61.2913 34.4378 61.1723 34.3187 61.0255 34.3187C60.8787 34.3187 60.7597 34.4378 60.7597 34.5847C60.7597 34.7315 60.8787 34.8506 61.0255 34.8506Z" fill="black"/>
<path d="M61.0255 34.7423C61.1723 34.7423 61.2913 34.6232 61.2913 34.4763C61.2913 34.3294 61.1723 34.2103 61.0255 34.2103C60.8787 34.2103 60.7597 34.3294 60.7597 34.4763C60.7597 34.6232 60.8787 34.7423 61.0255 34.7423Z" fill="#3F3D56"/>
<path d="M67.1526 41.429C67.1526 41.429 67.3338 41.7009 67.1526 41.823C66.9715 41.9452 67.1704 42.2584 67.1704 42.2584C67.1704 42.2584 66.7185 42.5224 66.9174 42.7618C67.1162 43.0012 66.9902 44.0759 66.9902 44.0759L66.4468 44.9812C66.4468 44.9812 66.4793 45.5614 66.4813 46.3455C66.4813 47.569 66.4094 49.289 66.0117 50.0731L66.0648 56.5067C66.0648 56.5067 64.1619 57.2032 62.5691 56.9904L62.3329 46.6667C62.3329 46.6667 62.6774 40.8123 62.8044 39.6893C62.8787 39.1063 62.909 38.5185 62.895 37.931C62.895 37.931 62.8408 36.1736 62.6587 35.3589C62.6587 35.3589 62.4618 31.8244 62.4421 30.8462C62.4333 30.3783 62.4579 29.013 62.4854 27.7146C62.516 26.2951 62.5504 24.9564 62.5504 24.9564L62.1911 22.1105C62.1911 22.1105 62.5504 22.075 62.6587 22.2189C62.7072 22.2642 62.76 22.3048 62.8162 22.34C63.4374 22.7597 65.6287 24.0501 65.6287 24.0501C65.6287 24.0501 66.8416 24.5328 67.132 25.2244C67.4224 25.9159 67.6242 26.4065 67.765 26.6035C67.9057 26.8005 67.9825 27.7265 67.9825 27.7265C67.9825 27.7265 68.3999 29.4307 68.7258 29.7193C69.0516 30.0079 69.2859 31.8402 69.2859 31.8402L66.4064 34.1059C66.4064 34.1059 66.1534 37.8748 66.0993 38.0206C66.0451 38.1664 67.1526 41.429 67.1526 41.429Z" fill="white"/>
<path d="M67.2619 41.429C67.2619 41.429 67.442 41.7009 67.2619 41.8231C67.0817 41.9452 67.2786 42.2585 67.2786 42.2585C67.2786 42.2585 66.8268 42.5225 67.0256 42.7618C67.2245 43.0012 67.0985 44.0759 67.0985 44.0759L66.557 44.9812C66.557 44.9812 66.5895 45.5615 66.5925 46.3456C66.5925 47.5691 66.5206 49.289 66.1229 50.0731L66.177 56.5067C66.177 56.5067 64.2741 57.2032 62.6813 56.9904L62.446 46.6667C62.446 46.6667 62.7896 40.8124 62.9176 39.6894C62.992 39.1064 63.0219 38.5185 63.0072 37.931C63.0072 37.931 62.953 36.1736 62.7719 35.3589C62.7719 35.3589 62.575 31.8245 62.5543 30.8463C62.5455 30.3783 62.5701 29.013 62.5976 27.7147C62.6282 26.2952 62.6626 24.9564 62.6626 24.9564L62.1881 22.0721C62.1881 22.0721 62.6626 22.0721 62.7719 22.2189C62.8199 22.2648 62.8727 22.3054 62.9294 22.3401C63.5496 22.7597 65.7409 24.0502 65.7409 24.0502C65.7409 24.0502 66.9508 24.5329 67.2461 25.2244C67.5414 25.9159 67.7383 26.4065 67.8791 26.6035C68.0199 26.8005 68.0967 27.7265 68.0967 27.7265C68.0967 27.7265 68.5141 29.4307 68.8399 29.7193C69.1658 30.008 69.401 31.8402 69.401 31.8402L66.5216 34.1059C66.5216 34.1059 66.2686 37.8748 66.2135 38.0206C66.1583 38.1664 67.2619 41.429 67.2619 41.429Z" fill="white"/>
<path opacity="0.1" d="M63.8134 25.7928L64.0743 26.5513L62.7049 27.9304C62.7354 26.5109 62.7699 25.1722 62.7699 25.1722L62.2954 22.2888C62.2954 22.2888 62.7699 22.2888 62.8792 22.4356C62.9272 22.4815 62.98 22.5221 63.0367 22.5568L64.2003 25.9149L63.8134 25.7928Z" fill="black"/>
<path d="M63.7022 25.5751L63.9631 26.3326L62.5947 27.7117C62.6242 26.2922 62.6597 24.9535 62.6597 24.9535L62.1842 22.0692C62.1842 22.0692 62.6597 22.0692 62.768 22.2159C62.8163 22.2615 62.869 22.3021 62.9255 22.3371L64.096 25.6982L63.7022 25.5751Z" fill="white"/>
<path opacity="0.1" d="M63.7022 18.0697C63.7025 18.4247 63.6467 18.7774 63.5368 19.1149C63.5182 19.118 63.4993 19.1173 63.481 19.1129C63.4627 19.1085 63.4455 19.1005 63.4304 19.0893C63.4039 18.2027 62.9687 17.3693 62.4322 16.6611C62.2813 16.4474 62.0988 16.2581 61.8908 16.0996C61.6803 15.9414 61.4185 15.8674 61.1564 15.8917C60.8611 15.9321 60.6002 16.133 60.3019 16.1587C59.9082 16.1912 59.5557 15.9183 59.1649 15.9055C59.006 15.9068 58.8492 15.9421 58.7051 16.0091C58.5609 16.076 58.4327 16.173 58.3291 16.2936C58.1236 16.5362 57.971 16.819 57.8812 17.124C57.7264 17.5869 57.6421 18.0704 57.6312 18.5583C57.6262 18.8341 57.5997 19.1799 57.3437 19.2804C57.3631 19.0777 57.3401 18.8732 57.2762 18.6798C57.2123 18.4865 57.1089 18.3086 56.9726 18.1574L56.9667 18.1505C56.9667 18.1229 56.9667 18.0973 56.9667 18.0697C56.9667 17.1757 57.3216 16.3183 57.9533 15.6861C58.5851 15.0539 59.442 14.6988 60.3354 14.6988C61.2288 14.6988 62.0857 15.0539 62.7174 15.6861C63.3492 16.3183 63.7041 17.1757 63.7041 18.0697H63.7022Z" fill="black"/>
<path d="M61.7333 12.7178C61.2218 12.477 60.6399 12.4314 60.0972 12.5897C59.8245 12.6705 59.5676 12.8015 59.2909 12.8675C58.7003 13.0103 58.0112 12.8557 57.5042 13.2014C57.2227 13.3985 57.0533 13.7097 56.8958 14.0131L56.5021 14.7628C56.2874 15.1736 56.0709 15.5912 55.9813 16.0434C55.8917 16.4956 55.9459 17.0019 56.2323 17.3664C56.44 17.6304 56.7491 17.7969 56.9756 18.0461C57.1116 18.198 57.2147 18.3765 57.2784 18.5703C57.3421 18.7641 57.365 18.9689 57.3457 19.172C57.6017 19.0735 57.6273 18.7258 57.6332 18.45C57.6442 17.962 57.7285 17.4785 57.8832 17.0157C57.9731 16.7107 58.1256 16.4278 58.3311 16.1853C58.4347 16.0645 58.5628 15.9674 58.707 15.9003C58.8511 15.8331 59.0079 15.7977 59.1669 15.7961C59.5607 15.8099 59.9141 16.0828 60.3039 16.0493C60.5993 16.0247 60.8611 15.8237 61.1584 15.7833C61.4205 15.7585 61.6825 15.8327 61.8928 15.9912C62.1009 16.1492 62.2832 16.3386 62.4332 16.5527C62.9707 17.262 63.4069 18.0914 63.4324 18.9809C63.5437 19.0617 63.7042 18.9553 63.7593 18.8292C63.8144 18.7031 63.8164 18.5554 63.8863 18.4352C63.967 18.2963 64.1215 18.2214 64.2426 18.117C64.5498 17.852 64.6266 17.4058 64.6147 17.0009C64.6029 16.596 64.5242 16.1853 64.601 15.7873C64.6472 15.544 64.7516 15.3144 64.8087 15.0731C64.8658 14.8317 64.8727 14.5608 64.7378 14.353C64.5409 14.0486 64.1265 13.9875 63.7652 13.959C63.3547 13.9235 62.9875 13.9688 62.7256 13.6231C62.6024 13.4428 62.4641 13.2735 62.3122 13.1167C62.258 13.0645 61.7333 12.7394 61.7333 12.7178Z" fill="#512E4E"/>
<path opacity="0.1" d="M51.0306 33.4912L50.0028 31.589L49.677 34.5246C49.677 34.5246 49.8581 35.8288 49.8217 36.0288C49.7853 36.2288 50.564 38.0216 50.564 38.0216C50.564 38.0216 53.1363 42.6072 54.1867 42.8426L57.7306 40.305L56.7895 39.1092C56.7895 39.1092 56.4636 38.9821 56.3819 39.1092C56.3819 39.1092 54.6336 36.1007 54.4534 35.884C54.2733 35.6673 54.3077 35.2309 54.3077 35.2309C54.3077 35.2309 54.036 34.9413 54.1266 34.6694C54.2172 34.3975 53.6068 33.4558 53.6068 33.4558L54.168 32.9307L51.0306 33.4912Z" fill="black"/>
<path d="M50.057 31.3713L49.7853 31.589L49.4594 34.5246C49.4594 34.5246 49.6405 35.8288 49.6041 36.0288C49.5677 36.2288 50.3474 38.0216 50.3474 38.0216C50.3474 38.0216 52.9187 42.6072 53.9691 42.8426L57.519 40.305L56.5768 39.1091C56.5768 39.1091 56.251 38.9821 56.1693 39.1091C56.1693 39.1091 54.4219 36.1007 54.2408 35.884C54.0597 35.6673 54.0961 35.2309 54.0961 35.2309C54.0961 35.2309 53.8244 34.9413 53.9149 34.6694C54.0055 34.3975 53.3893 33.4557 53.3893 33.4557L53.9504 32.9307L50.057 31.3713Z" fill="white"/>
<path opacity="0.1" d="M66.9173 42.8751C67.1142 43.1145 66.9902 44.1902 66.9902 44.1902L66.4468 45.0896C66.4468 45.0896 66.4792 45.6708 66.4812 46.4549L65.5677 46.7406C65.485 46.7664 65.3973 46.772 65.312 46.757C65.2267 46.7421 65.1462 46.7069 65.0772 46.6544C65.0082 46.602 64.9528 46.5338 64.9155 46.4556C64.8782 46.3774 64.8601 46.2913 64.8628 46.2047L65.0213 41.1217L67.1526 41.9363C66.9715 42.0624 67.1703 42.3717 67.1703 42.3717C67.1703 42.3717 66.7185 42.6357 66.9173 42.8751Z" fill="black"/>
<path d="M67.0256 42.7668C67.2225 43.0052 67.0985 44.0809 67.0985 44.0809L66.557 44.9812C66.557 44.9812 66.5895 45.5614 66.5925 46.3456L65.6622 46.6362C65.5814 46.6615 65.4957 46.6671 65.4123 46.6526C65.3289 46.6381 65.2502 46.6038 65.1828 46.5526C65.1153 46.5014 65.0611 46.4347 65.0246 46.3583C64.9881 46.2818 64.9705 46.1978 64.9731 46.1131L65.1316 41.0123L67.2619 41.829C67.0798 41.9551 67.2786 42.2644 67.2786 42.2644C67.2786 42.2644 66.8268 42.5274 67.0256 42.7668Z" fill="white"/>
<path d="M67.7325 40.3415C67.7325 40.3415 67.5877 41.2665 67.2255 41.3207C66.8632 41.3749 66.7008 42.817 66.3395 42.7668C65.9782 42.7165 66.2174 41.4251 66.2302 41.1749C66.243 40.9247 65.8364 39.8884 66.1396 39.6529C66.4428 39.4175 67.4076 39.6529 67.4076 39.6529L67.7325 40.3415Z" fill="#CF6F80"/>
<path opacity="0.1" d="M68.4984 33.2193L69.1806 31.8402C69.1806 31.8402 69.4533 32.8913 69.4533 33.4528C69.4533 34.0143 69.8333 34.0695 69.8333 34.0695C69.8333 34.0695 70.2497 34.562 70.0302 34.9216C69.8106 35.2811 69.723 36.1716 69.723 36.1716C69.723 36.1716 69.7949 37.8748 69.469 38.1103C69.1432 38.3457 69.0703 38.9082 69.0703 38.9082C69.0703 38.9082 68.4728 39.977 68.4915 40.2312C68.5102 40.4853 67.6587 42.2063 67.6587 42.2063C67.6587 42.2063 68.0751 40.0676 65.6484 39.1436C65.6484 39.1436 65.6297 38.4186 65.8109 38.2196C65.992 38.0206 66.2745 37.9241 66.0973 36.9232C65.9201 35.9224 66.0461 34.7157 66.0461 34.4743C66.0461 34.233 66.5896 32.7288 66.5896 32.7288L68.4984 33.2193Z" fill="black"/>
<path d="M68.8015 31.6432L69.3981 31.8402C69.3981 31.8402 69.6707 32.8913 69.6707 33.4528C69.6707 34.0143 70.0507 34.0695 70.0507 34.0695C70.0507 34.0695 70.4672 34.562 70.2476 34.9216C70.0281 35.2811 69.9395 36.1717 69.9395 36.1717C69.9395 36.1717 70.0123 37.8749 69.6865 38.1103C69.3606 38.3457 69.2927 38.9082 69.2927 38.9082C69.2927 38.9082 68.6952 39.977 68.7139 40.2312C68.7326 40.4853 67.8801 42.2063 67.8801 42.2063C67.8801 42.2063 68.2965 40.0677 65.8699 39.1437C65.8699 39.1437 65.8521 38.4186 66.0333 38.2196C66.2144 38.0207 66.4969 37.9241 66.3197 36.9233C66.1425 35.9224 66.2686 34.7157 66.2686 34.4744C66.2686 34.233 66.812 32.7288 66.812 32.7288L68.8015 31.6432Z" fill="white"/>
<g opacity="0.1">
<path opacity="0.1" d="M64.2426 17.9002C64.1215 18.0057 63.966 18.0795 63.8853 18.2184C63.8164 18.3376 63.8144 18.4854 63.7593 18.6125C63.7041 18.7395 63.5437 18.8449 63.4314 18.7642C63.4059 17.8776 62.9697 17.0452 62.4332 16.3359C62.2832 16.1222 62.1009 15.9331 61.8928 15.7754C61.6822 15.6166 61.42 15.5421 61.1574 15.5666C60.8621 15.607 60.6022 15.8079 60.3039 15.8335C59.9101 15.8661 59.5567 15.5932 59.1659 15.5804C59.0071 15.5816 58.8504 15.6169 58.7064 15.6838C58.5624 15.7508 58.4344 15.8478 58.3311 15.9685C58.1256 16.2111 57.973 16.4939 57.8832 16.7989C57.7285 17.2618 57.6442 17.7453 57.6331 18.2332C57.6272 18.508 57.6016 18.8509 57.3477 18.9533C57.3536 19.0264 57.3536 19.0999 57.3477 19.173C57.6046 19.0745 57.6302 18.7267 57.6361 18.4509C57.6472 17.963 57.7314 17.4795 57.8861 17.0166C57.976 16.7116 58.1285 16.4288 58.3341 16.1862C58.4375 16.0656 58.5654 15.9684 58.7094 15.9013C58.8534 15.8342 59.01 15.7987 59.1689 15.7971C59.5626 15.8109 59.917 16.0838 60.3069 16.0503C60.6022 16.0256 60.864 15.8247 61.1604 15.7843C61.4228 15.7595 61.685 15.8336 61.8957 15.9921C62.1039 16.1502 62.2862 16.3396 62.4362 16.5536C62.9727 17.2629 63.4088 18.0923 63.4344 18.9819C63.5466 19.0626 63.7071 18.9563 63.7622 18.8302C63.8173 18.7041 63.8193 18.5563 63.8882 18.4361C63.9689 18.2972 64.1245 18.2224 64.2456 18.1179C64.5527 17.853 64.6295 17.4067 64.6177 17.0019C64.6177 16.989 64.6177 16.9772 64.6177 16.9644C64.598 17.3171 64.5045 17.6747 64.2426 17.9002Z" fill="black"/>
<path opacity="0.1" d="M56.9746 17.8313C56.7491 17.5821 56.44 17.4146 56.2323 17.1506C56.0569 16.9176 55.9569 16.6364 55.9459 16.3448C55.915 16.7094 56.0167 17.0728 56.2323 17.3683C56.44 17.6323 56.7491 17.7988 56.9746 18.048C57.1923 18.2917 57.3232 18.6007 57.3467 18.9267C57.3615 18.7285 57.3362 18.5293 57.2722 18.3411C57.2083 18.1528 57.1071 17.9795 56.9746 17.8313Z" fill="black"/>
<path opacity="0.1" d="M64.8087 14.8564C64.7506 15.0977 64.6472 15.3272 64.6 15.5705C64.5716 15.7351 64.5614 15.9022 64.5695 16.069C64.5727 15.9748 64.5829 15.8809 64.6 15.7882C64.6472 15.5449 64.7506 15.3154 64.8087 15.0741C64.842 14.9409 64.853 14.803 64.8412 14.6662C64.8348 14.7303 64.824 14.7938 64.8087 14.8564Z" fill="black"/>
</g>
<g filter="url(#filter2_d)">
<path fill-rule="evenodd" clip-rule="evenodd" d="M39.3438 18.7195C43.0887 18.4469 46 16.382 46 13.875C46 11.1826 42.6421 9 38.5 9C34.3579 9 31 11.1826 31 13.875C31 16.0549 33.2013 17.9007 36.2378 18.5243L35 21L39.3438 18.7195Z" fill="white"/>
</g>
<path d="M38.314 14.776C38.246 14.776 38.19 14.752 38.146 14.704C38.106 14.656 38.086 14.59 38.086 14.506C38.086 14.286 38.126 14.1 38.206 13.948C38.286 13.796 38.402 13.63 38.554 13.45C38.674 13.306 38.762 13.186 38.818 13.09C38.874 12.994 38.902 12.886 38.902 12.766C38.902 12.634 38.852 12.53 38.752 12.454C38.656 12.374 38.524 12.334 38.356 12.334C38.212 12.334 38.074 12.366 37.942 12.43C37.81 12.49 37.656 12.578 37.48 12.694C37.38 12.75 37.298 12.778 37.234 12.778C37.166 12.778 37.106 12.748 37.054 12.688C37.006 12.624 36.982 12.55 36.982 12.466C36.982 12.35 37.03 12.256 37.126 12.184C37.294 12.04 37.492 11.928 37.72 11.848C37.948 11.764 38.178 11.722 38.41 11.722C38.654 11.722 38.87 11.764 39.058 11.848C39.25 11.932 39.398 12.048 39.502 12.196C39.61 12.344 39.664 12.514 39.664 12.706C39.664 12.914 39.614 13.096 39.514 13.252C39.414 13.404 39.268 13.576 39.076 13.768C38.912 13.936 38.788 14.078 38.704 14.194C38.624 14.306 38.574 14.434 38.554 14.578C38.542 14.642 38.514 14.692 38.47 14.728C38.43 14.76 38.378 14.776 38.314 14.776ZM38.326 16.036C38.198 16.036 38.092 15.994 38.008 15.91C37.924 15.822 37.882 15.714 37.882 15.586C37.882 15.458 37.924 15.352 38.008 15.268C38.092 15.18 38.198 15.136 38.326 15.136C38.454 15.136 38.56 15.18 38.644 15.268C38.728 15.352 38.77 15.458 38.77 15.586C38.77 15.714 38.726 15.822 38.638 15.91C38.554 15.994 38.45 16.036 38.326 16.036Z" fill="#FF7682"/>
</g>
<path d="M100.112 34.064C99.5733 34.064 99.104 33.9493 98.704 33.72C98.304 33.4853 97.9973 33.152 97.784 32.72C97.5707 32.2827 97.464 31.768 97.464 31.176C97.464 30.5893 97.5707 30.08 97.784 29.648C97.9973 29.2107 98.304 28.8773 98.704 28.648C99.104 28.4133 99.5733 28.296 100.112 28.296C100.464 28.296 100.797 28.352 101.112 28.464C101.427 28.5707 101.701 28.728 101.936 28.936C102.037 29.016 102.088 29.1227 102.088 29.256C102.088 29.352 102.061 29.4347 102.008 29.504C101.955 29.568 101.891 29.6 101.816 29.6C101.725 29.6 101.637 29.5653 101.552 29.496C101.296 29.304 101.061 29.1707 100.848 29.096C100.64 29.016 100.403 28.976 100.136 28.976C99.5493 28.976 99.0987 29.1653 98.784 29.544C98.4693 29.9227 98.312 30.4667 98.312 31.176C98.312 31.8907 98.4693 32.4373 98.784 32.816C99.0987 33.1947 99.5493 33.384 100.136 33.384C100.392 33.384 100.624 33.344 100.832 33.264C101.045 33.184 101.285 33.0507 101.552 32.864C101.659 32.7947 101.747 32.76 101.816 32.76C101.891 32.76 101.955 32.7947 102.008 32.864C102.061 32.928 102.088 33.008 102.088 33.104C102.088 33.2373 102.037 33.344 101.936 33.424C101.701 33.632 101.427 33.792 101.112 33.904C100.797 34.0107 100.464 34.064 100.112 34.064ZM103.382 34.04C103.265 34.04 103.166 34.008 103.086 33.944C103.011 33.88 102.974 33.784 102.974 33.656V28.712C102.974 28.584 103.011 28.488 103.086 28.424C103.166 28.3547 103.265 28.32 103.382 28.32C103.499 28.32 103.595 28.3547 103.67 28.424C103.745 28.488 103.782 28.584 103.782 28.712V33.656C103.782 33.784 103.745 33.88 103.67 33.944C103.595 34.008 103.499 34.04 103.382 34.04ZM105.32 34.04C105.202 34.04 105.104 34.008 105.024 33.944C104.949 33.88 104.912 33.784 104.912 33.656V30.408C104.912 30.28 104.949 30.184 105.024 30.12C105.104 30.0507 105.202 30.016 105.32 30.016C105.437 30.016 105.533 30.0507 105.608 30.12C105.682 30.184 105.72 30.28 105.72 30.408V33.656C105.72 33.784 105.682 33.88 105.608 33.944C105.533 34.008 105.437 34.04 105.32 34.04ZM105.32 29.232C105.165 29.232 105.042 29.1893 104.952 29.104C104.861 29.0187 104.816 28.9067 104.816 28.768C104.816 28.6293 104.861 28.52 104.952 28.44C105.042 28.3547 105.165 28.312 105.32 28.312C105.469 28.312 105.589 28.3547 105.68 28.44C105.776 28.52 105.824 28.6293 105.824 28.768C105.824 28.9067 105.778 29.0187 105.688 29.104C105.597 29.1893 105.474 29.232 105.32 29.232ZM108.521 34.056C108.142 34.056 107.809 33.9733 107.521 33.808C107.238 33.6427 107.017 33.408 106.857 33.104C106.702 32.8 106.625 32.448 106.625 32.048C106.625 31.6427 106.705 31.2853 106.865 30.976C107.03 30.6667 107.26 30.4267 107.553 30.256C107.846 30.0853 108.182 30 108.561 30C108.764 30 108.966 30.0293 109.169 30.088C109.377 30.1467 109.561 30.2267 109.721 30.328C109.892 30.4453 109.977 30.5813 109.977 30.736C109.977 30.8267 109.953 30.904 109.905 30.968C109.857 31.0267 109.796 31.056 109.721 31.056C109.673 31.056 109.625 31.0453 109.577 31.024C109.529 30.9973 109.468 30.96 109.393 30.912C109.26 30.8267 109.134 30.7627 109.017 30.72C108.905 30.672 108.769 30.648 108.609 30.648C108.246 30.648 107.964 30.7707 107.761 31.016C107.564 31.2613 107.465 31.6027 107.465 32.04C107.465 32.4773 107.564 32.816 107.761 33.056C107.958 33.2907 108.238 33.408 108.601 33.408C108.761 33.408 108.902 33.384 109.025 33.336C109.148 33.288 109.273 33.224 109.401 33.144C109.46 33.1067 109.518 33.0747 109.577 33.048C109.636 33.0213 109.689 33.008 109.737 33.008C109.812 33.008 109.873 33.04 109.921 33.104C109.969 33.1627 109.993 33.2373 109.993 33.328C109.993 33.4027 109.972 33.472 109.929 33.536C109.892 33.5947 109.825 33.656 109.729 33.72C109.569 33.8267 109.382 33.9093 109.169 33.968C108.956 34.0267 108.74 34.056 108.521 34.056ZM113.996 33.368C114.092 33.448 114.14 33.5467 114.14 33.664C114.14 33.7653 114.106 33.8533 114.036 33.928C113.967 34.0027 113.884 34.04 113.788 34.04C113.687 34.04 113.596 34.0027 113.516 33.928L111.524 32.168V33.648C111.524 33.776 111.487 33.8747 111.412 33.944C111.338 34.008 111.242 34.04 111.124 34.04C111.007 34.04 110.908 34.008 110.828 33.944C110.754 33.8747 110.716 33.776 110.716 33.648V28.712C110.716 28.584 110.754 28.488 110.828 28.424C110.908 28.3547 111.007 28.32 111.124 28.32C111.242 28.32 111.338 28.3547 111.412 28.424C111.487 28.488 111.524 28.584 111.524 28.712V31.848L113.348 30.144C113.439 30.064 113.527 30.024 113.612 30.024C113.714 30.024 113.802 30.0613 113.876 30.136C113.951 30.2107 113.988 30.2987 113.988 30.4C113.988 30.5013 113.943 30.5947 113.852 30.68L112.428 31.984L113.996 33.368ZM119.07 30C119.998 30 120.462 30.5253 120.462 31.576V33.656C120.462 33.7733 120.425 33.8667 120.35 33.936C120.276 34.0053 120.177 34.04 120.054 34.04C119.932 34.04 119.833 34.0053 119.758 33.936C119.689 33.8667 119.654 33.7733 119.654 33.656V31.584C119.654 31.264 119.588 31.0293 119.454 30.88C119.326 30.7307 119.124 30.656 118.846 30.656C118.521 30.656 118.26 30.7573 118.062 30.96C117.865 31.1627 117.766 31.4347 117.766 31.776V33.656C117.766 33.7733 117.729 33.8667 117.654 33.936C117.585 34.0053 117.489 34.04 117.366 34.04C117.244 34.04 117.145 34.0053 117.07 33.936C116.996 33.8667 116.958 33.7733 116.958 33.656V28.704C116.958 28.5867 116.996 28.4933 117.07 28.424C117.15 28.3547 117.252 28.32 117.374 28.32C117.492 28.32 117.585 28.3547 117.654 28.424C117.729 28.488 117.766 28.576 117.766 28.688V30.688C117.9 30.464 118.078 30.2933 118.302 30.176C118.526 30.0587 118.782 30 119.07 30ZM124.624 33.016C124.698 33.016 124.76 33.0453 124.808 33.104C124.856 33.1627 124.88 33.2373 124.88 33.328C124.88 33.4827 124.784 33.6133 124.592 33.72C124.405 33.8267 124.2 33.9093 123.976 33.968C123.757 34.0267 123.546 34.056 123.344 34.056C122.725 34.056 122.237 33.8773 121.88 33.52C121.522 33.1573 121.344 32.664 121.344 32.04C121.344 31.64 121.421 31.2853 121.576 30.976C121.736 30.6667 121.957 30.4267 122.24 30.256C122.528 30.0853 122.853 30 123.216 30C123.738 30 124.152 30.168 124.456 30.504C124.76 30.84 124.912 31.2933 124.912 31.864C124.912 32.0773 124.816 32.184 124.624 32.184H122.152C122.205 33.0107 122.602 33.424 123.344 33.424C123.541 33.424 123.712 33.3973 123.856 33.344C124 33.2907 124.152 33.2213 124.312 33.136C124.328 33.1253 124.37 33.104 124.44 33.072C124.514 33.0347 124.576 33.016 124.624 33.016ZM123.232 30.592C122.922 30.592 122.674 30.6907 122.488 30.888C122.301 31.0853 122.189 31.3627 122.152 31.72H124.216C124.2 31.3573 124.106 31.08 123.936 30.888C123.77 30.6907 123.536 30.592 123.232 30.592ZM127.85 30.016C128.106 30 128.234 30.1093 128.234 30.344C128.234 30.4613 128.205 30.5493 128.146 30.608C128.088 30.6667 127.986 30.7013 127.842 30.712L127.602 30.736C127.266 30.768 127.016 30.8853 126.85 31.088C126.69 31.2907 126.61 31.536 126.61 31.824V33.656C126.61 33.784 126.573 33.88 126.498 33.944C126.424 34.008 126.328 34.04 126.21 34.04C126.093 34.04 125.994 34.008 125.914 33.944C125.84 33.88 125.802 33.784 125.802 33.656V30.4C125.802 30.2773 125.84 30.184 125.914 30.12C125.994 30.0507 126.093 30.016 126.21 30.016C126.317 30.016 126.405 30.0507 126.474 30.12C126.549 30.184 126.586 30.2747 126.586 30.392V30.776C126.693 30.5413 126.848 30.3627 127.05 30.24C127.253 30.1173 127.482 30.0453 127.738 30.024L127.85 30.016ZM131.71 33.016C131.784 33.016 131.846 33.0453 131.894 33.104C131.942 33.1627 131.966 33.2373 131.966 33.328C131.966 33.4827 131.87 33.6133 131.678 33.72C131.491 33.8267 131.286 33.9093 131.062 33.968C130.843 34.0267 130.632 34.056 130.43 34.056C129.811 34.056 129.323 33.8773 128.966 33.52C128.608 33.1573 128.43 32.664 128.43 32.04C128.43 31.64 128.507 31.2853 128.662 30.976C128.822 30.6667 129.043 30.4267 129.326 30.256C129.614 30.0853 129.939 30 130.302 30C130.824 30 131.238 30.168 131.542 30.504C131.846 30.84 131.998 31.2933 131.998 31.864C131.998 32.0773 131.902 32.184 131.71 32.184H129.238C129.291 33.0107 129.688 33.424 130.43 33.424C130.627 33.424 130.798 33.3973 130.942 33.344C131.086 33.2907 131.238 33.2213 131.398 33.136C131.414 33.1253 131.456 33.104 131.526 33.072C131.6 33.0347 131.662 33.016 131.71 33.016ZM130.318 30.592C130.008 30.592 129.76 30.6907 129.574 30.888C129.387 31.0853 129.275 31.3627 129.238 31.72H131.302C131.286 31.3573 131.192 31.08 131.022 30.888C130.856 30.6907 130.622 30.592 130.318 30.592ZM136.91 33.424C137.027 33.4347 137.11 33.4667 137.158 33.52C137.211 33.568 137.238 33.6373 137.238 33.728C137.238 33.8347 137.195 33.9173 137.11 33.976C137.03 34.0293 136.91 34.0507 136.75 34.04L136.534 34.024C136.102 33.992 135.779 33.8613 135.566 33.632C135.352 33.3973 135.246 33.0533 135.246 32.6V30.72H134.766C134.531 30.72 134.413 30.616 134.413 30.408C134.413 30.312 134.443 30.2373 134.502 30.184C134.566 30.1253 134.654 30.096 134.766 30.096H135.246V29.272C135.246 29.1493 135.28 29.0533 135.35 28.984C135.424 28.9147 135.523 28.88 135.646 28.88C135.768 28.88 135.867 28.9147 135.942 28.984C136.016 29.0533 136.054 29.1493 136.054 29.272V30.096H136.846C136.958 30.096 137.043 30.1253 137.102 30.184C137.166 30.2373 137.198 30.312 137.198 30.408C137.198 30.5093 137.166 30.5867 137.102 30.64C137.043 30.6933 136.958 30.72 136.846 30.72H136.054V32.656C136.054 32.9067 136.104 33.0907 136.206 33.208C136.312 33.3253 136.472 33.392 136.686 33.408L136.91 33.424ZM139.514 34.056C139.13 34.056 138.791 33.9733 138.498 33.808C138.21 33.6427 137.986 33.408 137.826 33.104C137.671 32.7947 137.594 32.4373 137.594 32.032C137.594 31.6213 137.671 31.264 137.826 30.96C137.986 30.6507 138.21 30.4133 138.498 30.248C138.791 30.0827 139.13 30 139.514 30C139.898 30 140.234 30.0827 140.522 30.248C140.815 30.4133 141.039 30.6507 141.194 30.96C141.354 31.264 141.434 31.6213 141.434 32.032C141.434 32.4373 141.354 32.7947 141.194 33.104C141.039 33.408 140.815 33.6427 140.522 33.808C140.234 33.9733 139.898 34.056 139.514 34.056ZM139.514 33.416C139.871 33.416 140.143 33.2987 140.33 33.064C140.522 32.8293 140.618 32.4853 140.618 32.032C140.618 31.584 140.522 31.2427 140.33 31.008C140.138 30.768 139.866 30.648 139.514 30.648C139.162 30.648 138.89 30.768 138.698 31.008C138.506 31.2427 138.41 31.584 138.41 32.032C138.41 32.4853 138.503 32.8293 138.69 33.064C138.882 33.2987 139.156 33.416 139.514 33.416ZM146.115 34.056C145.736 34.056 145.403 33.9733 145.115 33.808C144.832 33.6427 144.611 33.408 144.451 33.104C144.296 32.8 144.219 32.448 144.219 32.048C144.219 31.6427 144.299 31.2853 144.459 30.976C144.624 30.6667 144.853 30.4267 145.147 30.256C145.44 30.0853 145.776 30 146.155 30C146.357 30 146.56 30.0293 146.763 30.088C146.971 30.1467 147.155 30.2267 147.315 30.328C147.485 30.4453 147.571 30.5813 147.571 30.736C147.571 30.8267 147.547 30.904 147.499 30.968C147.451 31.0267 147.389 31.056 147.315 31.056C147.267 31.056 147.219 31.0453 147.171 31.024C147.123 30.9973 147.061 30.96 146.987 30.912C146.853 30.8267 146.728 30.7627 146.611 30.72C146.499 30.672 146.363 30.648 146.203 30.648C145.84 30.648 145.557 30.7707 145.355 31.016C145.157 31.2613 145.059 31.6027 145.059 32.04C145.059 32.4773 145.157 32.816 145.355 33.056C145.552 33.2907 145.832 33.408 146.195 33.408C146.355 33.408 146.496 33.384 146.619 33.336C146.741 33.288 146.867 33.224 146.995 33.144C147.053 33.1067 147.112 33.0747 147.171 33.048C147.229 33.0213 147.283 33.008 147.331 33.008C147.405 33.008 147.467 33.04 147.515 33.104C147.563 33.1627 147.587 33.2373 147.587 33.328C147.587 33.4027 147.565 33.472 147.523 33.536C147.485 33.5947 147.419 33.656 147.323 33.72C147.163 33.8267 146.976 33.9093 146.763 33.968C146.549 34.0267 146.333 34.056 146.115 34.056ZM150.006 34.056C149.622 34.056 149.283 33.9733 148.99 33.808C148.702 33.6427 148.478 33.408 148.318 33.104C148.163 32.7947 148.086 32.4373 148.086 32.032C148.086 31.6213 148.163 31.264 148.318 30.96C148.478 30.6507 148.702 30.4133 148.99 30.248C149.283 30.0827 149.622 30 150.006 30C150.39 30 150.726 30.0827 151.014 30.248C151.307 30.4133 151.531 30.6507 151.686 30.96C151.846 31.264 151.926 31.6213 151.926 32.032C151.926 32.4373 151.846 32.7947 151.686 33.104C151.531 33.408 151.307 33.6427 151.014 33.808C150.726 33.9733 150.39 34.056 150.006 34.056ZM150.006 33.416C150.363 33.416 150.635 33.2987 150.822 33.064C151.014 32.8293 151.11 32.4853 151.11 32.032C151.11 31.584 151.014 31.2427 150.822 31.008C150.63 30.768 150.358 30.648 150.006 30.648C149.654 30.648 149.382 30.768 149.19 31.008C148.998 31.2427 148.902 31.584 148.902 32.032C148.902 32.4853 148.995 32.8293 149.182 33.064C149.374 33.2987 149.649 33.416 150.006 33.416ZM154.93 30C155.863 30 156.33 30.5253 156.33 31.576V33.656C156.33 33.7787 156.292 33.8747 156.218 33.944C156.148 34.008 156.05 34.04 155.922 34.04C155.799 34.04 155.7 34.0053 155.626 33.936C155.556 33.8667 155.522 33.7733 155.522 33.656V31.616C155.522 31.2853 155.455 31.0427 155.322 30.888C155.194 30.7333 154.991 30.656 154.714 30.656C154.388 30.656 154.127 30.7573 153.93 30.96C153.732 31.1627 153.634 31.4347 153.634 31.776V33.656C153.634 33.7733 153.596 33.8667 153.522 33.936C153.452 34.0053 153.356 34.04 153.234 34.04C153.111 34.04 153.012 34.0053 152.938 33.936C152.863 33.8667 152.826 33.7733 152.826 33.656V30.4C152.826 30.288 152.863 30.1973 152.938 30.128C153.018 30.0533 153.116 30.016 153.234 30.016C153.351 30.016 153.444 30.0507 153.514 30.12C153.583 30.1893 153.618 30.28 153.618 30.392V30.72C153.746 30.4853 153.924 30.3067 154.154 30.184C154.383 30.0613 154.642 30 154.93 30ZM159.347 33.424C159.464 33.4347 159.547 33.4667 159.595 33.52C159.648 33.568 159.675 33.6373 159.675 33.728C159.675 33.8347 159.632 33.9173 159.547 33.976C159.467 34.0293 159.347 34.0507 159.187 34.04L158.971 34.024C158.539 33.992 158.216 33.8613 158.003 33.632C157.79 33.3973 157.683 33.0533 157.683 32.6V30.72H157.203C156.968 30.72 156.851 30.616 156.851 30.408C156.851 30.312 156.88 30.2373 156.939 30.184C157.003 30.1253 157.091 30.096 157.203 30.096H157.683V29.272C157.683 29.1493 157.718 29.0533 157.787 28.984C157.862 28.9147 157.96 28.88 158.083 28.88C158.206 28.88 158.304 28.9147 158.379 28.984C158.454 29.0533 158.491 29.1493 158.491 29.272V30.096H159.283C159.395 30.096 159.48 30.1253 159.539 30.184C159.603 30.2373 159.635 30.312 159.635 30.408C159.635 30.5093 159.603 30.5867 159.539 30.64C159.48 30.6933 159.395 30.72 159.283 30.72H158.491V32.656C158.491 32.9067 158.542 33.0907 158.643 33.208C158.75 33.3253 158.91 33.392 159.123 33.408L159.347 33.424ZM161.895 30C162.413 30 162.797 30.1307 163.047 30.392C163.303 30.6533 163.431 31.0507 163.431 31.584V33.656C163.431 33.7787 163.397 33.8747 163.327 33.944C163.258 34.008 163.162 34.04 163.039 34.04C162.922 34.04 162.829 34.0053 162.759 33.936C162.69 33.8667 162.655 33.7733 162.655 33.656V33.36C162.554 33.584 162.402 33.7573 162.199 33.88C162.002 33.9973 161.77 34.056 161.503 34.056C161.247 34.056 161.013 34.0053 160.799 33.904C160.586 33.7973 160.418 33.6507 160.295 33.464C160.178 33.2773 160.119 33.0693 160.119 32.84C160.119 32.5573 160.191 32.336 160.335 32.176C160.485 32.0107 160.727 31.8933 161.063 31.824C161.405 31.7547 161.871 31.72 162.463 31.72H162.647V31.488C162.647 31.1893 162.586 30.9733 162.463 30.84C162.341 30.7067 162.143 30.64 161.871 30.64C161.685 30.64 161.509 30.664 161.343 30.712C161.178 30.76 160.997 30.8293 160.799 30.92C160.655 31 160.554 31.04 160.495 31.04C160.415 31.04 160.349 31.0107 160.295 30.952C160.247 30.8933 160.223 30.8187 160.223 30.728C160.223 30.648 160.245 30.5787 160.287 30.52C160.335 30.456 160.41 30.3947 160.511 30.336C160.698 30.2347 160.917 30.1547 161.167 30.096C161.418 30.032 161.661 30 161.895 30ZM161.647 33.456C161.941 33.456 162.181 33.3573 162.367 33.16C162.554 32.9573 162.647 32.6987 162.647 32.384V32.176H162.503C162.087 32.176 161.767 32.1947 161.543 32.232C161.319 32.2693 161.159 32.3333 161.063 32.424C160.967 32.5093 160.919 32.6347 160.919 32.8C160.919 32.992 160.989 33.1493 161.127 33.272C161.266 33.3947 161.439 33.456 161.647 33.456ZM166.209 34.056C165.83 34.056 165.497 33.9733 165.209 33.808C164.926 33.6427 164.705 33.408 164.545 33.104C164.39 32.8 164.313 32.448 164.313 32.048C164.313 31.6427 164.393 31.2853 164.553 30.976C164.718 30.6667 164.947 30.4267 165.241 30.256C165.534 30.0853 165.87 30 166.249 30C166.451 30 166.654 30.0293 166.857 30.088C167.065 30.1467 167.249 30.2267 167.409 30.328C167.579 30.4453 167.665 30.5813 167.665 30.736C167.665 30.8267 167.641 30.904 167.593 30.968C167.545 31.0267 167.483 31.056 167.409 31.056C167.361 31.056 167.313 31.0453 167.265 31.024C167.217 30.9973 167.155 30.96 167.081 30.912C166.947 30.8267 166.822 30.7627 166.705 30.72C166.593 30.672 166.457 30.648 166.297 30.648C165.934 30.648 165.651 30.7707 165.449 31.016C165.251 31.2613 165.153 31.6027 165.153 32.04C165.153 32.4773 165.251 32.816 165.449 33.056C165.646 33.2907 165.926 33.408 166.289 33.408C166.449 33.408 166.59 33.384 166.713 33.336C166.835 33.288 166.961 33.224 167.089 33.144C167.147 33.1067 167.206 33.0747 167.265 33.048C167.323 33.0213 167.377 33.008 167.425 33.008C167.499 33.008 167.561 33.04 167.609 33.104C167.657 33.1627 167.681 33.2373 167.681 33.328C167.681 33.4027 167.659 33.472 167.617 33.536C167.579 33.5947 167.513 33.656 167.417 33.72C167.257 33.8267 167.07 33.9093 166.857 33.968C166.643 34.0267 166.427 34.056 166.209 34.056ZM170.331 33.424C170.449 33.4347 170.531 33.4667 170.579 33.52C170.633 33.568 170.659 33.6373 170.659 33.728C170.659 33.8347 170.617 33.9173 170.531 33.976C170.451 34.0293 170.331 34.0507 170.171 34.04L169.955 34.024C169.523 33.992 169.201 33.8613 168.987 33.632C168.774 33.3973 168.667 33.0533 168.667 32.6V30.72H168.187C167.953 30.72 167.835 30.616 167.835 30.408C167.835 30.312 167.865 30.2373 167.923 30.184C167.987 30.1253 168.075 30.096 168.187 30.096H168.667V29.272C168.667 29.1493 168.702 29.0533 168.771 28.984C168.846 28.9147 168.945 28.88 169.067 28.88C169.19 28.88 169.289 28.9147 169.363 28.984C169.438 29.0533 169.475 29.1493 169.475 29.272V30.096H170.267C170.379 30.096 170.465 30.1253 170.523 30.184C170.587 30.2373 170.619 30.312 170.619 30.408C170.619 30.5093 170.587 30.5867 170.523 30.64C170.465 30.6933 170.379 30.72 170.267 30.72H169.475V32.656C169.475 32.9067 169.526 33.0907 169.627 33.208C169.734 33.3253 169.894 33.392 170.107 33.408L170.331 33.424ZM174.709 34.056C174.165 34.056 173.72 33.944 173.373 33.72C173.277 33.6613 173.208 33.6 173.165 33.536C173.128 33.472 173.109 33.4 173.109 33.32C173.109 33.2347 173.133 33.1627 173.181 33.104C173.229 33.0453 173.29 33.016 173.365 33.016C173.434 33.016 173.544 33.0587 173.693 33.144C173.853 33.2293 174.008 33.2987 174.157 33.352C174.312 33.4053 174.504 33.432 174.733 33.432C174.989 33.432 175.189 33.3867 175.333 33.296C175.477 33.2053 175.549 33.0773 175.549 32.912C175.549 32.8053 175.52 32.72 175.461 32.656C175.408 32.592 175.312 32.536 175.173 32.488C175.034 32.4347 174.829 32.3787 174.557 32.32C174.088 32.2187 173.749 32.0827 173.541 31.912C173.338 31.736 173.237 31.4987 173.237 31.2C173.237 30.9707 173.304 30.7653 173.437 30.584C173.57 30.3973 173.754 30.2533 173.989 30.152C174.224 30.0507 174.49 30 174.789 30C175.002 30 175.21 30.0293 175.413 30.088C175.616 30.1413 175.794 30.2213 175.949 30.328C176.125 30.4453 176.213 30.5813 176.213 30.736C176.213 30.8213 176.186 30.8933 176.133 30.952C176.085 31.0107 176.026 31.04 175.957 31.04C175.909 31.04 175.861 31.0293 175.813 31.008C175.765 30.9867 175.701 30.952 175.621 30.904C175.477 30.8187 175.341 30.752 175.213 30.704C175.09 30.656 174.936 30.632 174.749 30.632C174.525 30.632 174.344 30.68 174.205 30.776C174.072 30.872 174.005 31.0027 174.005 31.168C174.005 31.3173 174.066 31.4347 174.189 31.52C174.317 31.6 174.554 31.6773 174.901 31.752C175.258 31.8267 175.538 31.912 175.741 32.008C175.944 32.104 176.088 32.224 176.173 32.368C176.264 32.5067 176.309 32.6853 176.309 32.904C176.309 33.2507 176.162 33.5307 175.869 33.744C175.581 33.952 175.194 34.056 174.709 34.056ZM180.232 30.016C180.355 30.016 180.451 30.0507 180.52 30.12C180.595 30.1893 180.632 30.2853 180.632 30.408V33.664C180.632 33.776 180.595 33.8667 180.52 33.936C180.446 34.0053 180.347 34.04 180.224 34.04C180.112 34.04 180.022 34.008 179.952 33.944C179.883 33.8747 179.848 33.784 179.848 33.672V33.368C179.726 33.592 179.555 33.7627 179.336 33.88C179.123 33.9973 178.883 34.056 178.616 34.056C177.667 34.056 177.192 33.5333 177.192 32.488V30.408C177.192 30.2853 177.227 30.1893 177.296 30.12C177.371 30.0507 177.472 30.016 177.6 30.016C177.723 30.016 177.819 30.0507 177.888 30.12C177.963 30.1893 178 30.2853 178 30.408V32.48C178 32.7947 178.064 33.0267 178.192 33.176C178.32 33.3253 178.518 33.4 178.784 33.4C179.099 33.4 179.35 33.2987 179.536 33.096C179.728 32.8933 179.824 32.624 179.824 32.288V30.408C179.824 30.2907 179.862 30.1973 179.936 30.128C180.011 30.0533 180.11 30.016 180.232 30.016ZM183.859 30C184.195 30 184.494 30.0853 184.755 30.256C185.022 30.4267 185.227 30.6667 185.371 30.976C185.52 31.2853 185.595 31.6427 185.595 32.048C185.595 32.448 185.523 32.8 185.379 33.104C185.235 33.408 185.03 33.6427 184.763 33.808C184.502 33.9733 184.2 34.056 183.859 34.056C183.566 34.056 183.307 33.9947 183.083 33.872C182.859 33.744 182.688 33.5627 182.571 33.328V35.112C182.571 35.224 182.534 35.312 182.459 35.376C182.39 35.4453 182.296 35.48 182.179 35.48C182.056 35.48 181.955 35.4453 181.875 35.376C181.8 35.3067 181.763 35.2133 181.763 35.096V30.408C181.763 30.2907 181.8 30.1973 181.875 30.128C181.95 30.0533 182.048 30.016 182.171 30.016C182.288 30.016 182.384 30.0533 182.459 30.128C182.534 30.1973 182.571 30.2907 182.571 30.408V30.736C182.688 30.5013 182.859 30.32 183.083 30.192C183.307 30.064 183.566 30 183.859 30ZM183.667 33.416C184.019 33.416 184.291 33.2987 184.483 33.064C184.675 32.824 184.771 32.4853 184.771 32.048C184.771 31.6053 184.672 31.2613 184.475 31.016C184.283 30.7707 184.014 30.648 183.667 30.648C183.315 30.648 183.043 30.768 182.851 31.008C182.664 31.248 182.571 31.5893 182.571 32.032C182.571 32.4747 182.664 32.816 182.851 33.056C183.043 33.296 183.315 33.416 183.667 33.416ZM188.586 30C188.922 30 189.22 30.0853 189.482 30.256C189.748 30.4267 189.954 30.6667 190.098 30.976C190.247 31.2853 190.322 31.6427 190.322 32.048C190.322 32.448 190.25 32.8 190.106 33.104C189.962 33.408 189.756 33.6427 189.49 33.808C189.228 33.9733 188.927 34.056 188.586 34.056C188.292 34.056 188.034 33.9947 187.81 33.872C187.586 33.744 187.415 33.5627 187.298 33.328V35.112C187.298 35.224 187.26 35.312 187.186 35.376C187.116 35.4453 187.023 35.48 186.906 35.48C186.783 35.48 186.682 35.4453 186.602 35.376C186.527 35.3067 186.49 35.2133 186.49 35.096V30.408C186.49 30.2907 186.527 30.1973 186.602 30.128C186.676 30.0533 186.775 30.016 186.898 30.016C187.015 30.016 187.111 30.0533 187.186 30.128C187.26 30.1973 187.298 30.2907 187.298 30.408V30.736C187.415 30.5013 187.586 30.32 187.81 30.192C188.034 30.064 188.292 30 188.586 30ZM188.394 33.416C188.746 33.416 189.018 33.2987 189.21 33.064C189.402 32.824 189.498 32.4853 189.498 32.048C189.498 31.6053 189.399 31.2613 189.202 31.016C189.01 30.7707 188.74 30.648 188.394 30.648C188.042 30.648 187.77 30.768 187.578 31.008C187.391 31.248 187.298 31.5893 187.298 32.032C187.298 32.4747 187.391 32.816 187.578 33.056C187.77 33.296 188.042 33.416 188.394 33.416ZM192.912 34.056C192.528 34.056 192.19 33.9733 191.896 33.808C191.608 33.6427 191.384 33.408 191.224 33.104C191.07 32.7947 190.992 32.4373 190.992 32.032C190.992 31.6213 191.07 31.264 191.224 30.96C191.384 30.6507 191.608 30.4133 191.896 30.248C192.19 30.0827 192.528 30 192.912 30C193.296 30 193.632 30.0827 193.92 30.248C194.214 30.4133 194.438 30.6507 194.592 30.96C194.752 31.264 194.832 31.6213 194.832 32.032C194.832 32.4373 194.752 32.7947 194.592 33.104C194.438 33.408 194.214 33.6427 193.92 33.808C193.632 33.9733 193.296 34.056 192.912 34.056ZM192.912 33.416C193.27 33.416 193.542 33.2987 193.728 33.064C193.92 32.8293 194.016 32.4853 194.016 32.032C194.016 31.584 193.92 31.2427 193.728 31.008C193.536 30.768 193.264 30.648 192.912 30.648C192.56 30.648 192.288 30.768 192.096 31.008C191.904 31.2427 191.808 31.584 191.808 32.032C191.808 32.4853 191.902 32.8293 192.088 33.064C192.28 33.2987 192.555 33.416 192.912 33.416ZM197.78 30.016C198.036 30 198.164 30.1093 198.164 30.344C198.164 30.4613 198.135 30.5493 198.076 30.608C198.017 30.6667 197.916 30.7013 197.772 30.712L197.532 30.736C197.196 30.768 196.945 30.8853 196.78 31.088C196.62 31.2907 196.54 31.536 196.54 31.824V33.656C196.54 33.784 196.503 33.88 196.428 33.944C196.353 34.008 196.257 34.04 196.14 34.04C196.023 34.04 195.924 34.008 195.844 33.944C195.769 33.88 195.732 33.784 195.732 33.656V30.4C195.732 30.2773 195.769 30.184 195.844 30.12C195.924 30.0507 196.023 30.016 196.14 30.016C196.247 30.016 196.335 30.0507 196.404 30.12C196.479 30.184 196.516 30.2747 196.516 30.392V30.776C196.623 30.5413 196.777 30.3627 196.98 30.24C197.183 30.1173 197.412 30.0453 197.668 30.024L197.78 30.016ZM200.91 33.424C201.027 33.4347 201.11 33.4667 201.158 33.52C201.211 33.568 201.238 33.6373 201.238 33.728C201.238 33.8347 201.195 33.9173 201.11 33.976C201.03 34.0293 200.91 34.0507 200.75 34.04L200.534 34.024C200.102 33.992 199.779 33.8613 199.566 33.632C199.352 33.3973 199.246 33.0533 199.246 32.6V30.72H198.766C198.531 30.72 198.413 30.616 198.413 30.408C198.413 30.312 198.443 30.2373 198.502 30.184C198.566 30.1253 198.654 30.096 198.766 30.096H199.246V29.272C199.246 29.1493 199.28 29.0533 199.35 28.984C199.424 28.9147 199.523 28.88 199.646 28.88C199.768 28.88 199.867 28.9147 199.942 28.984C200.016 29.0533 200.054 29.1493 200.054 29.272V30.096H200.846C200.958 30.096 201.043 30.1253 201.102 30.184C201.166 30.2373 201.198 30.312 201.198 30.408C201.198 30.5093 201.166 30.5867 201.102 30.64C201.043 30.6933 200.958 30.72 200.846 30.72H200.054V32.656C200.054 32.9067 200.104 33.0907 200.206 33.208C200.312 33.3253 200.472 33.392 200.686 33.408L200.91 33.424ZM202.343 34.04C202.199 34.04 202.076 33.992 201.975 33.896C201.879 33.8 201.831 33.6773 201.831 33.528C201.831 33.3787 201.879 33.256 201.975 33.16C202.076 33.0587 202.199 33.008 202.343 33.008C202.487 33.008 202.607 33.0587 202.703 33.16C202.799 33.256 202.847 33.3787 202.847 33.528C202.847 33.6773 202.799 33.8 202.703 33.896C202.607 33.992 202.487 34.04 202.343 34.04Z" fill="#355C7D"/>
<path d="M102.49 16.61C102.658 16.61 102.79 16.664 102.886 16.772C102.988 16.874 103.039 17.012 103.039 17.186V22.469C103.039 22.643 102.988 22.784 102.886 22.892C102.784 23 102.652 23.054 102.49 23.054C102.298 23.054 102.151 22.985 102.049 22.847L98.764 18.572V22.469C98.764 22.643 98.716 22.784 98.62 22.892C98.524 23 98.392 23.054 98.224 23.054C98.056 23.054 97.924 23 97.828 22.892C97.732 22.784 97.684 22.643 97.684 22.469V17.186C97.684 17.012 97.735 16.874 97.837 16.772C97.939 16.664 98.074 16.61 98.242 16.61C98.428 16.61 98.572 16.679 98.674 16.817L101.95 21.074V17.186C101.95 17.012 101.998 16.874 102.094 16.772C102.196 16.664 102.328 16.61 102.49 16.61ZM107.792 21.794C107.894 21.794 107.975 21.833 108.035 21.911C108.101 21.989 108.134 22.094 108.134 22.226C108.134 22.412 108.023 22.568 107.801 22.694C107.597 22.808 107.366 22.901 107.108 22.973C106.85 23.039 106.604 23.072 106.37 23.072C105.662 23.072 105.101 22.868 104.687 22.46C104.273 22.052 104.066 21.494 104.066 20.786C104.066 20.336 104.156 19.937 104.336 19.589C104.516 19.241 104.768 18.971 105.092 18.779C105.422 18.587 105.794 18.491 106.208 18.491C106.604 18.491 106.949 18.578 107.243 18.752C107.537 18.926 107.765 19.172 107.927 19.49C108.089 19.808 108.17 20.183 108.17 20.615C108.17 20.873 108.056 21.002 107.828 21.002H105.173C105.209 21.416 105.326 21.722 105.524 21.92C105.722 22.112 106.01 22.208 106.388 22.208C106.58 22.208 106.748 22.184 106.892 22.136C107.042 22.088 107.21 22.022 107.396 21.938C107.576 21.842 107.708 21.794 107.792 21.794ZM106.235 19.283C105.929 19.283 105.683 19.379 105.497 19.571C105.317 19.763 105.209 20.039 105.173 20.399H107.207C107.195 20.033 107.105 19.757 106.937 19.571C106.769 19.379 106.535 19.283 106.235 19.283ZM112.573 21.794C112.675 21.794 112.756 21.833 112.816 21.911C112.882 21.989 112.915 22.094 112.915 22.226C112.915 22.412 112.804 22.568 112.582 22.694C112.378 22.808 112.147 22.901 111.889 22.973C111.631 23.039 111.385 23.072 111.151 23.072C110.443 23.072 109.882 22.868 109.468 22.46C109.054 22.052 108.847 21.494 108.847 20.786C108.847 20.336 108.937 19.937 109.117 19.589C109.297 19.241 109.549 18.971 109.873 18.779C110.203 18.587 110.575 18.491 110.989 18.491C111.385 18.491 111.73 18.578 112.024 18.752C112.318 18.926 112.546 19.172 112.708 19.49C112.87 19.808 112.951 20.183 112.951 20.615C112.951 20.873 112.837 21.002 112.609 21.002H109.954C109.99 21.416 110.107 21.722 110.305 21.92C110.503 22.112 110.791 22.208 111.169 22.208C111.361 22.208 111.529 22.184 111.673 22.136C111.823 22.088 111.991 22.022 112.177 21.938C112.357 21.842 112.489 21.794 112.573 21.794ZM111.016 19.283C110.71 19.283 110.464 19.379 110.278 19.571C110.098 19.763 109.99 20.039 109.954 20.399H111.988C111.976 20.033 111.886 19.757 111.718 19.571C111.55 19.379 111.316 19.283 111.016 19.283ZM117.543 16.61C117.711 16.61 117.849 16.658 117.957 16.754C118.065 16.85 118.119 16.976 118.119 17.132V22.514C118.119 22.676 118.068 22.805 117.966 22.901C117.864 22.997 117.729 23.045 117.561 23.045C117.393 23.045 117.258 22.997 117.156 22.901C117.054 22.805 117.003 22.676 117.003 22.514V22.289C116.871 22.535 116.679 22.727 116.427 22.865C116.181 23.003 115.899 23.072 115.581 23.072C115.203 23.072 114.864 22.976 114.564 22.784C114.27 22.592 114.039 22.322 113.871 21.974C113.709 21.62 113.628 21.215 113.628 20.759C113.628 20.303 113.709 19.904 113.871 19.562C114.039 19.22 114.27 18.956 114.564 18.77C114.858 18.584 115.197 18.491 115.581 18.491C115.899 18.491 116.181 18.557 116.427 18.689C116.673 18.821 116.862 19.007 116.994 19.247V17.114C116.994 16.964 117.042 16.844 117.138 16.754C117.24 16.658 117.375 16.61 117.543 16.61ZM115.878 22.199C116.238 22.199 116.514 22.076 116.706 21.83C116.904 21.584 117.003 21.233 117.003 20.777C117.003 20.321 116.904 19.973 116.706 19.733C116.514 19.487 116.241 19.364 115.887 19.364C115.527 19.364 115.248 19.484 115.05 19.724C114.852 19.964 114.753 20.309 114.753 20.759C114.753 21.215 114.852 21.569 115.05 21.821C115.248 22.073 115.524 22.199 115.878 22.199ZM124.294 18.491C125.326 18.491 125.842 19.094 125.842 20.3V22.514C125.842 22.682 125.791 22.814 125.689 22.91C125.593 23.006 125.458 23.054 125.284 23.054C125.11 23.054 124.972 23.006 124.87 22.91C124.768 22.814 124.717 22.682 124.717 22.514V20.3C124.717 19.982 124.651 19.751 124.519 19.607C124.393 19.457 124.192 19.382 123.916 19.382C123.592 19.382 123.331 19.484 123.133 19.688C122.941 19.892 122.845 20.165 122.845 20.507V22.514C122.845 22.682 122.794 22.814 122.692 22.91C122.59 23.006 122.452 23.054 122.278 23.054C122.104 23.054 121.966 23.006 121.864 22.91C121.768 22.814 121.72 22.682 121.72 22.514V17.132C121.72 16.976 121.771 16.85 121.873 16.754C121.981 16.658 122.119 16.61 122.287 16.61C122.455 16.61 122.59 16.655 122.692 16.745C122.794 16.835 122.845 16.958 122.845 17.114V19.211C122.995 18.977 123.193 18.8 123.439 18.68C123.691 18.554 123.976 18.491 124.294 18.491ZM130.467 21.794C130.569 21.794 130.65 21.833 130.71 21.911C130.776 21.989 130.809 22.094 130.809 22.226C130.809 22.412 130.698 22.568 130.476 22.694C130.272 22.808 130.041 22.901 129.783 22.973C129.525 23.039 129.279 23.072 129.045 23.072C128.337 23.072 127.776 22.868 127.362 22.46C126.948 22.052 126.741 21.494 126.741 20.786C126.741 20.336 126.831 19.937 127.011 19.589C127.191 19.241 127.443 18.971 127.767 18.779C128.097 18.587 128.469 18.491 128.883 18.491C129.279 18.491 129.624 18.578 129.918 18.752C130.212 18.926 130.44 19.172 130.602 19.49C130.764 19.808 130.845 20.183 130.845 20.615C130.845 20.873 130.731 21.002 130.503 21.002H127.848C127.884 21.416 128.001 21.722 128.199 21.92C128.397 22.112 128.685 22.208 129.063 22.208C129.255 22.208 129.423 22.184 129.567 22.136C129.717 22.088 129.885 22.022 130.071 21.938C130.251 21.842 130.383 21.794 130.467 21.794ZM128.91 19.283C128.604 19.283 128.358 19.379 128.172 19.571C127.992 19.763 127.884 20.039 127.848 20.399H129.882C129.87 20.033 129.78 19.757 129.612 19.571C129.444 19.379 129.21 19.283 128.91 19.283ZM132.324 23.054C132.162 23.054 132.027 23.009 131.919 22.919C131.817 22.823 131.766 22.688 131.766 22.514V17.141C131.766 16.967 131.817 16.835 131.919 16.745C132.027 16.655 132.162 16.61 132.324 16.61C132.486 16.61 132.621 16.655 132.729 16.745C132.837 16.835 132.891 16.967 132.891 17.141V22.514C132.891 22.688 132.837 22.823 132.729 22.919C132.621 23.009 132.486 23.054 132.324 23.054ZM136.58 18.491C136.958 18.491 137.294 18.587 137.588 18.779C137.888 18.971 138.119 19.244 138.281 19.598C138.449 19.946 138.533 20.348 138.533 20.804C138.533 21.26 138.449 21.659 138.281 22.001C138.119 22.343 137.891 22.607 137.597 22.793C137.303 22.979 136.964 23.072 136.58 23.072C136.268 23.072 135.989 23.006 135.743 22.874C135.497 22.742 135.308 22.559 135.176 22.325V24.161C135.176 24.317 135.125 24.44 135.023 24.53C134.921 24.62 134.786 24.665 134.618 24.665C134.45 24.665 134.312 24.617 134.204 24.521C134.102 24.425 134.051 24.299 134.051 24.143V19.04C134.051 18.878 134.099 18.749 134.195 18.653C134.297 18.557 134.432 18.509 134.6 18.509C134.768 18.509 134.903 18.557 135.005 18.653C135.107 18.749 135.158 18.878 135.158 19.04V19.265C135.29 19.019 135.479 18.83 135.725 18.698C135.977 18.56 136.262 18.491 136.58 18.491ZM136.283 22.199C136.637 22.199 136.913 22.079 137.111 21.839C137.309 21.593 137.408 21.248 137.408 20.804C137.408 20.348 137.309 19.994 137.111 19.742C136.913 19.49 136.637 19.364 136.283 19.364C135.923 19.364 135.644 19.487 135.446 19.733C135.254 19.979 135.158 20.33 135.158 20.786C135.158 21.236 135.254 21.584 135.446 21.83C135.644 22.076 135.923 22.199 136.283 22.199ZM140.754 21.164C140.652 21.164 140.568 21.128 140.502 21.056C140.442 20.984 140.412 20.885 140.412 20.759C140.412 20.429 140.472 20.15 140.592 19.922C140.712 19.694 140.886 19.445 141.114 19.175C141.294 18.959 141.426 18.779 141.51 18.635C141.594 18.491 141.636 18.329 141.636 18.149C141.636 17.951 141.561 17.795 141.411 17.681C141.267 17.561 141.069 17.501 140.817 17.501C140.601 17.501 140.394 17.549 140.196 17.645C139.998 17.735 139.767 17.867 139.503 18.041C139.353 18.125 139.23 18.167 139.134 18.167C139.032 18.167 138.942 18.122 138.864 18.032C138.792 17.936 138.756 17.825 138.756 17.699C138.756 17.525 138.828 17.384 138.972 17.276C139.224 17.06 139.521 16.892 139.863 16.772C140.205 16.646 140.55 16.583 140.898 16.583C141.264 16.583 141.588 16.646 141.87 16.772C142.158 16.898 142.38 17.072 142.536 17.294C142.698 17.516 142.779 17.771 142.779 18.059C142.779 18.371 142.704 18.644 142.554 18.878C142.404 19.106 142.185 19.364 141.897 19.652C141.651 19.904 141.465 20.117 141.339 20.291C141.219 20.459 141.144 20.651 141.114 20.867C141.096 20.963 141.054 21.038 140.988 21.092C140.928 21.14 140.85 21.164 140.754 21.164ZM140.772 23.054C140.58 23.054 140.421 22.991 140.295 22.865C140.169 22.733 140.106 22.571 140.106 22.379C140.106 22.187 140.169 22.028 140.295 21.902C140.421 21.77 140.58 21.704 140.772 21.704C140.964 21.704 141.123 21.77 141.249 21.902C141.375 22.028 141.438 22.187 141.438 22.379C141.438 22.571 141.372 22.733 141.24 22.865C141.114 22.991 140.958 23.054 140.772 23.054Z" fill="#FF7682"/>
</g>
</g>
<defs>
<filter id="filter0_d" x="0" y="0" width="232" height="62" filterUnits="userSpaceOnUse" color-interpolation-filters="sRGB">
<feFlood flood-opacity="0" result="BackgroundImageFix"/>
<feColorMatrix in="SourceAlpha" type="matrix" values="0 0 0 0 0 0 0 0 0 0 0 0 0 0 0 0 0 0 127 0"/>
<feOffset dy="7"/>
<feGaussianBlur stdDeviation="2.5"/>
<feColorMatrix type="matrix" values="0 0 0 0 1 0 0 0 0 0.462745 0 0 0 0 0.509804 0 0 0 0.24 0"/>
<feBlend mode="normal" in2="BackgroundImageFix" result="effect1_dropShadow"/>
<feBlend mode="normal" in="SourceGraphic" in2="effect1_dropShadow" result="shape"/>
</filter>
<filter id="filter1_d" x="1" y="0" width="230" height="62" filterUnits="userSpaceOnUse" color-interpolation-filters="sRGB">
<feFlood flood-opacity="0" result="BackgroundImageFix"/>
<feColorMatrix in="SourceAlpha" type="matrix" values="0 0 0 0 0 0 0 0 0 0 0 0 0 0 0 0 0 0 127 0"/>
<feOffset dy="8"/>
<feGaussianBlur stdDeviation="2"/>
<feColorMatrix type="matrix" values="0 0 0 0 0 0 0 0 0 0 0 0 0 0 0 0 0 0 0.25 0"/>
<feBlend mode="normal" in2="BackgroundImageFix" result="effect1_dropShadow"/>
<feBlend mode="normal" in="SourceGraphic" in2="effect1_dropShadow" result="shape"/>
</filter>
<filter id="filter2_d" x="28" y="8" width="21" height="18" filterUnits="userSpaceOnUse" color-interpolation-filters="sRGB">
<feFlood flood-opacity="0" result="BackgroundImageFix"/>
<feColorMatrix in="SourceAlpha" type="matrix" values="0 0 0 0 0 0 0 0 0 0 0 0 0 0 0 0 0 0 127 0"/>
<feOffset dy="2"/>
<feGaussianBlur stdDeviation="1.5"/>
<feColorMatrix type="matrix" values="0 0 0 0 0.772549 0 0 0 0 0.427451 0 0 0 0 0.52549 0 0 0 0.42 0"/>
<feBlend mode="normal" in2="BackgroundImageFix" result="effect1_dropShadow"/>
<feBlend mode="normal" in="SourceGraphic" in2="effect1_dropShadow" result="shape"/>
</filter>
<linearGradient id="paint0_linear" x1="20.8283" y1="70.3097" x2="20.8283" y2="13.4063" gradientUnits="userSpaceOnUse">
<stop stop-color="#808080" stop-opacity="0.25"/>
<stop offset="0.54" stop-color="#808080" stop-opacity="0.12"/>
<stop offset="1" stop-color="#808080" stop-opacity="0.1"/>
</linearGradient>
<linearGradient id="paint1_linear" x1="18706.7" y1="53315.7" x2="18706.7" y2="16018.2" gradientUnits="userSpaceOnUse">
<stop stop-color="#808080" stop-opacity="0.25"/>
<stop offset="0.54" stop-color="#808080" stop-opacity="0.12"/>
<stop offset="1" stop-color="#808080" stop-opacity="0.1"/>
</linearGradient>
<clipPath id="clip0">
<rect width="114.943" height="85" fill="white" transform="translate(-25 -12)"/>
</clipPath>
</defs>
</svg>
