<svg width="192" height="192" viewBox="0 0 192 192" fill="none" xmlns="http://www.w3.org/2000/svg">
<g filter="url(#filter0_d)">
<path d="M186 90C186 107.8 180.722 125.201 170.832 140.001C160.943 154.802 146.887 166.337 130.442 173.149C113.996 179.961 95.9002 181.743 78.4419 178.271C60.9836 174.798 44.9471 166.226 32.3604 153.64L96 90H186Z" fill="url(#paint0_linear)"/>
<path d="M32.3604 153.64C21.8948 143.174 14.1718 130.289 9.87537 116.126C5.57899 101.962 4.84187 86.9581 7.72932 72.4419C10.6168 57.9257 17.0397 44.3456 26.4291 32.9046C35.8184 21.4636 47.8845 12.5148 61.5585 6.85085C75.2324 1.18691 90.0922 -1.01734 104.822 0.433373C119.551 1.88408 133.695 6.94496 146.001 15.1677C158.308 23.3905 168.396 34.5213 175.373 47.5743C182.35 60.6272 186 75.1994 186 90L96 90L32.3604 153.64Z" fill="url(#paint1_linear)"/>
<circle cx="96" cy="90" r="55.8" fill="#F6F8F9"/>
<path d="M76.5436 81.208C77.2156 81.3787 77.7276 81.704 78.0796 82.184C78.4423 82.6533 78.6236 83.24 78.6236 83.944C78.6236 84.9147 78.2663 85.688 77.5516 86.264C76.837 86.84 75.8716 87.128 74.6556 87.128C73.9623 87.128 73.2956 87.0213 72.6556 86.808C72.0156 86.5947 71.4716 86.296 71.0236 85.912C70.7783 85.6987 70.6556 85.448 70.6556 85.16C70.6556 84.9253 70.7196 84.728 70.8476 84.568C70.9863 84.3973 71.1463 84.312 71.3276 84.312C71.4343 84.312 71.5303 84.3333 71.6156 84.376C71.701 84.408 71.8183 84.4667 71.9676 84.552C72.4156 84.8507 72.8423 85.08 73.2476 85.24C73.653 85.4 74.0956 85.48 74.5756 85.48C75.2796 85.48 75.8023 85.3413 76.1436 85.064C76.485 84.776 76.6556 84.344 76.6556 83.768C76.6556 83.2027 76.4743 82.7867 76.1116 82.52C75.7596 82.2427 75.2103 82.104 74.4636 82.104H73.5516C73.3063 82.104 73.1143 82.024 72.9756 81.864C72.8476 81.6933 72.7836 81.5013 72.7836 81.288C72.7836 81.064 72.8476 80.872 72.9756 80.712C73.1143 80.552 73.3063 80.472 73.5516 80.472H74.1916C75.653 80.472 76.3836 79.9227 76.3836 78.824C76.3836 78.312 76.229 77.9173 75.9196 77.64C75.6103 77.3627 75.1836 77.224 74.6396 77.224C73.861 77.224 73.029 77.5333 72.1436 78.152C71.9943 78.2373 71.877 78.3013 71.7916 78.344C71.7063 78.376 71.6103 78.392 71.5036 78.392C71.3223 78.392 71.1623 78.312 71.0236 78.152C70.8956 77.9813 70.8316 77.7787 70.8316 77.544C70.8316 77.384 70.8583 77.2507 70.9116 77.144C70.9756 77.0267 71.0716 76.9093 71.1996 76.792C71.6476 76.4187 72.181 76.1253 72.7996 75.912C73.429 75.688 74.069 75.576 74.7196 75.576C75.829 75.576 76.709 75.848 77.3596 76.392C78.021 76.936 78.3516 77.6613 78.3516 78.568C78.341 79.1867 78.1756 79.7307 77.8556 80.2C77.5463 80.6587 77.109 80.9947 76.5436 81.208ZM87.5774 85.336C88.2174 85.336 88.5374 85.608 88.5374 86.152C88.5374 86.7173 88.2174 87 87.5774 87H81.4974C81.22 87 81.0014 86.92 80.8414 86.76C80.6814 86.5893 80.6014 86.3813 80.6014 86.136C80.6014 85.816 80.724 85.528 80.9694 85.272L84.6174 81.352C85.0654 80.8613 85.3907 80.4133 85.5934 80.008C85.8067 79.592 85.9134 79.1813 85.9134 78.776C85.9134 78.2747 85.7694 77.8907 85.4814 77.624C85.1934 77.3573 84.7827 77.224 84.2494 77.224C83.812 77.224 83.3854 77.3093 82.9694 77.48C82.564 77.64 82.1534 77.864 81.7374 78.152C81.6307 78.2267 81.524 78.2907 81.4174 78.344C81.3107 78.3867 81.204 78.408 81.0974 78.408C80.916 78.408 80.756 78.3227 80.6174 78.152C80.4894 77.9813 80.4254 77.7787 80.4254 77.544C80.4254 77.384 80.452 77.2453 80.5054 77.128C80.5694 77.0107 80.6654 76.8987 80.7934 76.792C81.2627 76.4187 81.812 76.1253 82.4414 75.912C83.0707 75.688 83.7 75.576 84.3294 75.576C85.428 75.576 86.3027 75.8533 86.9534 76.408C87.6147 76.9627 87.9454 77.7093 87.9454 78.648C87.9454 79.2987 87.8067 79.912 87.5294 80.488C87.252 81.0533 86.7827 81.688 86.1214 82.392L83.3534 85.336H87.5774ZM91.1708 84.696C91.5334 84.696 91.8268 84.8293 92.0508 85.096C92.2748 85.3627 92.3868 85.752 92.3868 86.264C92.3868 87.2773 92.0348 88.152 91.3307 88.888C91.1921 89.0267 91.0428 89.096 90.8828 89.096C90.7228 89.096 90.5841 89.0427 90.4668 88.936C90.3494 88.8293 90.2908 88.7013 90.2908 88.552C90.2908 88.424 90.3441 88.3013 90.4508 88.184C90.7708 87.8427 90.9788 87.4587 91.0748 87.032C90.7654 87 90.5094 86.8827 90.3068 86.68C90.1148 86.4667 90.0188 86.2053 90.0188 85.896C90.0188 85.5547 90.1254 85.272 90.3388 85.048C90.5628 84.8133 90.8401 84.696 91.1708 84.696ZM101.588 83.192C101.908 83.192 102.148 83.2613 102.308 83.4C102.468 83.5387 102.548 83.736 102.548 83.992C102.548 84.5253 102.228 84.792 101.588 84.792H100.772V86.056C100.772 86.3867 100.676 86.6427 100.484 86.824C100.302 87.0053 100.062 87.096 99.7635 87.096C99.4648 87.096 99.2195 87.0053 99.0275 86.824C98.8462 86.6427 98.7555 86.3867 98.7555 86.056V84.792H94.5635C94.2755 84.792 94.0515 84.712 93.8915 84.552C93.7315 84.3813 93.6515 84.1733 93.6515 83.928C93.6515 83.672 93.7368 83.4267 93.9075 83.192L98.8515 76.088C98.9582 75.9387 99.0915 75.8267 99.2515 75.752C99.4115 75.6667 99.5768 75.624 99.7475 75.624C100.025 75.624 100.265 75.7147 100.468 75.896C100.67 76.0773 100.772 76.3333 100.772 76.664V83.192H101.588ZM98.7555 83.192V78.888L95.7795 83.192H98.7555ZM109.741 81.208C110.403 81.3893 110.909 81.72 111.261 82.2C111.624 82.68 111.805 83.2667 111.805 83.96C111.805 84.952 111.432 85.7307 110.685 86.296C109.939 86.8507 108.904 87.128 107.581 87.128C106.259 87.128 105.224 86.8507 104.477 86.296C103.731 85.7307 103.357 84.952 103.357 83.96C103.357 83.2667 103.539 82.68 103.901 82.2C104.264 81.7093 104.776 81.3787 105.437 81.208C104.872 80.9947 104.429 80.664 104.109 80.216C103.789 79.7573 103.629 79.224 103.629 78.616C103.629 77.6773 103.981 76.936 104.685 76.392C105.389 75.848 106.355 75.576 107.581 75.576C108.808 75.576 109.773 75.848 110.477 76.392C111.181 76.936 111.533 77.6773 111.533 78.616C111.533 79.2347 111.373 79.7733 111.053 80.232C110.733 80.6907 110.296 81.016 109.741 81.208ZM107.581 77.192C106.248 77.192 105.581 77.736 105.581 78.824C105.581 79.368 105.747 79.784 106.077 80.072C106.419 80.3493 106.92 80.488 107.581 80.488C108.243 80.488 108.739 80.3493 109.069 80.072C109.411 79.784 109.581 79.368 109.581 78.824C109.581 77.736 108.915 77.192 107.581 77.192ZM107.581 85.512C109.107 85.512 109.869 84.9413 109.869 83.8C109.869 82.6587 109.107 82.088 107.581 82.088C106.056 82.088 105.293 82.6587 105.293 83.8C105.293 84.9413 106.056 85.512 107.581 85.512ZM120.343 85.336C120.983 85.336 121.303 85.608 121.303 86.152C121.303 86.7173 120.983 87 120.343 87H114.263C113.986 87 113.767 86.92 113.607 86.76C113.447 86.5893 113.367 86.3813 113.367 86.136C113.367 85.816 113.49 85.528 113.735 85.272L117.383 81.352C117.831 80.8613 118.156 80.4133 118.359 80.008C118.572 79.592 118.679 79.1813 118.679 78.776C118.679 78.2747 118.535 77.8907 118.247 77.624C117.959 77.3573 117.548 77.224 117.015 77.224C116.578 77.224 116.151 77.3093 115.735 77.48C115.33 77.64 114.919 77.864 114.503 78.152C114.396 78.2267 114.29 78.2907 114.183 78.344C114.076 78.3867 113.97 78.408 113.863 78.408C113.682 78.408 113.522 78.3227 113.383 78.152C113.255 77.9813 113.191 77.7787 113.191 77.544C113.191 77.384 113.218 77.2453 113.271 77.128C113.335 77.0107 113.431 76.8987 113.559 76.792C114.028 76.4187 114.578 76.1253 115.207 75.912C115.836 75.688 116.466 75.576 117.095 75.576C118.194 75.576 119.068 75.8533 119.719 76.408C120.38 76.9627 120.711 77.7093 120.711 78.648C120.711 79.2987 120.572 79.912 120.295 80.488C120.018 81.0533 119.548 81.688 118.887 82.392L116.119 85.336H120.343Z" fill="#355C7D"/>
<path opacity="0.7" d="M69.5084 103.045C69.3284 103.045 69.1844 102.994 69.0764 102.892C68.9744 102.784 68.9234 102.643 68.9234 102.469V97.609H67.2854C66.9254 97.609 66.7454 97.45 66.7454 97.132C66.7454 96.814 66.9254 96.655 67.2854 96.655H71.7224C72.0824 96.655 72.2624 96.814 72.2624 97.132C72.2624 97.45 72.0824 97.609 71.7224 97.609H70.0844V102.469C70.0844 102.643 70.0304 102.784 69.9224 102.892C69.8204 102.994 69.6824 103.045 69.5084 103.045ZM74.1538 103.072C73.7038 103.072 73.3078 102.979 72.9658 102.793C72.6298 102.607 72.3688 102.34 72.1828 101.992C71.9968 101.644 71.9038 101.239 71.9038 100.777C71.9038 100.315 71.9968 99.913 72.1828 99.571C72.3688 99.223 72.6298 98.956 72.9658 98.77C73.3078 98.584 73.7038 98.491 74.1538 98.491C74.6038 98.491 74.9968 98.584 75.3328 98.77C75.6748 98.956 75.9358 99.223 76.1158 99.571C76.3018 99.913 76.3948 100.315 76.3948 100.777C76.3948 101.239 76.3018 101.644 76.1158 101.992C75.9358 102.34 75.6748 102.607 75.3328 102.793C74.9968 102.979 74.6038 103.072 74.1538 103.072ZM74.1448 102.199C74.5108 102.199 74.7898 102.079 74.9818 101.839C75.1738 101.599 75.2698 101.245 75.2698 100.777C75.2698 100.315 75.1738 99.964 74.9818 99.724C74.7898 99.478 74.5138 99.355 74.1538 99.355C73.7938 99.355 73.5148 99.478 73.3168 99.724C73.1248 99.964 73.0288 100.315 73.0288 100.777C73.0288 101.245 73.1248 101.599 73.3168 101.839C73.5088 102.079 73.7848 102.199 74.1448 102.199ZM79.5832 102.217C79.8832 102.235 80.0332 102.37 80.0332 102.622C80.0332 102.766 79.9732 102.877 79.8532 102.955C79.7392 103.027 79.5742 103.057 79.3582 103.045L79.1152 103.027C78.1072 102.955 77.6032 102.415 77.6032 101.407V99.445H77.1532C76.9912 99.445 76.8652 99.409 76.7752 99.337C76.6912 99.265 76.6492 99.16 76.6492 99.022C76.6492 98.884 76.6912 98.779 76.7752 98.707C76.8652 98.635 76.9912 98.599 77.1532 98.599H77.6032V97.771C77.6032 97.609 77.6542 97.48 77.7562 97.384C77.8582 97.288 77.9962 97.24 78.1702 97.24C78.3382 97.24 78.4732 97.288 78.5752 97.384C78.6772 97.48 78.7282 97.609 78.7282 97.771V98.599H79.4932C79.6552 98.599 79.7782 98.635 79.8622 98.707C79.9522 98.779 79.9972 98.884 79.9972 99.022C79.9972 99.16 79.9522 99.265 79.8622 99.337C79.7782 99.409 79.6552 99.445 79.4932 99.445H78.7282V101.488C78.7282 101.932 78.9322 102.169 79.3402 102.199L79.5832 102.217ZM82.5275 98.491C83.1395 98.491 83.5925 98.644 83.8865 98.95C84.1865 99.25 84.3365 99.709 84.3365 100.327V102.523C84.3365 102.685 84.2885 102.814 84.1925 102.91C84.0965 103 83.9645 103.045 83.7965 103.045C83.6405 103.045 83.5115 102.997 83.4095 102.901C83.3135 102.805 83.2655 102.679 83.2655 102.523V102.325C83.1635 102.559 83.0015 102.742 82.7795 102.874C82.5635 103.006 82.3115 103.072 82.0235 103.072C81.7295 103.072 81.4625 103.012 81.2225 102.892C80.9825 102.772 80.7935 102.607 80.6555 102.397C80.5175 102.187 80.4485 101.953 80.4485 101.695C80.4485 101.371 80.5295 101.116 80.6915 100.93C80.8595 100.744 81.1295 100.609 81.5015 100.525C81.8735 100.441 82.3865 100.399 83.0405 100.399H83.2655V100.192C83.2655 99.898 83.2025 99.685 83.0765 99.553C82.9505 99.415 82.7465 99.346 82.4645 99.346C82.2905 99.346 82.1135 99.373 81.9335 99.427C81.7535 99.475 81.5405 99.547 81.2945 99.643C81.1385 99.721 81.0245 99.76 80.9525 99.76C80.8445 99.76 80.7545 99.721 80.6825 99.643C80.6165 99.565 80.5835 99.463 80.5835 99.337C80.5835 99.235 80.6075 99.148 80.6555 99.076C80.7095 98.998 80.7965 98.926 80.9165 98.86C81.1265 98.746 81.3755 98.656 81.6635 98.59C81.9575 98.524 82.2455 98.491 82.5275 98.491ZM82.2485 102.262C82.5485 102.262 82.7915 102.163 82.9775 101.965C83.1695 101.761 83.2655 101.5 83.2655 101.182V100.993H83.1035C82.7015 100.993 82.3895 101.011 82.1675 101.047C81.9455 101.083 81.7865 101.146 81.6905 101.236C81.5945 101.326 81.5465 101.449 81.5465 101.605C81.5465 101.797 81.6125 101.956 81.7445 102.082C81.8825 102.202 82.0505 102.262 82.2485 102.262ZM86.0378 103.054C85.8758 103.054 85.7408 103.009 85.6328 102.919C85.5308 102.823 85.4798 102.688 85.4798 102.514V97.141C85.4798 96.967 85.5308 96.835 85.6328 96.745C85.7408 96.655 85.8758 96.61 86.0378 96.61C86.1998 96.61 86.3348 96.655 86.4428 96.745C86.5508 96.835 86.6048 96.967 86.6048 97.141V102.514C86.6048 102.688 86.5508 102.823 86.4428 102.919C86.3348 103.009 86.1998 103.054 86.0378 103.054ZM90.8833 103.054C90.7093 103.054 90.5683 103.003 90.4603 102.901C90.3583 102.793 90.3073 102.649 90.3073 102.469V97.204C90.3073 97.03 90.3553 96.895 90.4513 96.799C90.5533 96.703 90.6913 96.655 90.8653 96.655H93.0793C93.7573 96.655 94.2853 96.826 94.6633 97.168C95.0413 97.504 95.2303 97.978 95.2303 98.59C95.2303 99.202 95.0413 99.679 94.6633 100.021C94.2853 100.363 93.7573 100.534 93.0793 100.534H91.4683V102.469C91.4683 102.649 91.4143 102.793 91.3063 102.901C91.2043 103.003 91.0633 103.054 90.8833 103.054ZM92.9353 99.643C93.7333 99.643 94.1323 99.295 94.1323 98.599C94.1323 97.903 93.7333 97.555 92.9353 97.555H91.4683V99.643H92.9353ZM97.9435 98.491C98.5555 98.491 99.0085 98.644 99.3025 98.95C99.6025 99.25 99.7525 99.709 99.7525 100.327V102.523C99.7525 102.685 99.7045 102.814 99.6085 102.91C99.5125 103 99.3805 103.045 99.2125 103.045C99.0565 103.045 98.9275 102.997 98.8255 102.901C98.7295 102.805 98.6815 102.679 98.6815 102.523V102.325C98.5795 102.559 98.4175 102.742 98.1955 102.874C97.9795 103.006 97.7275 103.072 97.4395 103.072C97.1455 103.072 96.8785 103.012 96.6385 102.892C96.3985 102.772 96.2095 102.607 96.0715 102.397C95.9335 102.187 95.8645 101.953 95.8645 101.695C95.8645 101.371 95.9455 101.116 96.1075 100.93C96.2755 100.744 96.5455 100.609 96.9175 100.525C97.2895 100.441 97.8025 100.399 98.4565 100.399H98.6815V100.192C98.6815 99.898 98.6185 99.685 98.4925 99.553C98.3665 99.415 98.1625 99.346 97.8805 99.346C97.7065 99.346 97.5295 99.373 97.3495 99.427C97.1695 99.475 96.9565 99.547 96.7105 99.643C96.5545 99.721 96.4405 99.76 96.3685 99.76C96.2605 99.76 96.1705 99.721 96.0985 99.643C96.0325 99.565 95.9995 99.463 95.9995 99.337C95.9995 99.235 96.0235 99.148 96.0715 99.076C96.1255 98.998 96.2125 98.926 96.3325 98.86C96.5425 98.746 96.7915 98.656 97.0795 98.59C97.3735 98.524 97.6615 98.491 97.9435 98.491ZM97.6645 102.262C97.9645 102.262 98.2075 102.163 98.3935 101.965C98.5855 101.761 98.6815 101.5 98.6815 101.182V100.993H98.5195C98.1175 100.993 97.8055 101.011 97.5835 101.047C97.3615 101.083 97.2025 101.146 97.1065 101.236C97.0105 101.326 96.9625 101.449 96.9625 101.605C96.9625 101.797 97.0285 101.956 97.1605 102.082C97.2985 102.202 97.4665 102.262 97.6645 102.262ZM103.182 102.217C103.482 102.235 103.632 102.37 103.632 102.622C103.632 102.766 103.572 102.877 103.452 102.955C103.338 103.027 103.173 103.057 102.957 103.045L102.714 103.027C101.706 102.955 101.202 102.415 101.202 101.407V99.445H100.752C100.59 99.445 100.464 99.409 100.374 99.337C100.29 99.265 100.248 99.16 100.248 99.022C100.248 98.884 100.29 98.779 100.374 98.707C100.464 98.635 100.59 98.599 100.752 98.599H101.202V97.771C101.202 97.609 101.253 97.48 101.355 97.384C101.457 97.288 101.595 97.24 101.769 97.24C101.937 97.24 102.072 97.288 102.174 97.384C102.276 97.48 102.327 97.609 102.327 97.771V98.599H103.092C103.254 98.599 103.377 98.635 103.461 98.707C103.551 98.779 103.596 98.884 103.596 99.022C103.596 99.16 103.551 99.265 103.461 99.337C103.377 99.409 103.254 99.445 103.092 99.445H102.327V101.488C102.327 101.932 102.531 102.169 102.939 102.199L103.182 102.217ZM104.776 103.054C104.614 103.054 104.479 103.009 104.371 102.919C104.269 102.823 104.218 102.688 104.218 102.514V99.04C104.218 98.866 104.269 98.734 104.371 98.644C104.479 98.554 104.614 98.509 104.776 98.509C104.938 98.509 105.073 98.554 105.181 98.644C105.289 98.734 105.343 98.866 105.343 99.04V102.514C105.343 102.688 105.289 102.823 105.181 102.919C105.073 103.009 104.938 103.054 104.776 103.054ZM104.776 97.708C104.572 97.708 104.41 97.654 104.29 97.546C104.17 97.432 104.11 97.285 104.11 97.105C104.11 96.925 104.17 96.781 104.29 96.673C104.41 96.565 104.572 96.511 104.776 96.511C104.974 96.511 105.133 96.565 105.253 96.673C105.379 96.781 105.442 96.925 105.442 97.105C105.442 97.285 105.382 97.432 105.262 97.546C105.142 97.654 104.98 97.708 104.776 97.708ZM109.986 101.794C110.088 101.794 110.169 101.833 110.229 101.911C110.295 101.989 110.328 102.094 110.328 102.226C110.328 102.412 110.217 102.568 109.995 102.694C109.791 102.808 109.56 102.901 109.302 102.973C109.044 103.039 108.798 103.072 108.564 103.072C107.856 103.072 107.295 102.868 106.881 102.46C106.467 102.052 106.26 101.494 106.26 100.786C106.26 100.336 106.35 99.937 106.53 99.589C106.71 99.241 106.962 98.971 107.286 98.779C107.616 98.587 107.988 98.491 108.402 98.491C108.798 98.491 109.143 98.578 109.437 98.752C109.731 98.926 109.959 99.172 110.121 99.49C110.283 99.808 110.364 100.183 110.364 100.615C110.364 100.873 110.25 101.002 110.022 101.002H107.367C107.403 101.416 107.52 101.722 107.718 101.92C107.916 102.112 108.204 102.208 108.582 102.208C108.774 102.208 108.942 102.184 109.086 102.136C109.236 102.088 109.404 102.022 109.59 101.938C109.77 101.842 109.902 101.794 109.986 101.794ZM108.429 99.283C108.123 99.283 107.877 99.379 107.691 99.571C107.511 99.763 107.403 100.039 107.367 100.399H109.401C109.389 100.033 109.299 99.757 109.131 99.571C108.963 99.379 108.729 99.283 108.429 99.283ZM113.841 98.491C114.369 98.491 114.762 98.641 115.02 98.941C115.278 99.241 115.407 99.694 115.407 100.3V102.514C115.407 102.682 115.356 102.814 115.254 102.91C115.158 103.006 115.023 103.054 114.849 103.054C114.675 103.054 114.537 103.006 114.435 102.91C114.333 102.814 114.282 102.682 114.282 102.514V100.363C114.282 100.021 114.216 99.772 114.084 99.616C113.958 99.46 113.757 99.382 113.481 99.382C113.157 99.382 112.896 99.484 112.698 99.688C112.506 99.892 112.41 100.165 112.41 100.507V102.514C112.41 102.682 112.359 102.814 112.257 102.91C112.155 103.006 112.017 103.054 111.843 103.054C111.669 103.054 111.531 103.006 111.429 102.91C111.333 102.814 111.285 102.682 111.285 102.514V99.031C111.285 98.875 111.336 98.749 111.438 98.653C111.54 98.557 111.678 98.509 111.852 98.509C112.008 98.509 112.134 98.557 112.23 98.653C112.332 98.743 112.383 98.863 112.383 99.013V99.256C112.533 99.01 112.734 98.821 112.986 98.689C113.238 98.557 113.523 98.491 113.841 98.491ZM118.835 102.217C119.135 102.235 119.285 102.37 119.285 102.622C119.285 102.766 119.225 102.877 119.105 102.955C118.991 103.027 118.826 103.057 118.61 103.045L118.367 103.027C117.359 102.955 116.855 102.415 116.855 101.407V99.445H116.405C116.243 99.445 116.117 99.409 116.027 99.337C115.943 99.265 115.901 99.16 115.901 99.022C115.901 98.884 115.943 98.779 116.027 98.707C116.117 98.635 116.243 98.599 116.405 98.599H116.855V97.771C116.855 97.609 116.906 97.48 117.008 97.384C117.11 97.288 117.248 97.24 117.422 97.24C117.59 97.24 117.725 97.288 117.827 97.384C117.929 97.48 117.98 97.609 117.98 97.771V98.599H118.745C118.907 98.599 119.03 98.635 119.114 98.707C119.204 98.779 119.249 98.884 119.249 99.022C119.249 99.16 119.204 99.265 119.114 99.337C119.03 99.409 118.907 99.445 118.745 99.445H117.98V101.488C117.98 101.932 118.184 102.169 118.592 102.199L118.835 102.217ZM121.464 103.072C120.81 103.072 120.282 102.943 119.88 102.685C119.688 102.571 119.592 102.409 119.592 102.199C119.592 102.079 119.625 101.983 119.691 101.911C119.757 101.833 119.838 101.794 119.934 101.794C120.036 101.794 120.177 101.842 120.357 101.938C120.549 102.028 120.723 102.097 120.879 102.145C121.041 102.193 121.245 102.217 121.491 102.217C121.743 102.217 121.938 102.175 122.076 102.091C122.22 102.007 122.292 101.89 122.292 101.74C122.292 101.638 122.262 101.557 122.202 101.497C122.148 101.437 122.046 101.383 121.896 101.335C121.752 101.281 121.53 101.221 121.23 101.155C120.696 101.047 120.312 100.894 120.078 100.696C119.85 100.498 119.736 100.225 119.736 99.877C119.736 99.613 119.814 99.376 119.97 99.166C120.126 98.95 120.339 98.785 120.609 98.671C120.885 98.551 121.197 98.491 121.545 98.491C121.797 98.491 122.04 98.524 122.274 98.59C122.508 98.65 122.718 98.74 122.904 98.86C123.096 98.98 123.192 99.139 123.192 99.337C123.192 99.457 123.159 99.559 123.093 99.643C123.027 99.721 122.946 99.76 122.85 99.76C122.784 99.76 122.718 99.748 122.652 99.724C122.592 99.694 122.514 99.652 122.418 99.598C122.244 99.508 122.094 99.442 121.968 99.4C121.842 99.352 121.686 99.328 121.5 99.328C121.278 99.328 121.101 99.373 120.969 99.463C120.843 99.553 120.78 99.676 120.78 99.832C120.78 99.982 120.846 100.096 120.978 100.174C121.11 100.252 121.365 100.33 121.743 100.408C122.145 100.492 122.46 100.588 122.688 100.696C122.916 100.804 123.078 100.939 123.174 101.101C123.276 101.263 123.327 101.47 123.327 101.722C123.327 102.13 123.156 102.457 122.814 102.703C122.478 102.949 122.028 103.072 121.464 103.072Z" fill="#355C7D"/>
</g>
<defs>
<filter id="filter0_d" x="0" y="0" width="192" height="192" filterUnits="userSpaceOnUse" color-interpolation-filters="sRGB">
<feFlood flood-opacity="0" result="BackgroundImageFix"/>
<feColorMatrix in="SourceAlpha" type="matrix" values="0 0 0 0 0 0 0 0 0 0 0 0 0 0 0 0 0 0 127 0"/>
<feOffset dy="6"/>
<feGaussianBlur stdDeviation="3"/>
<feColorMatrix type="matrix" values="0 0 0 0 0.811765 0 0 0 0 0.435294 0 0 0 0 0.501961 0 0 0 0.21 0"/>
<feBlend mode="normal" in2="BackgroundImageFix" result="effect1_dropShadow"/>
<feBlend mode="normal" in="SourceGraphic" in2="effect1_dropShadow" result="shape"/>
</filter>
<linearGradient id="paint0_linear" x1="105" y1="108" x2="195.9" y2="145.8" gradientUnits="userSpaceOnUse">
<stop stop-color="#FF7682"/>
<stop offset="1" stop-color="#C56D86"/>
</linearGradient>
<linearGradient id="paint1_linear" x1="130.2" y1="20.7" x2="45.6" y2="107.1" gradientUnits="userSpaceOnUse">
<stop stop-color="#355C7D"/>
<stop offset="1" stop-color="#725A7A"/>
</linearGradient>
</defs>
</svg>
