<svg width="256" height="151" viewBox="0 0 256 151" fill="none" xmlns="http://www.w3.org/2000/svg">
<g filter="url(#filter0_d)">
<rect x="2" width="252" height="133" rx="20" fill="url(#paint0_linear)"/>
</g>
<mask id="mask0" mask-type="alpha" maskUnits="userSpaceOnUse" x="2" y="0" width="252" height="133">
<rect x="2" width="252" height="133" rx="20" fill="url(#paint1_linear)"/>
</mask>
<g mask="url(#mask0)">
<g opacity="0.5">
<g style="mix-blend-mode:soft-light" opacity="0.5">
<path d="M-425 135.458L-377 108.758C-329 82.4581 -233 28.4581 -137 34.1581C-41 39.4581 55 103.458 151 98.1581C247 92.4581 343 18.4581 439 7.45811C535 -3.54189 631 50.4581 727 76.7581C823 103.458 919 103.458 967 103.458H1015V199.458H967C919 199.458 823 199.458 727 199.458C631 199.458 535 199.458 439 199.458C343 199.458 247 199.458 151 199.458C55 199.458 -41 199.458 -137 199.458C-233 199.458 -329 199.458 -377 199.458H-425V135.458Z" fill="url(#paint2_linear)"/>
</g>
<path opacity="0.5" d="M-139.028 34.6573L-139.03 34.6572C-232.73 29.0938 -326.469 80.5137 -375.486 107.401C-376.6 108.012 -377.691 108.611 -378.758 109.196C-378.759 109.196 -378.759 109.196 -378.76 109.197L-426.757 135.895L-427 135.458V199.458H-379H-139H149H437H725H965H1012.5V198.958M-139.028 34.6573L149 98.1581C198.938 95.1931 248.875 73.7467 298.813 52.3004C344.875 32.5182 390.938 12.7361 437 7.45811C504.314 -0.25494 571.628 23.9901 638.942 48.2351C667.628 58.5672 696.314 68.8993 725 76.7581M-139.028 34.6573C-95.0738 37.084 -51.113 51.8376 -7.07385 66.6175C-3.1026 67.9503 0.869293 69.2833 4.84189 70.6075C52.8343 86.6049 100.92 101.313 149.028 98.6574L149.03 98.6572C197.131 95.8012 245.211 75.8368 293.197 55.2551C295.126 54.4279 297.055 53.5996 298.983 52.7714C345.069 32.9796 391.07 13.2243 437.057 7.95486C484.949 2.46717 532.867 13.1906 580.847 28.5967C600.152 34.7954 619.456 41.7481 638.769 48.7044C643.456 50.3925 648.143 52.0808 652.832 53.7586C676.832 62.3479 700.847 70.6595 724.866 77.2398M-139.028 34.6573L724.866 77.2398M1012.5 198.958H1013V103.958H1012.5M1012.5 198.958V103.958M1012.5 198.958H965H964.718H964.435H964.151H963.866H963.58H963.293H963.005H962.715H962.425H962.133H961.84H961.547H961.252H960.956H960.659H960.361H960.062H959.762H959.46H959.158H958.855H958.55H958.245H957.938H957.631H957.322H957.013H956.702H956.391H956.078H955.764H955.449H955.133H954.817H954.499H954.18H953.86H953.539H953.217H952.894H952.57H952.245H951.919H951.592H951.264H950.935H950.605H950.274H949.942H949.609H949.275H948.94H948.604H948.267H947.929H947.59H947.25H946.909H946.568H946.225H945.881H945.536H945.19H944.844H944.496H944.147H943.798H943.447H943.096H942.744H942.39H942.036H941.681H941.324H940.967H940.609H940.25H939.89H939.529H939.167H938.805H938.441H938.077H937.711H937.345H936.977H936.609H936.24H935.87H935.499H935.127H934.754H934.38H934.006H933.63H933.254H932.877H932.498H932.119H931.74H931.359H930.977H930.594H930.211H929.827H929.441H929.055H928.668H928.281H927.892H927.502H927.112H926.721H926.328H925.935H925.542H925.147H924.751H924.355H923.958H923.56H923.161H922.761H922.361H921.959H921.557H921.154H920.75H920.345H919.94H919.533H919.126H918.718H918.309H917.9H917.49H917.078H916.666H916.253H915.84H915.425H915.01H914.594H914.177H913.76H913.341H912.922H912.502H912.081H911.66H911.238H910.814H910.391H909.966H909.541H909.115H908.688H908.26H907.832H907.402H906.972H906.542H906.11H905.678H905.245H904.811H904.377H903.942H903.506H903.069H902.632H902.194H901.755H901.315H900.875H900.434H899.992H899.55H899.107H898.663H898.218H897.773H897.327H896.88H896.433H895.985H895.536H895.086H894.636H894.185H893.734H893.281H892.828H892.375H891.92H891.465H891.01H890.553H890.096H889.638H889.18H888.721H888.261H887.801H887.34H886.878H886.416H885.953H885.489H885.025H884.56H884.094H883.628H883.161H882.693H882.225H881.756H881.287H880.817H880.346H879.875H879.403H878.93H878.457H877.983H877.509H877.034H876.558H876.082H875.605H875.127H874.649H874.171H873.691H873.212H872.731H872.25H871.768H871.286H870.803H870.32H869.836H869.351H868.866H868.38H867.894H867.407H866.92H866.432H865.943H865.454H864.964H864.474H863.983H863.492H863H862.508H862.015H861.521H861.027H860.532H860.037H859.541H859.045H858.548H858.051H857.553H857.055H856.556H856.057H855.557H855.056H854.555H854.054H853.552H853.049H852.546H852.043H851.539H851.034H850.529H850.024H849.518H849.011H848.504H847.997H847.489H846.98H846.472H845.962H845.452H844.942H844.431H843.92H843.408H842.896H842.383H841.87H841.357H840.843H840.328H839.813H839.298H838.782H838.265H837.749H837.231H836.714H836.196H835.677H835.158H834.639H834.119H833.599H833.078H832.557H832.036H831.514H830.991H830.469H829.946H829.422H828.898H828.374H827.849H827.324H826.798H826.272H825.746H825.219H824.692H824.164H823.636H823.108H822.579H822.05H821.521H820.991H820.461H819.93H819.399H818.868H818.336H817.804H817.272H816.739H816.206H815.672H815.139H814.604H814.07H813.535H813H812.464H811.928H811.392H810.856H810.319H809.782H809.244H808.706H808.168H807.63H807.091H806.552H806.012H805.472H804.932H804.392H803.851H803.31H802.769H802.227H801.685H801.143H800.6H800.058H799.515H798.971H798.427H797.884H797.339H796.795H796.25H795.705H795.16H794.614H794.068H793.522H792.976H792.429H791.882H791.335H790.787H790.24H789.692H789.144H788.595H788.047H787.498H786.948H786.399H785.849H785.299H784.749H784.199H783.649H783.098H782.547H781.995H781.444H780.892H780.34H779.788H779.236H778.684H778.131H777.578H777.025H776.472H775.918H775.364H774.81H774.256H773.702H773.148H772.593H772.038H771.483H770.928H770.372H769.817H769.261H768.705H768.149H767.593H767.037H766.48H765.923H765.366H764.809H764.252H763.695H763.138H762.58H762.022H761.464H760.906H760.348H759.79H759.231H758.673H758.114H757.555H756.996H756.437H755.878H755.319H754.759H754.2H753.64H753.08H752.52H751.96H751.4H750.84H750.28H749.719H749.159H748.599H748.038H747.477H746.916H746.355H745.794H745.233H744.672H744.111H743.55H742.988H742.427H741.865H741.304H740.742H740.18H739.619H739.057H738.495H737.933H737.371H736.809H736.247H735.685H735.123H734.561H733.999H733.436H732.874H732.312H731.749H731.187H730.625H730.062H729.5H728.937H728.375H727.812H727.25H726.688H726.125H725.562H725H724.438H723.875H723.312H722.75H722.188H721.625H721.062H720.5H719.938H719.375H718.812H718.25H717.688H717.125H716.562H716H715.438H714.875H714.312H713.75H713.188H712.625H712.062H711.5H710.938H710.375H709.812H709.25H708.688H708.125H707.562H707H706.438H705.875H705.312H704.75H704.188H703.625H703.062H702.5H701.938H701.375H700.812H700.25H699.688H699.125H698.562H698H697.438H696.875H696.312H695.75H695.188H694.625H694.062H693.5H692.938H692.375H691.812H691.25H690.688H690.125H689.562H689H688.438H687.875H687.312H686.75H686.188H685.625H685.062H684.5H683.938H683.375H682.812H682.25H681.688H681.125H680.562H680H679.438H678.875H678.312H677.75H677.188H676.625H676.062H675.5H674.938H674.375H673.812H673.25H672.688H672.125H671.562H671H670.438H669.875H669.312H668.75H668.188H667.625H667.062H666.5H665.938H665.375H664.812H664.25H663.688H663.125H662.562H662H661.438H660.875H660.312H659.75H659.188H658.625H658.062H657.5H656.938H656.375H655.812H655.25H654.688H654.125H653.562H653H652.438H651.875H651.312H650.75H650.188H649.625H649.062H648.5H647.938H647.375H646.812H646.25H645.688H645.125H644.562H644H643.438H642.875H642.312H641.75H641.188H640.625H640.062H639.5H638.938H638.375H637.812H637.25H636.688H636.125H635.562H635H634.438H633.875H633.312H632.75H632.188H631.625H631.062H630.5H629.938H629.375H628.812H628.25H627.688H627.125H626.562H626H625.438H624.875H624.312H623.75H623.188H622.625H622.062H621.5H620.938H620.375H619.812H619.25H618.688H618.125H617.562H617H616.438H615.875H615.312H614.75H614.188H613.625H613.062H612.5H611.938H611.375H610.812H610.25H609.688H609.125H608.562H608H607.438H606.875H606.312H605.75H605.188H604.625H604.062H603.5H602.938H602.375H601.812H601.25H600.688H600.125H599.562H599H598.438H597.875H597.312H596.75H596.188H595.625H595.062H594.5H593.938H593.375H592.812H592.25H591.688H591.125H590.562H590H589.438H588.875H588.312H587.75H587.188H586.625H586.062H585.5H584.938H584.375H583.812H583.25H582.688H582.125H581.562H581H580.438H579.875H579.312H578.75H578.188H577.625H577.062H576.5H575.938H575.375H574.812H574.25H573.688H573.125H572.562H572H571.438H570.875H570.312H569.75H569.188H568.625H568.062H567.5H566.938H566.375H565.812H565.25H564.688H564.125H563.562H563H562.438H561.875H561.312H560.75H560.188H559.625H559.062H558.5H557.938H557.375H556.812H556.25H555.688H555.125H554.562H554H553.438H552.875H552.312H551.75H551.188H550.625H550.062H549.5H548.938H548.375H547.812H547.25H546.688H546.125H545.562H545H544.438H543.875H543.312H542.75H542.188H541.625H541.062H540.5H539.938H539.375H538.812H538.25H537.688H537.125H536.562H536H535.438H534.875H534.312H533.75H533.188H532.625H532.062H531.5H530.938H530.375H529.812H529.25H528.688H528.125H527.562H527H526.438H525.875H525.312H524.75H524.188H523.625H523.062H522.5H521.938H521.375H520.812H520.25H519.688H519.125H518.562H518H517.438H516.875H516.312H515.75H515.188H514.625H514.062H513.5H512.938H512.375H511.812H511.25H510.688H510.125H509.562H509H508.438H507.875H507.312H506.75H506.188H505.625H505.062H504.5H503.938H503.375H502.812H502.25H501.688H501.125H500.562H500H499.438H498.875H498.312H497.75H497.188H496.625H496.062H495.5H494.938H494.375H493.812H493.25H492.688H492.125H491.562H491H490.438H489.875H489.312H488.75H488.188H487.625H487.062H486.5H485.938H485.375H484.812H484.25H483.688H483.125H482.562H482H481.438H480.875H480.312H479.75H479.188H478.625H478.062H477.5H476.938H476.375H475.812H475.25H474.688H474.125H473.562H473H472.438H471.875H471.312H470.75H470.188H469.625H469.062H468.5H467.938H467.375H466.812H466.25H465.688H465.125H464.562H464H463.438H462.875H462.312H461.75H461.188H460.625H460.062H459.5H458.938H458.375H457.812H457.25H456.688H456.125H455.562H455H454.438H453.875H453.312H452.75H452.188H451.625H451.062H450.5H449.938H449.375H448.812H448.25H447.688H447.125H446.562H446H445.438H444.875H444.312H443.75H443.188H442.625H442.062H441.5H440.938H440.375H439.812H439.25H438.688H438.125H437.562H437H436.438H435.875H435.312H434.75H434.188H433.625H433.062H432.5H431.938H431.375H430.812H430.25H429.688H429.125H428.562H428H427.438H426.875H426.312H425.75H425.188H424.625H424.062H423.5H422.938H422.375H421.812H421.25H420.688H420.125H419.562H419H418.438H417.875H417.312H416.75H416.188H415.625H415.062H414.5H413.938H413.375H412.812H412.25H411.688H411.125H410.562H410H409.438H408.875H408.312H407.75H407.188H406.625H406.062H405.5H404.938H404.375H403.812H403.25H402.688H402.125H401.562H401H400.438H399.875H399.312H398.75H398.188H397.625H397.062H396.5H395.938H395.375H394.812H394.25H393.688H393.125H392.562H392H391.438H390.875H390.312H389.75H389.188H388.625H388.062H387.5H386.938H386.375H385.812H385.25H384.688H384.125H383.562H383H382.438H381.875H381.312H380.75H380.188H379.625H379.062H378.5H377.938H377.375H376.812H376.25H375.688H375.125H374.562H374H373.438H372.875H372.312H371.75H371.188H370.625H370.062H369.5H368.938H368.375H367.812H367.25H366.688H366.125H365.562H365H364.438H363.875H363.312H362.75H362.188H361.625H361.062H360.5H359.938H359.375H358.812H358.25H357.688H357.125H356.562H356H355.438H354.875H354.312H353.75H353.188H352.625H352.062H351.5H350.938H350.375H349.812H349.25H348.688H348.125H347.562H347H346.438H345.875H345.312H344.75H344.188H343.625H343.062H342.5H341.938H341.375H340.812H340.25H339.688H339.125H338.562H338H337.438H336.875H336.312H335.75H335.188H334.625H334.062H333.5H332.938H332.375H331.812H331.25H330.688H330.125H329.562H329H328.438H327.875H327.312H326.75H326.188H325.625H325.062H324.5H323.938H323.375H322.812H322.25H321.688H321.125H320.562H320H319.438H318.875H318.312H317.75H317.188H316.625H316.062H315.5H314.938H314.375H313.812H313.25H312.688H312.125H311.562H311H310.438H309.875H309.312H308.75H308.188H307.625H307.062H306.5H305.938H305.375H304.812H304.25H303.688H303.125H302.562H302H301.438H300.875H300.312H299.75H299.188H298.625H298.062H297.5H296.938H296.375H295.812H295.25H294.688H294.125H293.562H293H292.438H291.875H291.312H290.75H290.188H289.625H289.062H288.5H287.938H287.375H286.812H286.25H285.688H285.125H284.562H284H283.438H282.875H282.312H281.75H281.188H280.625H280.062H279.5H278.938H278.375H277.812H277.25H276.688H276.125H275.562H275H274.438H273.875H273.312H272.75H272.188H271.625H271.062H270.5H269.938H269.375H268.812H268.25H267.688H267.125H266.562H266H265.438H264.875H264.312H263.75H263.188H262.625H262.062H261.5H260.938H260.375H259.812H259.25H258.688H258.125H257.562H257H256.438H255.875H255.312H254.75H254.188H253.625H253.062H252.5H251.938H251.375H250.812H250.25H249.688H249.125H248.562H248H247.438H246.875H246.312H245.75H245.188H244.625H244.062H243.5H242.938H242.375H241.812H241.25H240.688H240.125H239.562H239H238.438H237.875H237.312H236.75H236.188H235.625H235.062H234.5H233.938H233.375H232.812H232.25H231.688H231.125H230.562H230H229.438H228.875H228.312H227.75H227.188H226.625H226.062H225.5H224.938H224.375H223.812H223.25H222.688H222.125H221.562H221H220.438H219.875H219.312H218.75H218.188H217.625H217.062H216.5H215.938H215.375H214.812H214.25H213.688H213.125H212.562H212H211.438H210.875H210.312H209.75H209.188H208.625H208.062H207.5H206.938H206.375H205.812H205.25H204.688H204.125H203.562H203H202.438H201.875H201.312H200.75H200.188H199.625H199.062H198.5H197.938H197.375H196.812H196.25H195.688H195.125H194.562H194H193.438H192.875H192.312H191.75H191.188H190.625H190.062H189.5H188.938H188.375H187.812H187.25H186.688H186.125H185.562H185H184.438H183.875H183.312H182.75H182.188H181.625H181.062H180.5H179.938H179.375H178.812H178.25H177.688H177.125H176.562H176H175.438H174.875H174.312H173.75H173.188H172.625H172.062H171.5H170.938H170.375H169.812H169.25H168.688H168.125H167.562H167H166.438H165.875H165.312H164.75H164.188H163.625H163.062H162.5H161.938H161.375H160.812H160.25H159.688H159.125H158.562H158H157.438H156.875H156.312H155.75H155.188H154.625H154.062H153.5H152.938H152.375H151.812H151.25H150.688H150.125H149.562H149H148.438H147.875H147.312H146.75H146.188H145.625H145.062H144.5H143.938H143.375H142.812H142.25H141.688H141.125H140.562H140H139.438H138.875H138.312H137.75H137.188H136.625H136.062H135.5H134.938H134.375H133.812H133.25H132.688H132.125H131.562H131H130.438H129.875H129.312H128.75H128.188H127.625H127.062H126.5H125.938H125.375H124.812H124.25H123.688H123.125H122.562H122H121.438H120.875H120.312H119.75H119.188H118.625H118.062H117.5H116.938H116.375H115.812H115.25H114.688H114.125H113.562H113H112.438H111.875H111.312H110.75H110.188H109.625H109.062H108.5H107.938H107.375H106.812H106.25H105.688H105.125H104.562H104H103.438H102.875H102.312H101.75H101.188H100.625H100.062H99.5H98.9375H98.375H97.8125H97.25H96.6875H96.125H95.5625H95H94.4375H93.875H93.3125H92.75H92.1875H91.625H91.0625H90.5H89.9375H89.375H88.8125H88.25H87.6875H87.125H86.5625H86H85.4375H84.875H84.3125H83.75H83.1875H82.625H82.0625H81.5H80.9375H80.375H79.8125H79.25H78.6875H78.125H77.5625H77H76.4375H75.875H75.3125H74.75H74.1875H73.625H73.0625H72.5H71.9375H71.375H70.8125H70.25H69.6875H69.125H68.5625H68H67.4375H66.875H66.3125H65.75H65.1875H64.625H64.0625H63.5H62.9375H62.375H61.8125H61.25H60.6875H60.125H59.5625H59H58.4375H57.875H57.3125H56.75H56.1875H55.625H55.0625H54.5H53.9375H53.375H52.8125H52.25H51.6875H51.125H50.5625H50H49.4375H48.875H48.3125H47.75H47.1875H46.625H46.0625H45.5H44.9375H44.375H43.8125H43.25H42.6875H42.125H41.5625H41H40.4375H39.875H39.3125H38.75H38.1875H37.625H37.0625H36.5H35.9375H35.375H34.8125H34.25H33.6875H33.125H32.5625H32H31.4375H30.875H30.3125H29.75H29.1875H28.625H28.0625H27.5H26.9375H26.375H25.8125H25.25H24.6875H24.125H23.5625H23H22.4375H21.875H21.3125H20.75H20.1875H19.625H19.0625H18.5H17.9375H17.375H16.8125H16.25H15.6875H15.125H14.5625H14H13.4375H12.875H12.3125H11.75H11.1875H10.625H10.0625H9.5H8.9375H8.375H7.8125H7.25H6.6875H6.125H5.5625H5H4.4375H3.875H3.3125H2.75H2.1875H1.625H1.0625H0.5H-0.0625H-0.625H-1.1875H-1.75H-2.3125H-2.875H-3.4375H-4H-4.5625H-5.125H-5.6875H-6.25H-6.8125H-7.375H-7.9375H-8.5H-9.0625H-9.625H-10.1875H-10.75H-11.3125H-11.875H-12.4375H-13H-13.5625H-14.125H-14.6875H-15.25H-15.8125H-16.375H-16.9375H-17.5H-18.0625H-18.625H-19.1875H-19.75H-20.3125H-20.875H-21.4375H-22H-22.5625H-23.125H-23.6875H-24.25H-24.8125H-25.375H-25.9375H-26.5H-27.0625H-27.625H-28.1875H-28.75H-29.3125H-29.875H-30.4375H-31H-31.5625H-32.125H-32.6875H-33.25H-33.8125H-34.375H-34.9375H-35.5H-36.0625H-36.625H-37.1875H-37.75H-38.3125H-38.875H-39.4375H-40H-40.5625H-41.125H-41.6875H-42.25H-42.8125H-43.375H-43.9375H-44.5H-45.0625H-45.625H-46.1875H-46.75H-47.3125H-47.875H-48.4375H-49H-49.5625H-50.125H-50.6875H-51.25H-51.8125H-52.375H-52.9375H-53.5H-54.0625H-54.625H-55.1875H-55.75H-56.3125H-56.875H-57.4375H-58H-58.5625H-59.125H-59.6875H-60.25H-60.8125H-61.375H-61.9375H-62.5H-63.0625H-63.625H-64.1875H-64.75H-65.3125H-65.875H-66.4375H-67H-67.5625H-68.125H-68.6875H-69.25H-69.8125H-70.375H-70.9375H-71.5H-72.0625H-72.625H-73.1875H-73.75H-74.3125H-74.875H-75.4375H-76H-76.5625H-77.125H-77.6875H-78.25H-78.8125H-79.375H-79.9375H-80.5H-81.0625H-81.625H-82.1875H-82.75H-83.3125H-83.875H-84.4375H-85H-85.5625H-86.125H-86.6875H-87.25H-87.8125H-88.375H-88.9375H-89.5H-90.0625H-90.625H-91.1875H-91.75H-92.3125H-92.875H-93.4375H-94H-94.5625H-95.125H-95.6875H-96.25H-96.8125H-97.375H-97.9375H-98.5H-99.0625H-99.625H-100.188H-100.75H-101.312H-101.875H-102.438H-103H-103.562H-104.125H-104.688H-105.25H-105.812H-106.375H-106.938H-107.5H-108.062H-108.625H-109.188H-109.75H-110.312H-110.875H-111.438H-112H-112.562H-113.125H-113.688H-114.25H-114.812H-115.375H-115.938H-116.5H-117.062H-117.625H-118.188H-118.75H-119.312H-119.875H-120.438H-121H-121.562H-122.125H-122.688H-123.25H-123.812H-124.375H-124.938H-125.5H-126.062H-126.625H-127.188H-127.75H-128.312H-128.875H-129.438H-130H-130.562H-131.125H-131.688H-132.25H-132.812H-133.375H-133.938H-134.5H-135.062H-135.625H-136.188H-136.75H-137.312H-137.875H-138.438H-139L724.866 77.2398M1012.5 103.958V103.458H965C917 103.458 821 103.458 725 76.7581M1012.5 103.958H965H964.99C916.987 103.958 820.932 103.958 724.866 77.2398M725 76.7581L724.866 77.2398M725 76.7581L724.868 77.2403C724.867 77.2402 724.867 77.24 724.866 77.2398" stroke="url(#paint3_linear)"/>
<g style="mix-blend-mode:soft-light" opacity="0.2">
<path d="M-585 158.458L-537 131.758C-489 105.458 -393 51.4581 -297 57.1581C-201 62.4581 -105 126.458 -9 121.158C87 115.458 183 41.4581 279 30.4581C375 19.4581 471 73.4581 567 99.7581C663 126.458 759 126.458 807 126.458H855V222.458H807C759 222.458 663 222.458 567 222.458C471 222.458 375 222.458 279 222.458C183 222.458 87 222.458 -9 222.458C-105 222.458 -201 222.458 -297 222.458C-393 222.458 -489 222.458 -537 222.458H-585V158.458Z" fill="url(#paint4_linear)"/>
</g>
<path d="M-297.028 57.6573L-297.03 57.6572C-390.73 52.0938 -484.469 103.514 -533.486 130.401C-534.6 131.012 -535.691 131.611 -536.758 132.196C-536.759 132.196 -536.759 132.196 -536.76 132.197L-584.757 158.895L-585 158.458V222.458H-537H-297H-9H279H567H807H854.5V221.958M-297.028 57.6573L-9 121.158C40.9376 118.193 90.8751 96.7467 140.813 75.3004C186.875 55.5182 232.938 35.7361 279 30.4581C346.314 22.7451 413.628 46.9901 480.942 71.2351C509.628 81.5672 538.314 91.8993 567 99.7581M-297.028 57.6573C-253.074 60.084 -209.113 74.8376 -165.074 89.6175C-161.103 90.9503 -157.131 92.2833 -153.158 93.6075C-105.166 109.605 -57.0803 124.313 -8.97241 121.657L-8.97034 121.657C39.1311 118.801 87.2107 98.8368 135.197 78.2551C137.126 77.4279 139.055 76.5996 140.983 75.7714C187.069 55.9796 233.07 36.2243 279.057 30.9549C326.949 25.4672 374.867 36.1906 422.847 51.5967C442.152 57.7954 461.456 64.7481 480.769 71.7044C485.456 73.3925 490.143 75.0808 494.832 76.7586C518.832 85.3479 542.847 93.6595 566.866 100.24M-297.028 57.6573L566.866 100.24M854.5 221.958H855V126.958H854.5M854.5 221.958V126.958M854.5 221.958H807H806.718H806.435H806.151H805.866H805.58H805.293H805.005H804.715H804.425H804.133H803.84H803.547H803.252H802.956H802.659H802.361H802.062H801.762H801.46H801.158H800.855H800.55H800.245H799.938H799.631H799.322H799.013H798.702H798.391H798.078H797.764H797.449H797.133H796.817H796.499H796.18H795.86H795.539H795.217H794.894H794.57H794.245H793.919H793.592H793.264H792.935H792.605H792.274H791.942H791.609H791.275H790.94H790.604H790.267H789.929H789.59H789.25H788.909H788.568H788.225H787.881H787.536H787.19H786.844H786.496H786.147H785.798H785.447H785.096H784.744H784.39H784.036H783.681H783.324H782.967H782.609H782.25H781.89H781.529H781.167H780.805H780.441H780.077H779.711H779.345H778.977H778.609H778.24H777.87H777.499H777.127H776.754H776.38H776.006H775.63H775.254H774.877H774.498H774.119H773.74H773.359H772.977H772.594H772.211H771.827H771.441H771.055H770.668H770.281H769.892H769.502H769.112H768.721H768.328H767.935H767.542H767.147H766.751H766.355H765.958H765.56H765.161H764.761H764.361H763.959H763.557H763.154H762.75H762.345H761.94H761.533H761.126H760.718H760.309H759.9H759.49H759.078H758.666H758.253H757.84H757.425H757.01H756.594H756.177H755.76H755.341H754.922H754.502H754.081H753.66H753.238H752.814H752.391H751.966H751.541H751.115H750.688H750.26H749.832H749.402H748.972H748.542H748.11H747.678H747.245H746.811H746.377H745.942H745.506H745.069H744.632H744.194H743.755H743.315H742.875H742.434H741.992H741.55H741.107H740.663H740.218H739.773H739.327H738.88H738.433H737.985H737.536H737.086H736.636H736.185H735.734H735.281H734.828H734.375H733.92H733.465H733.01H732.553H732.096H731.638H731.18H730.721H730.261H729.801H729.34H728.878H728.416H727.953H727.489H727.025H726.56H726.094H725.628H725.161H724.693H724.225H723.756H723.287H722.817H722.346H721.875H721.403H720.93H720.457H719.983H719.509H719.034H718.558H718.082H717.605H717.127H716.649H716.171H715.691H715.212H714.731H714.25H713.768H713.286H712.803H712.32H711.836H711.351H710.866H710.38H709.894H709.407H708.92H708.432H707.943H707.454H706.964H706.474H705.983H705.492H705H704.508H704.015H703.521H703.027H702.532H702.037H701.541H701.045H700.548H700.051H699.553H699.055H698.556H698.057H697.557H697.056H696.555H696.054H695.552H695.049H694.546H694.043H693.539H693.034H692.529H692.024H691.518H691.011H690.504H689.997H689.489H688.98H688.472H687.962H687.452H686.942H686.431H685.92H685.408H684.896H684.383H683.87H683.357H682.843H682.328H681.813H681.298H680.782H680.265H679.749H679.231H678.714H678.196H677.677H677.158H676.639H676.119H675.599H675.078H674.557H674.036H673.514H672.991H672.469H671.946H671.422H670.898H670.374H669.849H669.324H668.798H668.272H667.746H667.219H666.692H666.164H665.636H665.108H664.579H664.05H663.521H662.991H662.461H661.93H661.399H660.868H660.336H659.804H659.272H658.739H658.206H657.672H657.139H656.604H656.07H655.535H655H654.464H653.928H653.392H652.856H652.319H651.782H651.244H650.706H650.168H649.63H649.091H648.552H648.012H647.472H646.932H646.392H645.851H645.31H644.769H644.227H643.685H643.143H642.6H642.058H641.515H640.971H640.427H639.884H639.339H638.795H638.25H637.705H637.16H636.614H636.068H635.522H634.976H634.429H633.882H633.335H632.787H632.24H631.692H631.144H630.595H630.047H629.498H628.948H628.399H627.849H627.299H626.749H626.199H625.649H625.098H624.547H623.995H623.444H622.892H622.34H621.788H621.236H620.684H620.131H619.578H619.025H618.472H617.918H617.364H616.81H616.256H615.702H615.148H614.593H614.038H613.483H612.928H612.372H611.817H611.261H610.705H610.149H609.593H609.037H608.48H607.923H607.366H606.809H606.252H605.695H605.138H604.58H604.022H603.464H602.906H602.348H601.79H601.231H600.673H600.114H599.555H598.996H598.437H597.878H597.319H596.759H596.2H595.64H595.08H594.52H593.96H593.4H592.84H592.28H591.719H591.159H590.599H590.038H589.477H588.916H588.355H587.794H587.233H586.672H586.111H585.55H584.988H584.427H583.865H583.304H582.742H582.18H581.619H581.057H580.495H579.933H579.371H578.809H578.247H577.685H577.123H576.561H575.999H575.436H574.874H574.312H573.749H573.187H572.625H572.062H571.5H570.937H570.375H569.812H569.25H568.688H568.125H567.562H567H566.438H565.875H565.312H564.75H564.188H563.625H563.062H562.5H561.938H561.375H560.812H560.25H559.688H559.125H558.562H558H557.438H556.875H556.312H555.75H555.188H554.625H554.062H553.5H552.938H552.375H551.812H551.25H550.688H550.125H549.562H549H548.438H547.875H547.312H546.75H546.188H545.625H545.062H544.5H543.938H543.375H542.812H542.25H541.688H541.125H540.562H540H539.438H538.875H538.312H537.75H537.188H536.625H536.062H535.5H534.938H534.375H533.812H533.25H532.688H532.125H531.562H531H530.438H529.875H529.312H528.75H528.188H527.625H527.062H526.5H525.938H525.375H524.812H524.25H523.688H523.125H522.562H522H521.438H520.875H520.312H519.75H519.188H518.625H518.062H517.5H516.938H516.375H515.812H515.25H514.688H514.125H513.562H513H512.438H511.875H511.312H510.75H510.188H509.625H509.062H508.5H507.938H507.375H506.812H506.25H505.688H505.125H504.562H504H503.438H502.875H502.312H501.75H501.188H500.625H500.062H499.5H498.938H498.375H497.812H497.25H496.688H496.125H495.562H495H494.438H493.875H493.312H492.75H492.188H491.625H491.062H490.5H489.938H489.375H488.812H488.25H487.688H487.125H486.562H486H485.438H484.875H484.312H483.75H483.188H482.625H482.062H481.5H480.938H480.375H479.812H479.25H478.688H478.125H477.562H477H476.438H475.875H475.312H474.75H474.188H473.625H473.062H472.5H471.938H471.375H470.812H470.25H469.688H469.125H468.562H468H467.438H466.875H466.312H465.75H465.188H464.625H464.062H463.5H462.938H462.375H461.812H461.25H460.688H460.125H459.562H459H458.438H457.875H457.312H456.75H456.188H455.625H455.062H454.5H453.938H453.375H452.812H452.25H451.688H451.125H450.562H450H449.438H448.875H448.312H447.75H447.188H446.625H446.062H445.5H444.938H444.375H443.812H443.25H442.688H442.125H441.562H441H440.438H439.875H439.312H438.75H438.188H437.625H437.062H436.5H435.938H435.375H434.812H434.25H433.688H433.125H432.562H432H431.438H430.875H430.312H429.75H429.188H428.625H428.062H427.5H426.938H426.375H425.812H425.25H424.688H424.125H423.562H423H422.438H421.875H421.312H420.75H420.188H419.625H419.062H418.5H417.938H417.375H416.812H416.25H415.688H415.125H414.562H414H413.438H412.875H412.312H411.75H411.188H410.625H410.062H409.5H408.938H408.375H407.812H407.25H406.688H406.125H405.562H405H404.438H403.875H403.312H402.75H402.188H401.625H401.062H400.5H399.938H399.375H398.812H398.25H397.688H397.125H396.562H396H395.438H394.875H394.312H393.75H393.188H392.625H392.062H391.5H390.938H390.375H389.812H389.25H388.688H388.125H387.562H387H386.438H385.875H385.312H384.75H384.188H383.625H383.062H382.5H381.938H381.375H380.812H380.25H379.688H379.125H378.562H378H377.438H376.875H376.312H375.75H375.188H374.625H374.062H373.5H372.938H372.375H371.812H371.25H370.688H370.125H369.562H369H368.438H367.875H367.312H366.75H366.188H365.625H365.062H364.5H363.938H363.375H362.812H362.25H361.688H361.125H360.562H360H359.438H358.875H358.312H357.75H357.188H356.625H356.062H355.5H354.938H354.375H353.812H353.25H352.688H352.125H351.562H351H350.438H349.875H349.312H348.75H348.188H347.625H347.062H346.5H345.938H345.375H344.812H344.25H343.688H343.125H342.562H342H341.438H340.875H340.312H339.75H339.188H338.625H338.062H337.5H336.938H336.375H335.812H335.25H334.688H334.125H333.562H333H332.438H331.875H331.312H330.75H330.188H329.625H329.062H328.5H327.938H327.375H326.812H326.25H325.688H325.125H324.562H324H323.438H322.875H322.312H321.75H321.188H320.625H320.062H319.5H318.938H318.375H317.812H317.25H316.688H316.125H315.562H315H314.438H313.875H313.312H312.75H312.188H311.625H311.062H310.5H309.938H309.375H308.812H308.25H307.688H307.125H306.562H306H305.438H304.875H304.312H303.75H303.188H302.625H302.062H301.5H300.938H300.375H299.812H299.25H298.688H298.125H297.562H297H296.438H295.875H295.312H294.75H294.188H293.625H293.062H292.5H291.938H291.375H290.812H290.25H289.688H289.125H288.562H288H287.438H286.875H286.312H285.75H285.188H284.625H284.062H283.5H282.938H282.375H281.812H281.25H280.688H280.125H279.562H279H278.438H277.875H277.312H276.75H276.188H275.625H275.062H274.5H273.938H273.375H272.812H272.25H271.688H271.125H270.562H270H269.438H268.875H268.312H267.75H267.188H266.625H266.062H265.5H264.938H264.375H263.812H263.25H262.688H262.125H261.562H261H260.438H259.875H259.312H258.75H258.188H257.625H257.062H256.5H255.938H255.375H254.812H254.25H253.688H253.125H252.562H252H251.438H250.875H250.312H249.75H249.188H248.625H248.062H247.5H246.938H246.375H245.812H245.25H244.688H244.125H243.562H243H242.438H241.875H241.312H240.75H240.188H239.625H239.062H238.5H237.938H237.375H236.812H236.25H235.688H235.125H234.562H234H233.438H232.875H232.312H231.75H231.188H230.625H230.062H229.5H228.938H228.375H227.812H227.25H226.688H226.125H225.562H225H224.438H223.875H223.312H222.75H222.188H221.625H221.062H220.5H219.938H219.375H218.812H218.25H217.688H217.125H216.562H216H215.438H214.875H214.312H213.75H213.188H212.625H212.062H211.5H210.938H210.375H209.812H209.25H208.688H208.125H207.562H207H206.438H205.875H205.312H204.75H204.188H203.625H203.062H202.5H201.938H201.375H200.812H200.25H199.688H199.125H198.562H198H197.438H196.875H196.312H195.75H195.188H194.625H194.062H193.5H192.938H192.375H191.812H191.25H190.688H190.125H189.562H189H188.438H187.875H187.312H186.75H186.188H185.625H185.062H184.5H183.938H183.375H182.812H182.25H181.688H181.125H180.562H180H179.438H178.875H178.312H177.75H177.188H176.625H176.062H175.5H174.938H174.375H173.812H173.25H172.688H172.125H171.562H171H170.438H169.875H169.312H168.75H168.188H167.625H167.062H166.5H165.938H165.375H164.812H164.25H163.688H163.125H162.562H162H161.438H160.875H160.312H159.75H159.188H158.625H158.062H157.5H156.938H156.375H155.812H155.25H154.688H154.125H153.562H153H152.438H151.875H151.312H150.75H150.188H149.625H149.062H148.5H147.938H147.375H146.812H146.25H145.688H145.125H144.562H144H143.438H142.875H142.312H141.75H141.188H140.625H140.062H139.5H138.938H138.375H137.812H137.25H136.688H136.125H135.562H135H134.438H133.875H133.312H132.75H132.188H131.625H131.062H130.5H129.938H129.375H128.812H128.25H127.688H127.125H126.562H126H125.438H124.875H124.312H123.75H123.188H122.625H122.062H121.5H120.938H120.375H119.812H119.25H118.688H118.125H117.562H117H116.438H115.875H115.312H114.75H114.188H113.625H113.062H112.5H111.938H111.375H110.812H110.25H109.688H109.125H108.562H108H107.438H106.875H106.312H105.75H105.188H104.625H104.062H103.5H102.938H102.375H101.812H101.25H100.688H100.125H99.5625H99H98.4375H97.875H97.3125H96.75H96.1875H95.625H95.0625H94.5H93.9375H93.375H92.8125H92.25H91.6875H91.125H90.5625H90H89.4375H88.875H88.3125H87.75H87.1875H86.625H86.0625H85.5H84.9375H84.375H83.8125H83.25H82.6875H82.125H81.5625H81H80.4375H79.875H79.3125H78.75H78.1875H77.625H77.0625H76.5H75.9375H75.375H74.8125H74.25H73.6875H73.125H72.5625H72H71.4375H70.875H70.3125H69.75H69.1875H68.625H68.0625H67.5H66.9375H66.375H65.8125H65.25H64.6875H64.125H63.5625H63H62.4375H61.875H61.3125H60.75H60.1875H59.625H59.0625H58.5H57.9375H57.375H56.8125H56.25H55.6875H55.125H54.5625H54H53.4375H52.875H52.3125H51.75H51.1875H50.625H50.0625H49.5H48.9375H48.375H47.8125H47.25H46.6875H46.125H45.5625H45H44.4375H43.875H43.3125H42.75H42.1875H41.625H41.0625H40.5H39.9375H39.375H38.8125H38.25H37.6875H37.125H36.5625H36H35.4375H34.875H34.3125H33.75H33.1875H32.625H32.0625H31.5H30.9375H30.375H29.8125H29.25H28.6875H28.125H27.5625H27H26.4375H25.875H25.3125H24.75H24.1875H23.625H23.0625H22.5H21.9375H21.375H20.8125H20.25H19.6875H19.125H18.5625H18H17.4375H16.875H16.3125H15.75H15.1875H14.625H14.0625H13.5H12.9375H12.375H11.8125H11.25H10.6875H10.125H9.5625H9H8.4375H7.875H7.3125H6.75H6.1875H5.625H5.0625H4.5H3.9375H3.375H2.8125H2.25H1.6875H1.125H0.5625H0H-0.5625H-1.125H-1.6875H-2.25H-2.8125H-3.375H-3.9375H-4.5H-5.0625H-5.625H-6.1875H-6.75H-7.3125H-7.875H-8.4375H-9H-9.5625H-10.125H-10.6875H-11.25H-11.8125H-12.375H-12.9375H-13.5H-14.0625H-14.625H-15.1875H-15.75H-16.3125H-16.875H-17.4375H-18H-18.5625H-19.125H-19.6875H-20.25H-20.8125H-21.375H-21.9375H-22.5H-23.0625H-23.625H-24.1875H-24.75H-25.3125H-25.875H-26.4375H-27H-27.5625H-28.125H-28.6875H-29.25H-29.8125H-30.375H-30.9375H-31.5H-32.0625H-32.625H-33.1875H-33.75H-34.3125H-34.875H-35.4375H-36H-36.5625H-37.125H-37.6875H-38.25H-38.8125H-39.375H-39.9375H-40.5H-41.0625H-41.625H-42.1875H-42.75H-43.3125H-43.875H-44.4375H-45H-45.5625H-46.125H-46.6875H-47.25H-47.8125H-48.375H-48.9375H-49.5H-50.0625H-50.625H-51.1875H-51.75H-52.3125H-52.875H-53.4375H-54H-54.5625H-55.125H-55.6875H-56.25H-56.8125H-57.375H-57.9375H-58.5H-59.0625H-59.625H-60.1875H-60.75H-61.3125H-61.875H-62.4375H-63H-63.5625H-64.125H-64.6875H-65.25H-65.8125H-66.375H-66.9375H-67.5H-68.0625H-68.625H-69.1875H-69.75H-70.3125H-70.875H-71.4375H-72H-72.5625H-73.125H-73.6875H-74.25H-74.8125H-75.375H-75.9375H-76.5H-77.0625H-77.625H-78.1875H-78.75H-79.3125H-79.875H-80.4375H-81H-81.5625H-82.125H-82.6875H-83.25H-83.8125H-84.375H-84.9375H-85.5H-86.0625H-86.625H-87.1875H-87.75H-88.3125H-88.875H-89.4375H-90H-90.5625H-91.125H-91.6875H-92.25H-92.8125H-93.375H-93.9375H-94.5H-95.0625H-95.625H-96.1875H-96.75H-97.3125H-97.875H-98.4375H-99H-99.5625H-100.125H-100.688H-101.25H-101.812H-102.375H-102.938H-103.5H-104.062H-104.625H-105.188H-105.75H-106.312H-106.875H-107.438H-108H-108.562H-109.125H-109.688H-110.25H-110.812H-111.375H-111.938H-112.5H-113.062H-113.625H-114.188H-114.75H-115.312H-115.875H-116.438H-117H-117.562H-118.125H-118.688H-119.25H-119.812H-120.375H-120.938H-121.5H-122.062H-122.625H-123.188H-123.75H-124.312H-124.875H-125.438H-126H-126.562H-127.125H-127.688H-128.25H-128.812H-129.375H-129.938H-130.5H-131.062H-131.625H-132.188H-132.75H-133.312H-133.875H-134.438H-135H-135.562H-136.125H-136.688H-137.25H-137.812H-138.375H-138.938H-139.5H-140.062H-140.625H-141.188H-141.75H-142.312H-142.875H-143.438H-144H-144.562H-145.125H-145.688H-146.25H-146.812H-147.375H-147.938H-148.5H-149.062H-149.625H-150.188H-150.75H-151.312H-151.875H-152.438H-153H-153.562H-154.125H-154.688H-155.25H-155.812H-156.375H-156.938H-157.5H-158.062H-158.625H-159.188H-159.75H-160.312H-160.875H-161.438H-162H-162.562H-163.125H-163.688H-164.25H-164.812H-165.375H-165.938H-166.5H-167.062H-167.625H-168.188H-168.75H-169.312H-169.875H-170.438H-171H-171.562H-172.125H-172.688H-173.25H-173.812H-174.375H-174.938H-175.5H-176.062H-176.625H-177.188H-177.75H-178.312H-178.875H-179.438H-180H-180.562H-181.125H-181.688H-182.25H-182.812H-183.375H-183.938H-184.5H-185.062H-185.625H-186.188H-186.75H-187.312H-187.875H-188.438H-189H-189.562H-190.125H-190.688H-191.25H-191.812H-192.375H-192.938H-193.5H-194.062H-194.625H-195.188H-195.75H-196.312H-196.875H-197.438H-198H-198.562H-199.125H-199.688H-200.25H-200.812H-201.375H-201.938H-202.5H-203.062H-203.625H-204.188H-204.75H-205.312H-205.875H-206.438H-207H-207.562H-208.125H-208.688H-209.25H-209.812H-210.375H-210.938H-211.5H-212.062H-212.625H-213.188H-213.75H-214.312H-214.875H-215.438H-216H-216.562H-217.125H-217.688H-218.25H-218.812H-219.375H-219.938H-220.5H-221.062H-221.625H-222.188H-222.75H-223.312H-223.875H-224.438H-225H-225.562H-226.125H-226.688H-227.25H-227.812H-228.375H-228.938H-229.5H-230.062H-230.625H-231.188H-231.75H-232.312H-232.875H-233.438H-234H-234.562H-235.125H-235.688H-236.25H-236.812H-237.375H-237.938H-238.5H-239.062H-239.625H-240.188H-240.75H-241.312H-241.875H-242.438H-243H-243.562H-244.125H-244.688H-245.25H-245.812H-246.375H-246.938H-247.5H-248.062H-248.625H-249.188H-249.75H-250.312H-250.875H-251.438H-252H-252.562H-253.125H-253.688H-254.25H-254.812H-255.375H-255.938H-256.5H-257.062H-257.625H-258.188H-258.75H-259.312H-259.875H-260.438H-261H-261.562H-262.125H-262.688H-263.25H-263.812H-264.375H-264.938H-265.5H-266.062H-266.625H-267.188H-267.75H-268.312H-268.875H-269.438H-270H-270.562H-271.125H-271.688H-272.25H-272.812H-273.375H-273.938H-274.5H-275.062H-275.625H-276.188H-276.75H-277.312H-277.875H-278.438H-279H-279.562H-280.125H-280.688H-281.25H-281.812H-282.375H-282.938H-283.5H-284.062H-284.625H-285.188H-285.75H-286.312H-286.875H-287.438H-288H-288.562H-289.125H-289.688H-290.25H-290.812H-291.375H-291.938H-292.5H-293.062H-293.625H-294.188H-294.75H-295.312H-295.875H-296.438H-297L566.866 100.24M854.5 126.958V126.458H807C759 126.458 663 126.458 567 99.7581M854.5 126.958H807H806.99C758.987 126.958 662.932 126.958 566.866 100.24M567 99.7581L566.866 100.24M567 99.7581L566.868 100.24C566.867 100.24 566.867 100.24 566.866 100.24" stroke="url(#paint5_linear)"/>
</g>
</g>
<path opacity="0.5" d="M202 22C202 16.4772 206.477 12 212 12H232C237.523 12 242 16.4772 242 22V42C242 47.5228 237.523 52 232 52H212C206.477 52 202 47.5228 202 42V22Z" fill="url(#paint6_linear)"/>
<path opacity="0.5" d="M203.5 22C203.5 17.3056 207.306 13.5 212 13.5H232C236.694 13.5 240.5 17.3056 240.5 22V42C240.5 46.6944 236.694 50.5 232 50.5H212C207.306 50.5 203.5 46.6944 203.5 42V22Z" stroke="url(#paint7_linear)"/>
<path d="M216.15 30.2L217.475 28.875L216.15 27.55L217.475 26.225L220.125 28.875L217.475 31.525L216.15 30.2ZM212.625 28.25C212.662 28.25 212.687 28.2625 212.725 28.2625C213.471 26.413 214.752 24.8286 216.405 23.7127C218.057 22.5968 220.006 22.0004 222 22C224.737 22 227.2 23.1 229.012 24.875C229.2 24.125 229.575 23.2625 230.025 22.425C227.775 20.5319 224.928 19.4958 221.987 19.5C215.887 19.5 210.812 23.8875 209.725 29.675C210.425 28.8 211.487 28.25 212.625 28.25ZM233.25 30.125C232.725 30.125 232.225 30.0125 231.762 29.85C231.912 30.5375 232 31.2625 232 32C232 37.525 227.525 42 222 42C217.8 42 214.212 39.4125 212.725 35.7375C212.687 35.7375 212.662 35.75 212.625 35.75C211.975 35.75 211.325 35.575 210.75 35.25C210.35 35.025 210.012 34.725 209.725 34.375C210.837 40.1375 215.887 44.5 221.975 44.5C228.9 44.5 234.5 38.9 234.5 32C234.5 31.3125 234.425 30.6375 234.325 29.975C233.974 30.0694 233.613 30.1198 233.25 30.125ZM233.25 20.75C233.25 20.75 230.75 24.375 230.75 25.75C230.75 27.125 231.875 28.25 233.25 28.25C234.625 28.25 235.75 27.125 235.75 25.75C235.75 24.375 233.25 20.75 233.25 20.75ZM226.525 26.225L223.875 28.875L226.525 31.525L227.85 30.2L226.525 28.875L227.85 27.55L226.525 26.225ZM217.7 38.25C218.562 36.7625 220.162 35.75 222 35.75C223.837 35.75 225.437 36.7625 226.3 38.25H228.4C227.4 35.6875 224.912 33.875 222 33.875C220.912 33.875 219.875 34.125 218.962 34.5875L214.487 32C214.487 31.35 214.162 30.725 213.562 30.3875C212.662 29.875 211.525 30.175 211 31.075C210.487 31.975 210.787 33.1125 211.687 33.6375C212.287 33.9875 213 33.95 213.55 33.6375L217.262 35.7875C216.55 36.45 215.975 37.3 215.6 38.25H217.7Z" fill="url(#paint8_linear)"/>
<path d="M28.688 49.968C30.2 50.352 31.352 51.084 32.144 52.164C32.96 53.22 33.368 54.54 33.368 56.124C33.368 58.308 32.564 60.048 30.956 61.344C29.348 62.64 27.176 63.288 24.44 63.288C22.88 63.288 21.38 63.048 19.94 62.568C18.5 62.088 17.276 61.416 16.268 60.552C15.716 60.072 15.44 59.508 15.44 58.86C15.44 58.332 15.584 57.888 15.872 57.528C16.184 57.144 16.544 56.952 16.952 56.952C17.192 56.952 17.408 57 17.6 57.096C17.792 57.168 18.056 57.3 18.392 57.492C19.4 58.164 20.36 58.68 21.272 59.04C22.184 59.4 23.18 59.58 24.26 59.58C25.844 59.58 27.02 59.268 27.788 58.644C28.556 57.996 28.94 57.024 28.94 55.728C28.94 54.456 28.532 53.52 27.716 52.92C26.924 52.296 25.688 51.984 24.008 51.984H21.956C21.404 51.984 20.972 51.804 20.66 51.444C20.372 51.06 20.228 50.628 20.228 50.148C20.228 49.644 20.372 49.212 20.66 48.852C20.972 48.492 21.404 48.312 21.956 48.312H23.396C26.684 48.312 28.328 47.076 28.328 44.604C28.328 43.452 27.98 42.564 27.284 41.94C26.588 41.316 25.628 41.004 24.404 41.004C22.652 41.004 20.78 41.7 18.788 43.092C18.452 43.284 18.188 43.428 17.996 43.524C17.804 43.596 17.588 43.632 17.348 43.632C16.94 43.632 16.58 43.452 16.268 43.092C15.98 42.708 15.836 42.252 15.836 41.724C15.836 41.364 15.896 41.064 16.016 40.824C16.16 40.56 16.376 40.296 16.664 40.032C17.672 39.192 18.872 38.532 20.264 38.052C21.68 37.548 23.12 37.296 24.584 37.296C27.08 37.296 29.06 37.908 30.524 39.132C32.012 40.356 32.756 41.988 32.756 44.028C32.732 45.42 32.36 46.644 31.64 47.7C30.944 48.732 29.96 49.488 28.688 49.968ZM53.5139 59.256C54.9539 59.256 55.6739 59.868 55.6739 61.092C55.6739 62.364 54.9539 63 53.5139 63H39.8339C39.2099 63 38.7179 62.82 38.3579 62.46C37.9979 62.076 37.8179 61.608 37.8179 61.056C37.8179 60.336 38.0939 59.688 38.6459 59.112L46.8539 50.292C47.8619 49.188 48.5939 48.18 49.0499 47.268C49.5299 46.332 49.7699 45.408 49.7699 44.496C49.7699 43.368 49.4459 42.504 48.7979 41.904C48.1499 41.304 47.2259 41.004 46.0259 41.004C45.0419 41.004 44.0819 41.196 43.1459 41.58C42.2339 41.94 41.3099 42.444 40.3739 43.092C40.1339 43.26 39.8939 43.404 39.6539 43.524C39.4139 43.62 39.1739 43.668 38.9339 43.668C38.5259 43.668 38.1659 43.476 37.8539 43.092C37.5659 42.708 37.4219 42.252 37.4219 41.724C37.4219 41.364 37.4819 41.052 37.6019 40.788C37.7459 40.524 37.9619 40.272 38.2499 40.032C39.3059 39.192 40.5419 38.532 41.9579 38.052C43.3739 37.548 44.7899 37.296 46.2059 37.296C48.6779 37.296 50.6459 37.92 52.1099 39.168C53.5979 40.416 54.3419 42.096 54.3419 44.208C54.3419 45.672 54.0299 47.052 53.4059 48.348C52.7819 49.62 51.7259 51.048 50.2379 52.632L44.0099 59.256H53.5139ZM61.599 57.816C62.415 57.816 63.075 58.116 63.579 58.716C64.083 59.316 64.335 60.192 64.335 61.344C64.335 63.624 63.543 65.592 61.959 67.248C61.647 67.56 61.311 67.716 60.951 67.716C60.591 67.716 60.279 67.596 60.015 67.356C59.751 67.116 59.619 66.828 59.619 66.492C59.619 66.204 59.739 65.928 59.979 65.664C60.699 64.896 61.167 64.032 61.383 63.072C60.687 63 60.111 62.736 59.655 62.28C59.223 61.8 59.007 61.212 59.007 60.516C59.007 59.748 59.247 59.112 59.727 58.608C60.231 58.08 60.855 57.816 61.599 57.816ZM85.0367 54.432C85.7567 54.432 86.2967 54.588 86.6567 54.9C87.0167 55.212 87.1967 55.656 87.1967 56.232C87.1967 57.432 86.4767 58.032 85.0367 58.032H83.2007V60.876C83.2007 61.62 82.9847 62.196 82.5527 62.604C82.1447 63.012 81.6047 63.216 80.9327 63.216C80.2607 63.216 79.7087 63.012 79.2767 62.604C78.8687 62.196 78.6647 61.62 78.6647 60.876V58.032H69.2327C68.5847 58.032 68.0807 57.852 67.7207 57.492C67.3607 57.108 67.1807 56.64 67.1807 56.088C67.1807 55.512 67.3727 54.96 67.7567 54.432L78.8807 38.448C79.1207 38.112 79.4207 37.86 79.7807 37.692C80.1407 37.5 80.5127 37.404 80.8967 37.404C81.5207 37.404 82.0607 37.608 82.5167 38.016C82.9727 38.424 83.2007 39 83.2007 39.744V54.432H85.0367ZM78.6647 54.432V44.748L71.9687 54.432H78.6647ZM103.383 49.968C104.871 50.376 106.011 51.12 106.803 52.2C107.619 53.28 108.027 54.6 108.027 56.16C108.027 58.392 107.187 60.144 105.507 61.416C103.827 62.664 101.499 63.288 98.5227 63.288C95.5467 63.288 93.2187 62.664 91.5387 61.416C89.8587 60.144 89.0187 58.392 89.0187 56.16C89.0187 54.6 89.4267 53.28 90.2427 52.2C91.0587 51.096 92.2107 50.352 93.6987 49.968C92.4267 49.488 91.4307 48.744 90.7107 47.736C89.9907 46.704 89.6307 45.504 89.6307 44.136C89.6307 42.024 90.4227 40.356 92.0067 39.132C93.5907 37.908 95.7627 37.296 98.5227 37.296C101.283 37.296 103.455 37.908 105.039 39.132C106.623 40.356 107.415 42.024 107.415 44.136C107.415 45.528 107.055 46.74 106.335 47.772C105.615 48.804 104.631 49.536 103.383 49.968ZM98.5227 40.932C95.5227 40.932 94.0227 42.156 94.0227 44.604C94.0227 45.828 94.3947 46.764 95.1387 47.412C95.9067 48.036 97.0347 48.348 98.5227 48.348C100.011 48.348 101.127 48.036 101.871 47.412C102.639 46.764 103.023 45.828 103.023 44.604C103.023 42.156 101.523 40.932 98.5227 40.932ZM98.5227 59.652C101.955 59.652 103.671 58.368 103.671 55.8C103.671 53.232 101.955 51.948 98.5227 51.948C95.0907 51.948 93.3747 53.232 93.3747 55.8C93.3747 58.368 95.0907 59.652 98.5227 59.652ZM127.237 59.256C128.677 59.256 129.397 59.868 129.397 61.092C129.397 62.364 128.677 63 127.237 63H113.557C112.933 63 112.441 62.82 112.081 62.46C111.721 62.076 111.541 61.608 111.541 61.056C111.541 60.336 111.817 59.688 112.369 59.112L120.577 50.292C121.585 49.188 122.317 48.18 122.773 47.268C123.253 46.332 123.493 45.408 123.493 44.496C123.493 43.368 123.169 42.504 122.521 41.904C121.873 41.304 120.949 41.004 119.749 41.004C118.765 41.004 117.805 41.196 116.869 41.58C115.957 41.94 115.033 42.444 114.097 43.092C113.857 43.26 113.617 43.404 113.377 43.524C113.137 43.62 112.897 43.668 112.657 43.668C112.249 43.668 111.889 43.476 111.577 43.092C111.289 42.708 111.145 42.252 111.145 41.724C111.145 41.364 111.205 41.052 111.325 40.788C111.469 40.524 111.685 40.272 111.973 40.032C113.029 39.192 114.265 38.532 115.681 38.052C117.097 37.548 118.513 37.296 119.929 37.296C122.401 37.296 124.369 37.92 125.833 39.168C127.321 40.416 128.065 42.096 128.065 44.208C128.065 45.672 127.753 47.052 127.129 48.348C126.505 49.62 125.449 51.048 123.961 52.632L117.733 59.256H127.237Z" fill="white"/>
<path opacity="0.8" d="M17.684 24.06C17.444 24.06 17.252 23.992 17.108 23.856C16.972 23.712 16.904 23.524 16.904 23.292V16.812H14.72C14.24 16.812 14 16.6 14 16.176C14 15.752 14.24 15.54 14.72 15.54H20.636C21.116 15.54 21.356 15.752 21.356 16.176C21.356 16.6 21.116 16.812 20.636 16.812H18.452V23.292C18.452 23.524 18.38 23.712 18.236 23.856C18.1 23.992 17.916 24.06 17.684 24.06ZM23.8779 24.096C23.2779 24.096 22.7499 23.972 22.2939 23.724C21.8459 23.476 21.4979 23.12 21.2499 22.656C21.0019 22.192 20.8779 21.652 20.8779 21.036C20.8779 20.42 21.0019 19.884 21.2499 19.428C21.4979 18.964 21.8459 18.608 22.2939 18.36C22.7499 18.112 23.2779 17.988 23.8779 17.988C24.4779 17.988 25.0019 18.112 25.4499 18.36C25.9059 18.608 26.2539 18.964 26.4939 19.428C26.7419 19.884 26.8659 20.42 26.8659 21.036C26.8659 21.652 26.7419 22.192 26.4939 22.656C26.2539 23.12 25.9059 23.476 25.4499 23.724C25.0019 23.972 24.4779 24.096 23.8779 24.096ZM23.8659 22.932C24.3539 22.932 24.7259 22.772 24.9819 22.452C25.2379 22.132 25.3659 21.66 25.3659 21.036C25.3659 20.42 25.2379 19.952 24.9819 19.632C24.7259 19.304 24.3579 19.14 23.8779 19.14C23.3979 19.14 23.0259 19.304 22.7619 19.632C22.5059 19.952 22.3779 20.42 22.3779 21.036C22.3779 21.66 22.5059 22.132 22.7619 22.452C23.0179 22.772 23.3859 22.932 23.8659 22.932ZM31.1171 22.956C31.5171 22.98 31.7171 23.16 31.7171 23.496C31.7171 23.688 31.6371 23.836 31.4771 23.94C31.3251 24.036 31.1051 24.076 30.8171 24.06L30.4931 24.036C29.1491 23.94 28.4771 23.22 28.4771 21.876V19.26H27.8771C27.6611 19.26 27.4931 19.212 27.3731 19.116C27.2611 19.02 27.2051 18.88 27.2051 18.696C27.2051 18.512 27.2611 18.372 27.3731 18.276C27.4931 18.18 27.6611 18.132 27.8771 18.132H28.4771V17.028C28.4771 16.812 28.5451 16.64 28.6811 16.512C28.8171 16.384 29.0011 16.32 29.2331 16.32C29.4571 16.32 29.6371 16.384 29.7731 16.512C29.9091 16.64 29.9771 16.812 29.9771 17.028V18.132H30.9971C31.2131 18.132 31.3771 18.18 31.4891 18.276C31.6091 18.372 31.6691 18.512 31.6691 18.696C31.6691 18.88 31.6091 19.02 31.4891 19.116C31.3771 19.212 31.2131 19.26 30.9971 19.26H29.9771V21.984C29.9771 22.576 30.2491 22.892 30.7931 22.932L31.1171 22.956ZM35.0428 17.988C35.8588 17.988 36.4628 18.192 36.8548 18.6C37.2548 19 37.4548 19.612 37.4548 20.436V23.364C37.4548 23.58 37.3908 23.752 37.2628 23.88C37.1348 24 36.9588 24.06 36.7348 24.06C36.5268 24.06 36.3548 23.996 36.2188 23.868C36.0908 23.74 36.0268 23.572 36.0268 23.364V23.1C35.8908 23.412 35.6748 23.656 35.3788 23.832C35.0908 24.008 34.7548 24.096 34.3708 24.096C33.9788 24.096 33.6228 24.016 33.3027 23.856C32.9828 23.696 32.7308 23.476 32.5468 23.196C32.3628 22.916 32.2708 22.604 32.2708 22.26C32.2708 21.828 32.3788 21.488 32.5948 21.24C32.8188 20.992 33.1788 20.812 33.6748 20.7C34.1708 20.588 34.8548 20.532 35.7268 20.532H36.0268V20.256C36.0268 19.864 35.9428 19.58 35.7748 19.404C35.6068 19.22 35.3348 19.128 34.9588 19.128C34.7268 19.128 34.4908 19.164 34.2508 19.236C34.0108 19.3 33.7268 19.396 33.3988 19.524C33.1908 19.628 33.0388 19.68 32.9428 19.68C32.7988 19.68 32.6788 19.628 32.5828 19.524C32.4948 19.42 32.4508 19.284 32.4508 19.116C32.4508 18.98 32.4828 18.864 32.5468 18.768C32.6188 18.664 32.7348 18.568 32.8948 18.48C33.1748 18.328 33.5068 18.208 33.8908 18.12C34.2828 18.032 34.6668 17.988 35.0428 17.988ZM34.6708 23.016C35.0708 23.016 35.3948 22.884 35.6428 22.62C35.8988 22.348 36.0268 22 36.0268 21.576V21.324H35.8108C35.2748 21.324 34.8588 21.348 34.5628 21.396C34.2668 21.444 34.0548 21.528 33.9268 21.648C33.7988 21.768 33.7348 21.932 33.7348 22.14C33.7348 22.396 33.8228 22.608 33.9988 22.776C34.1828 22.936 34.4068 23.016 34.6708 23.016ZM39.7232 24.072C39.5072 24.072 39.3272 24.012 39.1832 23.892C39.0472 23.764 38.9792 23.584 38.9792 23.352V16.188C38.9792 15.956 39.0472 15.78 39.1832 15.66C39.3272 15.54 39.5072 15.48 39.7232 15.48C39.9392 15.48 40.1192 15.54 40.2632 15.66C40.4072 15.78 40.4792 15.956 40.4792 16.188V23.352C40.4792 23.584 40.4072 23.764 40.2632 23.892C40.1192 24.012 39.9392 24.072 39.7232 24.072ZM46.1839 24.072C45.9519 24.072 45.7639 24.004 45.6199 23.868C45.4839 23.724 45.4159 23.532 45.4159 23.292V16.272C45.4159 16.04 45.4799 15.86 45.6079 15.732C45.7439 15.604 45.9279 15.54 46.1599 15.54H49.1119C50.0159 15.54 50.7199 15.768 51.2239 16.224C51.7279 16.672 51.9799 17.304 51.9799 18.12C51.9799 18.936 51.7279 19.572 51.2239 20.028C50.7199 20.484 50.0159 20.712 49.1119 20.712H46.9639V23.292C46.9639 23.532 46.8919 23.724 46.7479 23.868C46.6119 24.004 46.4239 24.072 46.1839 24.072ZM48.9199 19.524C49.9839 19.524 50.5159 19.06 50.5159 18.132C50.5159 17.204 49.9839 16.74 48.9199 16.74H46.9639V19.524H48.9199ZM55.5974 17.988C56.4134 17.988 57.0174 18.192 57.4094 18.6C57.8094 19 58.0094 19.612 58.0094 20.436V23.364C58.0094 23.58 57.9454 23.752 57.8174 23.88C57.6894 24 57.5134 24.06 57.2894 24.06C57.0814 24.06 56.9094 23.996 56.7734 23.868C56.6454 23.74 56.5814 23.572 56.5814 23.364V23.1C56.4454 23.412 56.2294 23.656 55.9334 23.832C55.6454 24.008 55.3094 24.096 54.9254 24.096C54.5334 24.096 54.1774 24.016 53.8574 23.856C53.5374 23.696 53.2854 23.476 53.1014 23.196C52.9174 22.916 52.8254 22.604 52.8254 22.26C52.8254 21.828 52.9334 21.488 53.1494 21.24C53.3734 20.992 53.7334 20.812 54.2294 20.7C54.7254 20.588 55.4094 20.532 56.2814 20.532H56.5814V20.256C56.5814 19.864 56.4974 19.58 56.3294 19.404C56.1614 19.22 55.8894 19.128 55.5134 19.128C55.2814 19.128 55.0454 19.164 54.8054 19.236C54.5654 19.3 54.2814 19.396 53.9534 19.524C53.7454 19.628 53.5934 19.68 53.4974 19.68C53.3534 19.68 53.2334 19.628 53.1374 19.524C53.0494 19.42 53.0054 19.284 53.0054 19.116C53.0054 18.98 53.0374 18.864 53.1014 18.768C53.1734 18.664 53.2894 18.568 53.4494 18.48C53.7294 18.328 54.0614 18.208 54.4454 18.12C54.8374 18.032 55.2214 17.988 55.5974 17.988ZM55.2254 23.016C55.6254 23.016 55.9494 22.884 56.1974 22.62C56.4534 22.348 56.5814 22 56.5814 21.576V21.324H56.3654C55.8294 21.324 55.4134 21.348 55.1174 21.396C54.8214 21.444 54.6094 21.528 54.4814 21.648C54.3534 21.768 54.2894 21.932 54.2894 22.14C54.2894 22.396 54.3774 22.608 54.5534 22.776C54.7374 22.936 54.9614 23.016 55.2254 23.016ZM62.5819 22.956C62.9819 22.98 63.1819 23.16 63.1819 23.496C63.1819 23.688 63.1019 23.836 62.9419 23.94C62.7899 24.036 62.5699 24.076 62.2819 24.06L61.9579 24.036C60.6139 23.94 59.9419 23.22 59.9419 21.876V19.26H59.3419C59.1259 19.26 58.9579 19.212 58.8379 19.116C58.7259 19.02 58.6699 18.88 58.6699 18.696C58.6699 18.512 58.7259 18.372 58.8379 18.276C58.9579 18.18 59.1259 18.132 59.3419 18.132H59.9419V17.028C59.9419 16.812 60.0099 16.64 60.1459 16.512C60.2819 16.384 60.4659 16.32 60.6979 16.32C60.9219 16.32 61.1019 16.384 61.2379 16.512C61.3739 16.64 61.4419 16.812 61.4419 17.028V18.132H62.4619C62.6779 18.132 62.8419 18.18 62.9539 18.276C63.0739 18.372 63.1339 18.512 63.1339 18.696C63.1339 18.88 63.0739 19.02 62.9539 19.116C62.8419 19.212 62.6779 19.26 62.4619 19.26H61.4419V21.984C61.4419 22.576 61.7139 22.892 62.2579 22.932L62.5819 22.956ZM64.7076 24.072C64.4916 24.072 64.3116 24.012 64.1676 23.892C64.0316 23.764 63.9636 23.584 63.9636 23.352V18.72C63.9636 18.488 64.0316 18.312 64.1676 18.192C64.3116 18.072 64.4916 18.012 64.7076 18.012C64.9236 18.012 65.1036 18.072 65.2476 18.192C65.3916 18.312 65.4636 18.488 65.4636 18.72V23.352C65.4636 23.584 65.3916 23.764 65.2476 23.892C65.1036 24.012 64.9236 24.072 64.7076 24.072ZM64.7076 16.944C64.4356 16.944 64.2196 16.872 64.0596 16.728C63.8996 16.576 63.8196 16.38 63.8196 16.14C63.8196 15.9 63.8996 15.708 64.0596 15.564C64.2196 15.42 64.4356 15.348 64.7076 15.348C64.9716 15.348 65.1836 15.42 65.3436 15.564C65.5116 15.708 65.5956 15.9 65.5956 16.14C65.5956 16.38 65.5156 16.576 65.3556 16.728C65.1956 16.872 64.9796 16.944 64.7076 16.944ZM71.6545 22.392C71.7905 22.392 71.8985 22.444 71.9785 22.548C72.0665 22.652 72.1105 22.792 72.1105 22.968C72.1105 23.216 71.9625 23.424 71.6665 23.592C71.3945 23.744 71.0865 23.868 70.7425 23.964C70.3985 24.052 70.0705 24.096 69.7585 24.096C68.8145 24.096 68.0665 23.824 67.5145 23.28C66.9625 22.736 66.6865 21.992 66.6865 21.048C66.6865 20.448 66.8065 19.916 67.0465 19.452C67.2865 18.988 67.6225 18.628 68.0545 18.372C68.4945 18.116 68.9905 17.988 69.5425 17.988C70.0705 17.988 70.5305 18.104 70.9225 18.336C71.3145 18.568 71.6185 18.896 71.8345 19.32C72.0505 19.744 72.1585 20.244 72.1585 20.82C72.1585 21.164 72.0065 21.336 71.7025 21.336H68.1625C68.2105 21.888 68.3665 22.296 68.6305 22.56C68.8945 22.816 69.2785 22.944 69.7825 22.944C70.0385 22.944 70.2625 22.912 70.4545 22.848C70.6545 22.784 70.8785 22.696 71.1265 22.584C71.3665 22.456 71.5425 22.392 71.6545 22.392ZM69.5785 19.044C69.1705 19.044 68.8425 19.172 68.5945 19.428C68.3545 19.684 68.2105 20.052 68.1625 20.532H70.8745C70.8585 20.044 70.7385 19.676 70.5145 19.428C70.2905 19.172 69.9785 19.044 69.5785 19.044ZM76.7935 17.988C77.4975 17.988 78.0215 18.188 78.3655 18.588C78.7095 18.988 78.8815 19.592 78.8815 20.4V23.352C78.8815 23.576 78.8135 23.752 78.6775 23.88C78.5495 24.008 78.3695 24.072 78.1375 24.072C77.9055 24.072 77.7215 24.008 77.5855 23.88C77.4495 23.752 77.3815 23.576 77.3815 23.352V20.484C77.3815 20.028 77.2935 19.696 77.1175 19.488C76.9495 19.28 76.6815 19.176 76.3135 19.176C75.8815 19.176 75.5335 19.312 75.2695 19.584C75.0135 19.856 74.8855 20.22 74.8855 20.676V23.352C74.8855 23.576 74.8175 23.752 74.6815 23.88C74.5455 24.008 74.3615 24.072 74.1295 24.072C73.8975 24.072 73.7135 24.008 73.5775 23.88C73.4495 23.752 73.3855 23.576 73.3855 23.352V18.708C73.3855 18.5 73.4535 18.332 73.5895 18.204C73.7255 18.076 73.9095 18.012 74.1415 18.012C74.3495 18.012 74.5175 18.076 74.6455 18.204C74.7815 18.324 74.8495 18.484 74.8495 18.684V19.008C75.0495 18.68 75.3175 18.428 75.6535 18.252C75.9895 18.076 76.3695 17.988 76.7935 17.988ZM83.453 22.956C83.853 22.98 84.053 23.16 84.053 23.496C84.053 23.688 83.973 23.836 83.813 23.94C83.661 24.036 83.441 24.076 83.153 24.06L82.829 24.036C81.485 23.94 80.813 23.22 80.813 21.876V19.26H80.213C79.997 19.26 79.829 19.212 79.709 19.116C79.597 19.02 79.541 18.88 79.541 18.696C79.541 18.512 79.597 18.372 79.709 18.276C79.829 18.18 79.997 18.132 80.213 18.132H80.813V17.028C80.813 16.812 80.881 16.64 81.017 16.512C81.153 16.384 81.337 16.32 81.569 16.32C81.793 16.32 81.973 16.384 82.109 16.512C82.245 16.64 82.313 16.812 82.313 17.028V18.132H83.333C83.549 18.132 83.713 18.18 83.825 18.276C83.945 18.372 84.005 18.512 84.005 18.696C84.005 18.88 83.945 19.02 83.825 19.116C83.713 19.212 83.549 19.26 83.333 19.26H82.313V21.984C82.313 22.576 82.585 22.892 83.129 22.932L83.453 22.956ZM86.9587 24.096C86.0867 24.096 85.3827 23.924 84.8467 23.58C84.5907 23.428 84.4627 23.212 84.4627 22.932C84.4627 22.772 84.5067 22.644 84.5947 22.548C84.6827 22.444 84.7907 22.392 84.9187 22.392C85.0547 22.392 85.2427 22.456 85.4827 22.584C85.7387 22.704 85.9707 22.796 86.1787 22.86C86.3947 22.924 86.6667 22.956 86.9947 22.956C87.3307 22.956 87.5907 22.9 87.7747 22.788C87.9667 22.676 88.0627 22.52 88.0627 22.32C88.0627 22.184 88.0227 22.076 87.9427 21.996C87.8707 21.916 87.7347 21.844 87.5347 21.78C87.3427 21.708 87.0467 21.628 86.6467 21.54C85.9347 21.396 85.4227 21.192 85.1107 20.928C84.8067 20.664 84.6547 20.3 84.6547 19.836C84.6547 19.484 84.7587 19.168 84.9667 18.888C85.1747 18.6 85.4587 18.38 85.8187 18.228C86.1867 18.068 86.6027 17.988 87.0667 17.988C87.4027 17.988 87.7267 18.032 88.0387 18.12C88.3507 18.2 88.6307 18.32 88.8787 18.48C89.1347 18.64 89.2627 18.852 89.2627 19.116C89.2627 19.276 89.2187 19.412 89.1307 19.524C89.0427 19.628 88.9347 19.68 88.8067 19.68C88.7187 19.68 88.6307 19.664 88.5427 19.632C88.4627 19.592 88.3587 19.536 88.2307 19.464C87.9987 19.344 87.7987 19.256 87.6307 19.2C87.4627 19.136 87.2547 19.104 87.0067 19.104C86.7107 19.104 86.4747 19.164 86.2987 19.284C86.1307 19.404 86.0467 19.568 86.0467 19.776C86.0467 19.976 86.1347 20.128 86.3107 20.232C86.4867 20.336 86.8267 20.44 87.3307 20.544C87.8667 20.656 88.2867 20.784 88.5907 20.928C88.8947 21.072 89.1107 21.252 89.2387 21.468C89.3747 21.684 89.4427 21.96 89.4427 22.296C89.4427 22.84 89.2147 23.276 88.7587 23.604C88.3107 23.932 87.7107 24.096 86.9587 24.096Z" fill="white"/>
<rect x="230" y="107" width="12" height="12" rx="6" fill="white"/>
<path d="M235.665 110.806C235.832 110.97 237.466 112.684 237.466 112.684C237.508 112.725 237.542 112.774 237.565 112.828C237.588 112.883 237.6 112.941 237.6 113C237.6 113.058 237.588 113.117 237.565 113.171C237.542 113.225 237.508 113.274 237.466 113.315C237.466 113.315 235.832 115.03 235.665 115.193C235.498 115.356 235.197 115.367 235.019 115.193C234.841 115.019 234.827 114.776 235.019 114.563L236.518 113L235.019 111.437C234.827 111.224 234.841 110.98 235.019 110.806C235.197 110.632 235.498 110.643 235.665 110.806Z" fill="#C56D86"/>
<rect x="14" y="107" width="53" height="12" rx="6" fill="white"/>
<path d="M21.1708 116.048C21.0161 116.048 20.8908 116 20.7948 115.904C20.7041 115.808 20.6588 115.683 20.6588 115.528V110.832C20.6588 110.677 20.7041 110.555 20.7948 110.464C20.8908 110.368 21.0161 110.32 21.1708 110.32C21.3308 110.32 21.4561 110.368 21.5468 110.464C21.6428 110.555 21.6908 110.677 21.6908 110.832V115.528C21.6908 115.683 21.6428 115.808 21.5468 115.904C21.4561 116 21.3308 116.048 21.1708 116.048ZM27.1808 110.32C27.3301 110.32 27.4474 110.368 27.5328 110.464C27.6234 110.555 27.6688 110.677 27.6688 110.832V115.528C27.6688 115.683 27.6234 115.808 27.5328 115.904C27.4421 116 27.3248 116.048 27.1808 116.048C27.0101 116.048 26.8794 115.987 26.7888 115.864L23.8688 112.064V115.528C23.8688 115.683 23.8261 115.808 23.7408 115.904C23.6554 116 23.5381 116.048 23.3888 116.048C23.2394 116.048 23.1221 116 23.0368 115.904C22.9514 115.808 22.9088 115.683 22.9088 115.528V110.832C22.9088 110.677 22.9541 110.555 23.0448 110.464C23.1354 110.368 23.2554 110.32 23.4048 110.32C23.5701 110.32 23.6981 110.381 23.7888 110.504L26.7008 114.288V110.832C26.7008 110.677 26.7434 110.555 26.8288 110.464C26.9194 110.368 27.0368 110.32 27.1808 110.32ZM29.3973 116.048C29.2427 116.048 29.1173 116.003 29.0213 115.912C28.9307 115.816 28.8853 115.688 28.8853 115.528V110.848C28.8853 110.693 28.928 110.573 29.0133 110.488C29.104 110.403 29.2267 110.36 29.3813 110.36H31.3493C31.952 110.36 32.4213 110.512 32.7573 110.816C33.0933 111.115 33.2613 111.536 33.2613 112.08C33.2613 112.624 33.0933 113.048 32.7573 113.352C32.4213 113.656 31.952 113.808 31.3493 113.808H29.9173V115.528C29.9173 115.688 29.8693 115.816 29.7733 115.912C29.6827 116.003 29.5573 116.048 29.3973 116.048ZM31.2213 113.016C31.9307 113.016 32.2853 112.707 32.2853 112.088C32.2853 111.469 31.9307 111.16 31.2213 111.16H29.9173V113.016H31.2213ZM38.677 115.384C38.709 115.453 38.725 115.523 38.725 115.592C38.725 115.715 38.6744 115.819 38.573 115.904C38.477 115.989 38.365 116.032 38.237 116.032C38.1517 116.032 38.0717 116.011 37.997 115.968C37.9224 115.92 37.8637 115.848 37.821 115.752L37.341 114.68H34.525L34.045 115.752C34.0024 115.848 33.9437 115.92 33.869 115.968C33.7944 116.011 33.7117 116.032 33.621 116.032C33.4984 116.032 33.3864 115.989 33.285 115.904C33.1837 115.819 33.133 115.715 33.133 115.592C33.133 115.523 33.149 115.453 33.181 115.384L35.389 110.64C35.437 110.533 35.509 110.453 35.605 110.4C35.7064 110.341 35.813 110.312 35.925 110.312C36.037 110.312 36.141 110.341 36.237 110.4C36.3384 110.453 36.413 110.533 36.461 110.64L38.677 115.384ZM36.989 113.88L35.933 111.504L34.877 113.88H36.989ZM40.6552 116.04C40.4952 116.04 40.3672 115.995 40.2712 115.904C40.1806 115.808 40.1352 115.683 40.1352 115.528V111.208H38.6792C38.3592 111.208 38.1992 111.067 38.1992 110.784C38.1992 110.501 38.3592 110.36 38.6792 110.36H42.6232C42.9432 110.36 43.1032 110.501 43.1032 110.784C43.1032 111.067 42.9432 111.208 42.6232 111.208H41.1672V115.528C41.1672 115.683 41.1192 115.808 41.0232 115.904C40.9326 115.995 40.8099 116.04 40.6552 116.04ZM44.2255 116.048C44.0708 116.048 43.9455 116 43.8495 115.904C43.7588 115.808 43.7135 115.683 43.7135 115.528V110.832C43.7135 110.677 43.7588 110.555 43.8495 110.464C43.9455 110.368 44.0708 110.32 44.2255 110.32C44.3855 110.32 44.5108 110.368 44.6015 110.464C44.6975 110.555 44.7455 110.677 44.7455 110.832V115.528C44.7455 115.683 44.6975 115.808 44.6015 115.904C44.5108 116 44.3855 116.048 44.2255 116.048ZM46.4595 116C46.3048 116 46.1821 115.957 46.0915 115.872C46.0061 115.787 45.9635 115.667 45.9635 115.512V110.848C45.9635 110.693 46.0061 110.573 46.0915 110.488C46.1821 110.403 46.3048 110.36 46.4595 110.36H49.3475C49.5021 110.36 49.6221 110.395 49.7075 110.464C49.7928 110.533 49.8355 110.632 49.8355 110.76C49.8355 110.893 49.7928 110.997 49.7075 111.072C49.6221 111.141 49.5021 111.176 49.3475 111.176H46.9715V112.728H49.1875C49.3421 112.728 49.4621 112.763 49.5475 112.832C49.6328 112.901 49.6755 113.003 49.6755 113.136C49.6755 113.264 49.6328 113.363 49.5475 113.432C49.4621 113.501 49.3421 113.536 49.1875 113.536H46.9715V115.184H49.3475C49.5021 115.184 49.6221 115.221 49.7075 115.296C49.7928 115.365 49.8355 115.467 49.8355 115.6C49.8355 115.728 49.7928 115.827 49.7075 115.896C49.6221 115.965 49.5021 116 49.3475 116H46.4595ZM54.9464 110.32C55.0957 110.32 55.2131 110.368 55.2984 110.464C55.3891 110.555 55.4344 110.677 55.4344 110.832V115.528C55.4344 115.683 55.3891 115.808 55.2984 115.904C55.2077 116 55.0904 116.048 54.9464 116.048C54.7757 116.048 54.6451 115.987 54.5544 115.864L51.6344 112.064V115.528C51.6344 115.683 51.5917 115.808 51.5064 115.904C51.4211 116 51.3037 116.048 51.1544 116.048C51.0051 116.048 50.8877 116 50.8024 115.904C50.7171 115.808 50.6744 115.683 50.6744 115.528V110.832C50.6744 110.677 50.7197 110.555 50.8104 110.464C50.9011 110.368 51.0211 110.32 51.1704 110.32C51.3357 110.32 51.4637 110.381 51.5544 110.504L54.4664 114.288V110.832C54.4664 110.677 54.5091 110.555 54.5944 110.464C54.6851 110.368 54.8024 110.32 54.9464 110.32ZM58.499 116.04C58.339 116.04 58.211 115.995 58.115 115.904C58.0243 115.808 57.979 115.683 57.979 115.528V111.208H56.523C56.203 111.208 56.043 111.067 56.043 110.784C56.043 110.501 56.203 110.36 56.523 110.36H60.467C60.787 110.36 60.947 110.501 60.947 110.784C60.947 111.067 60.787 111.208 60.467 111.208H59.011V115.528C59.011 115.683 58.963 115.808 58.867 115.904C58.7763 115.995 58.6536 116.04 58.499 116.04Z" fill="#C56D86"/>
<path d="M76.008 115.168C76.328 115.168 76.488 115.304 76.488 115.576C76.488 115.859 76.328 116 76.008 116H73.304C72.9787 116 72.816 115.859 72.816 115.576C72.816 115.304 72.9787 115.168 73.304 115.168H74.136V111.52L73.368 111.992C73.2933 112.035 73.2267 112.056 73.168 112.056C73.056 112.056 72.96 112.008 72.88 111.912C72.8053 111.816 72.768 111.709 72.768 111.592C72.768 111.437 72.8373 111.317 72.976 111.232L74.216 110.464C74.376 110.368 74.528 110.32 74.672 110.32C74.8213 110.32 74.9413 110.365 75.032 110.456C75.1227 110.547 75.168 110.672 75.168 110.832V115.168H76.008ZM79.4929 112.392C79.8449 112.392 80.1542 112.469 80.4209 112.624C80.6929 112.773 80.9035 112.984 81.0529 113.256C81.2022 113.528 81.2769 113.84 81.2769 114.192C81.2769 114.56 81.1915 114.885 81.0209 115.168C80.8555 115.451 80.6182 115.672 80.3089 115.832C80.0049 115.987 79.6529 116.064 79.2529 116.064C78.9222 116.064 78.5969 116.011 78.2769 115.904C77.9622 115.792 77.6929 115.643 77.4689 115.456C77.3462 115.349 77.2849 115.224 77.2849 115.08C77.2849 114.963 77.3169 114.864 77.3809 114.784C77.4502 114.699 77.5302 114.656 77.6209 114.656C77.6742 114.656 77.7249 114.667 77.7729 114.688C77.8209 114.704 77.8769 114.733 77.9409 114.776C78.1542 114.925 78.3622 115.04 78.5649 115.12C78.7675 115.2 78.9835 115.24 79.2129 115.24C79.5649 115.24 79.8342 115.152 80.0209 114.976C80.2075 114.8 80.3009 114.549 80.3009 114.224C80.3009 113.909 80.2049 113.661 80.0129 113.48C79.8262 113.293 79.5675 113.2 79.2369 113.2C79.0289 113.2 78.8422 113.229 78.6769 113.288C78.5169 113.347 78.3515 113.445 78.1809 113.584C78.0795 113.653 77.9755 113.688 77.8689 113.688C77.7622 113.688 77.6715 113.656 77.5969 113.592C77.5222 113.528 77.4849 113.443 77.4849 113.336V110.84C77.4849 110.691 77.5275 110.573 77.6129 110.488C77.6982 110.403 77.8182 110.36 77.9729 110.36H80.6369C80.9569 110.36 81.1169 110.493 81.1169 110.76C81.1169 111.027 80.9569 111.16 80.6369 111.16H78.4929V112.68C78.7649 112.488 79.0982 112.392 79.4929 112.392ZM82.5698 114.848C82.7511 114.848 82.8978 114.915 83.0098 115.048C83.1218 115.181 83.1778 115.376 83.1778 115.632C83.1778 116.139 83.0018 116.576 82.6497 116.944C82.5804 117.013 82.5058 117.048 82.4258 117.048C82.3458 117.048 82.2764 117.021 82.2178 116.968C82.1591 116.915 82.1298 116.851 82.1298 116.776C82.1298 116.712 82.1564 116.651 82.2098 116.592C82.3698 116.421 82.4738 116.229 82.5218 116.016C82.3671 116 82.2391 115.941 82.1378 115.84C82.0418 115.733 81.9938 115.603 81.9938 115.448C81.9938 115.277 82.0471 115.136 82.1538 115.024C82.2658 114.907 82.4044 114.848 82.5698 114.848ZM86.8421 113.104C87.1781 113.189 87.4341 113.352 87.6101 113.592C87.7915 113.827 87.8821 114.12 87.8821 114.472C87.8821 114.957 87.7035 115.344 87.3461 115.632C86.9888 115.92 86.5061 116.064 85.8981 116.064C85.5515 116.064 85.2181 116.011 84.8981 115.904C84.5781 115.797 84.3061 115.648 84.0821 115.456C83.9595 115.349 83.8981 115.224 83.8981 115.08C83.8981 114.963 83.9301 114.864 83.9941 114.784C84.0635 114.699 84.1435 114.656 84.2341 114.656C84.2875 114.656 84.3355 114.667 84.3781 114.688C84.4208 114.704 84.4795 114.733 84.5541 114.776C84.7781 114.925 84.9915 115.04 85.1941 115.12C85.3968 115.2 85.6181 115.24 85.8581 115.24C86.2101 115.24 86.4715 115.171 86.6421 115.032C86.8128 114.888 86.8981 114.672 86.8981 114.384C86.8981 114.101 86.8075 113.893 86.6261 113.76C86.4501 113.621 86.1755 113.552 85.8021 113.552H85.3461C85.2235 113.552 85.1275 113.512 85.0581 113.432C84.9941 113.347 84.9621 113.251 84.9621 113.144C84.9621 113.032 84.9941 112.936 85.0581 112.856C85.1275 112.776 85.2235 112.736 85.3461 112.736H85.6661C86.3968 112.736 86.7621 112.461 86.7621 111.912C86.7621 111.656 86.6848 111.459 86.5301 111.32C86.3755 111.181 86.1621 111.112 85.8901 111.112C85.5008 111.112 85.0848 111.267 84.6421 111.576C84.5675 111.619 84.5088 111.651 84.4661 111.672C84.4235 111.688 84.3755 111.696 84.3221 111.696C84.2315 111.696 84.1515 111.656 84.0821 111.576C84.0181 111.491 83.9861 111.389 83.9861 111.272C83.9861 111.192 83.9995 111.125 84.0261 111.072C84.0581 111.013 84.1061 110.955 84.1701 110.896C84.3941 110.709 84.6608 110.563 84.9701 110.456C85.2848 110.344 85.6048 110.288 85.9301 110.288C86.4848 110.288 86.9248 110.424 87.2501 110.696C87.5808 110.968 87.7461 111.331 87.7461 111.784C87.7408 112.093 87.6581 112.365 87.4981 112.6C87.3435 112.829 87.1248 112.997 86.8421 113.104ZM92.359 115.168C92.679 115.168 92.839 115.304 92.839 115.576C92.839 115.859 92.679 116 92.359 116H89.319C89.1803 116 89.071 115.96 88.991 115.88C88.911 115.795 88.871 115.691 88.871 115.568C88.871 115.408 88.9323 115.264 89.055 115.136L90.879 113.176C91.103 112.931 91.2657 112.707 91.367 112.504C91.4737 112.296 91.527 112.091 91.527 111.888C91.527 111.637 91.455 111.445 91.311 111.312C91.167 111.179 90.9617 111.112 90.695 111.112C90.4763 111.112 90.263 111.155 90.055 111.24C89.8523 111.32 89.647 111.432 89.439 111.576C89.3857 111.613 89.3323 111.645 89.279 111.672C89.2257 111.693 89.1723 111.704 89.119 111.704C89.0283 111.704 88.9483 111.661 88.879 111.576C88.815 111.491 88.783 111.389 88.783 111.272C88.783 111.192 88.7963 111.123 88.823 111.064C88.855 111.005 88.903 110.949 88.967 110.896C89.2017 110.709 89.4763 110.563 89.791 110.456C90.1057 110.344 90.4203 110.288 90.735 110.288C91.2843 110.288 91.7217 110.427 92.047 110.704C92.3777 110.981 92.543 111.355 92.543 111.824C92.543 112.149 92.4737 112.456 92.335 112.744C92.1963 113.027 91.9617 113.344 91.631 113.696L90.247 115.168H92.359ZM97.2037 110.36C97.3424 110.36 97.449 110.4 97.5237 110.48C97.5984 110.555 97.6357 110.653 97.6357 110.776C97.6357 110.899 97.5984 111.027 97.5237 111.16L94.9717 115.792C94.865 115.973 94.7184 116.064 94.5317 116.064C94.4037 116.064 94.289 116.021 94.1877 115.936C94.0917 115.845 94.0437 115.736 94.0437 115.608C94.0437 115.517 94.0704 115.427 94.1237 115.336L96.4197 111.192H94.0037C93.6837 111.192 93.5237 111.056 93.5237 110.784C93.5237 110.501 93.6837 110.36 94.0037 110.36H97.2037Z" fill="white"/>
<rect x="109" y="107" width="60" height="12" rx="6" fill="white"/>
<path d="M117.28 116.072C116.731 116.072 116.253 115.955 115.848 115.72C115.448 115.485 115.139 115.149 114.92 114.712C114.701 114.275 114.592 113.763 114.592 113.176C114.592 112.589 114.699 112.08 114.912 111.648C115.131 111.211 115.443 110.875 115.848 110.64C116.253 110.405 116.731 110.288 117.28 110.288C117.829 110.288 118.304 110.405 118.704 110.64C119.109 110.875 119.419 111.211 119.632 111.648C119.851 112.08 119.96 112.589 119.96 113.176C119.96 113.763 119.851 114.275 119.632 114.712C119.413 115.149 119.101 115.485 118.696 115.72C118.296 115.955 117.824 116.072 117.28 116.072ZM117.28 115.248C117.797 115.248 118.2 115.069 118.488 114.712C118.781 114.355 118.928 113.843 118.928 113.176C118.928 112.509 118.781 112 118.488 111.648C118.2 111.291 117.797 111.112 117.28 111.112C116.757 111.112 116.349 111.291 116.056 111.648C115.768 112 115.624 112.509 115.624 113.176C115.624 113.843 115.768 114.355 116.056 114.712C116.349 115.069 116.757 115.248 117.28 115.248ZM123.331 116.072C122.557 116.072 121.971 115.872 121.571 115.472C121.171 115.072 120.971 114.488 120.971 113.72V110.832C120.971 110.677 121.016 110.555 121.107 110.464C121.197 110.368 121.32 110.32 121.475 110.32C121.629 110.32 121.752 110.368 121.843 110.464C121.933 110.555 121.979 110.677 121.979 110.832V113.776C121.979 114.261 122.093 114.629 122.323 114.88C122.552 115.125 122.888 115.248 123.331 115.248C123.768 115.248 124.101 115.123 124.331 114.872C124.56 114.621 124.675 114.256 124.675 113.776V110.832C124.675 110.677 124.72 110.555 124.811 110.464C124.901 110.368 125.024 110.32 125.179 110.32C125.333 110.32 125.456 110.368 125.547 110.464C125.637 110.555 125.683 110.677 125.683 110.832V113.72C125.683 114.483 125.483 115.067 125.083 115.472C124.683 115.872 124.099 116.072 123.331 116.072ZM128.718 116.04C128.558 116.04 128.43 115.995 128.334 115.904C128.243 115.808 128.198 115.683 128.198 115.528V111.208H126.742C126.422 111.208 126.262 111.067 126.262 110.784C126.262 110.501 126.422 110.36 126.742 110.36H130.686C131.006 110.36 131.166 110.501 131.166 110.784C131.166 111.067 131.006 111.208 130.686 111.208H129.23V115.528C129.23 115.683 129.182 115.808 129.086 115.904C128.995 115.995 128.872 116.04 128.718 116.04ZM132.288 116.048C132.133 116.048 132.008 116.003 131.912 115.912C131.821 115.816 131.776 115.688 131.776 115.528V110.848C131.776 110.693 131.819 110.573 131.904 110.488C131.995 110.403 132.117 110.36 132.272 110.36H134.24C134.843 110.36 135.312 110.512 135.648 110.816C135.984 111.115 136.152 111.536 136.152 112.08C136.152 112.624 135.984 113.048 135.648 113.352C135.312 113.656 134.843 113.808 134.24 113.808H132.808V115.528C132.808 115.688 132.76 115.816 132.664 115.912C132.573 116.003 132.448 116.048 132.288 116.048ZM134.112 113.016C134.821 113.016 135.176 112.707 135.176 112.088C135.176 111.469 134.821 111.16 134.112 111.16H132.808V113.016H134.112ZM141.568 115.384C141.6 115.453 141.616 115.523 141.616 115.592C141.616 115.715 141.565 115.819 141.464 115.904C141.368 115.989 141.256 116.032 141.128 116.032C141.042 116.032 140.962 116.011 140.888 115.968C140.813 115.92 140.754 115.848 140.712 115.752L140.232 114.68H137.416L136.936 115.752C136.893 115.848 136.834 115.92 136.76 115.968C136.685 116.011 136.602 116.032 136.512 116.032C136.389 116.032 136.277 115.989 136.176 115.904C136.074 115.819 136.024 115.715 136.024 115.592C136.024 115.523 136.04 115.453 136.072 115.384L138.28 110.64C138.328 110.533 138.4 110.453 138.496 110.4C138.597 110.341 138.704 110.312 138.816 110.312C138.928 110.312 139.032 110.341 139.128 110.4C139.229 110.453 139.304 110.533 139.352 110.64L141.568 115.384ZM139.88 113.88L138.824 111.504L137.768 113.88H139.88ZM143.546 116.04C143.386 116.04 143.258 115.995 143.162 115.904C143.071 115.808 143.026 115.683 143.026 115.528V111.208H141.57C141.25 111.208 141.09 111.067 141.09 110.784C141.09 110.501 141.25 110.36 141.57 110.36H145.514C145.834 110.36 145.994 110.501 145.994 110.784C145.994 111.067 145.834 111.208 145.514 111.208H144.058V115.528C144.058 115.683 144.01 115.808 143.914 115.904C143.823 115.995 143.701 116.04 143.546 116.04ZM147.116 116.048C146.961 116.048 146.836 116 146.74 115.904C146.649 115.808 146.604 115.683 146.604 115.528V110.832C146.604 110.677 146.649 110.555 146.74 110.464C146.836 110.368 146.961 110.32 147.116 110.32C147.276 110.32 147.401 110.368 147.492 110.464C147.588 110.555 147.636 110.677 147.636 110.832V115.528C147.636 115.683 147.588 115.808 147.492 115.904C147.401 116 147.276 116.048 147.116 116.048ZM149.35 116C149.195 116 149.073 115.957 148.982 115.872C148.897 115.787 148.854 115.667 148.854 115.512V110.848C148.854 110.693 148.897 110.573 148.982 110.488C149.073 110.403 149.195 110.36 149.35 110.36H152.238C152.393 110.36 152.513 110.395 152.598 110.464C152.683 110.533 152.726 110.632 152.726 110.76C152.726 110.893 152.683 110.997 152.598 111.072C152.513 111.141 152.393 111.176 152.238 111.176H149.862V112.728H152.078C152.233 112.728 152.353 112.763 152.438 112.832C152.523 112.901 152.566 113.003 152.566 113.136C152.566 113.264 152.523 113.363 152.438 113.432C152.353 113.501 152.233 113.536 152.078 113.536H149.862V115.184H152.238C152.393 115.184 152.513 115.221 152.598 115.296C152.683 115.365 152.726 115.467 152.726 115.6C152.726 115.728 152.683 115.827 152.598 115.896C152.513 115.965 152.393 116 152.238 116H149.35ZM157.837 110.32C157.986 110.32 158.104 110.368 158.189 110.464C158.28 110.555 158.325 110.677 158.325 110.832V115.528C158.325 115.683 158.28 115.808 158.189 115.904C158.098 116 157.981 116.048 157.837 116.048C157.666 116.048 157.536 115.987 157.445 115.864L154.525 112.064V115.528C154.525 115.683 154.482 115.808 154.397 115.904C154.312 116 154.194 116.048 154.045 116.048C153.896 116.048 153.778 116 153.693 115.904C153.608 115.808 153.565 115.683 153.565 115.528V110.832C153.565 110.677 153.61 110.555 153.701 110.464C153.792 110.368 153.912 110.32 154.061 110.32C154.226 110.32 154.354 110.381 154.445 110.504L157.357 114.288V110.832C157.357 110.677 157.4 110.555 157.485 110.464C157.576 110.368 157.693 110.32 157.837 110.32ZM161.39 116.04C161.23 116.04 161.102 115.995 161.006 115.904C160.915 115.808 160.87 115.683 160.87 115.528V111.208H159.414C159.094 111.208 158.934 111.067 158.934 110.784C158.934 110.501 159.094 110.36 159.414 110.36H163.358C163.678 110.36 163.838 110.501 163.838 110.784C163.838 111.067 163.678 111.208 163.358 111.208H161.902V115.528C161.902 115.683 161.854 115.808 161.758 115.904C161.667 115.995 161.544 116.04 161.39 116.04Z" fill="#C56D86"/>
<path d="M178.008 115.168C178.328 115.168 178.488 115.304 178.488 115.576C178.488 115.859 178.328 116 178.008 116H175.304C174.979 116 174.816 115.859 174.816 115.576C174.816 115.304 174.979 115.168 175.304 115.168H176.136V111.52L175.368 111.992C175.293 112.035 175.227 112.056 175.168 112.056C175.056 112.056 174.96 112.008 174.88 111.912C174.805 111.816 174.768 111.709 174.768 111.592C174.768 111.437 174.837 111.317 174.976 111.232L176.216 110.464C176.376 110.368 176.528 110.32 176.672 110.32C176.821 110.32 176.941 110.365 177.032 110.456C177.123 110.547 177.168 110.672 177.168 110.832V115.168H178.008ZM182.821 110.36C182.96 110.36 183.066 110.4 183.141 110.48C183.216 110.555 183.253 110.653 183.253 110.776C183.253 110.899 183.216 111.027 183.141 111.16L180.589 115.792C180.482 115.973 180.336 116.064 180.149 116.064C180.021 116.064 179.906 116.021 179.805 115.936C179.709 115.845 179.661 115.736 179.661 115.608C179.661 115.517 179.688 115.427 179.741 115.336L182.037 111.192H179.621C179.301 111.192 179.141 111.056 179.141 110.784C179.141 110.501 179.301 110.36 179.621 110.36H182.821ZM184.57 114.848C184.751 114.848 184.898 114.915 185.01 115.048C185.122 115.181 185.178 115.376 185.178 115.632C185.178 116.139 185.002 116.576 184.65 116.944C184.58 117.013 184.506 117.048 184.426 117.048C184.346 117.048 184.276 117.021 184.218 116.968C184.159 116.915 184.13 116.851 184.13 116.776C184.13 116.712 184.156 116.651 184.21 116.592C184.37 116.421 184.474 116.229 184.522 116.016C184.367 116 184.239 115.941 184.138 115.84C184.042 115.733 183.994 115.603 183.994 115.448C183.994 115.277 184.047 115.136 184.154 115.024C184.266 114.907 184.404 114.848 184.57 114.848ZM189.586 115.168C189.906 115.168 190.066 115.304 190.066 115.576C190.066 115.859 189.906 116 189.586 116H186.882C186.557 116 186.394 115.859 186.394 115.576C186.394 115.304 186.557 115.168 186.882 115.168H187.714V111.52L186.946 111.992C186.871 112.035 186.805 112.056 186.746 112.056C186.634 112.056 186.538 112.008 186.458 111.912C186.383 111.816 186.346 111.709 186.346 111.592C186.346 111.437 186.415 111.317 186.554 111.232L187.794 110.464C187.954 110.368 188.106 110.32 188.25 110.32C188.399 110.32 188.519 110.365 188.61 110.456C188.701 110.547 188.746 110.672 188.746 110.832V115.168H189.586ZM193.071 112.392C193.423 112.392 193.732 112.469 193.999 112.624C194.271 112.773 194.482 112.984 194.631 113.256C194.78 113.528 194.855 113.84 194.855 114.192C194.855 114.56 194.77 114.885 194.599 115.168C194.434 115.451 194.196 115.672 193.887 115.832C193.583 115.987 193.231 116.064 192.831 116.064C192.5 116.064 192.175 116.011 191.855 115.904C191.54 115.792 191.271 115.643 191.047 115.456C190.924 115.349 190.863 115.224 190.863 115.08C190.863 114.963 190.895 114.864 190.959 114.784C191.028 114.699 191.108 114.656 191.199 114.656C191.252 114.656 191.303 114.667 191.351 114.688C191.399 114.704 191.455 114.733 191.519 114.776C191.732 114.925 191.94 115.04 192.143 115.12C192.346 115.2 192.562 115.24 192.791 115.24C193.143 115.24 193.412 115.152 193.599 114.976C193.786 114.8 193.879 114.549 193.879 114.224C193.879 113.909 193.783 113.661 193.591 113.48C193.404 113.293 193.146 113.2 192.815 113.2C192.607 113.2 192.42 113.229 192.255 113.288C192.095 113.347 191.93 113.445 191.759 113.584C191.658 113.653 191.554 113.688 191.447 113.688C191.34 113.688 191.25 113.656 191.175 113.592C191.1 113.528 191.063 113.443 191.063 113.336V110.84C191.063 110.691 191.106 110.573 191.191 110.488C191.276 110.403 191.396 110.36 191.551 110.36H194.215C194.535 110.36 194.695 110.493 194.695 110.76C194.695 111.027 194.535 111.16 194.215 111.16H192.071V112.68C192.343 112.488 192.676 112.392 193.071 112.392ZM197.868 112.392C198.22 112.392 198.529 112.469 198.796 112.624C199.068 112.773 199.279 112.984 199.428 113.256C199.577 113.528 199.652 113.84 199.652 114.192C199.652 114.56 199.567 114.885 199.396 115.168C199.231 115.451 198.993 115.672 198.684 115.832C198.38 115.987 198.028 116.064 197.628 116.064C197.297 116.064 196.972 116.011 196.652 115.904C196.337 115.792 196.068 115.643 195.844 115.456C195.721 115.349 195.66 115.224 195.66 115.08C195.66 114.963 195.692 114.864 195.756 114.784C195.825 114.699 195.905 114.656 195.996 114.656C196.049 114.656 196.1 114.667 196.148 114.688C196.196 114.704 196.252 114.733 196.316 114.776C196.529 114.925 196.737 115.04 196.94 115.12C197.143 115.2 197.359 115.24 197.588 115.24C197.94 115.24 198.209 115.152 198.396 114.976C198.583 114.8 198.676 114.549 198.676 114.224C198.676 113.909 198.58 113.661 198.388 113.48C198.201 113.293 197.943 113.2 197.612 113.2C197.404 113.2 197.217 113.229 197.052 113.288C196.892 113.347 196.727 113.445 196.556 113.584C196.455 113.653 196.351 113.688 196.244 113.688C196.137 113.688 196.047 113.656 195.972 113.592C195.897 113.528 195.86 113.443 195.86 113.336V110.84C195.86 110.691 195.903 110.573 195.988 110.488C196.073 110.403 196.193 110.36 196.348 110.36H199.012C199.332 110.36 199.492 110.493 199.492 110.76C199.492 111.027 199.332 111.16 199.012 111.16H196.868V112.68C197.14 112.488 197.473 112.392 197.868 112.392Z" fill="white"/>
<defs>
<filter id="filter0_d" x="0" y="0" width="256" height="151" filterUnits="userSpaceOnUse" color-interpolation-filters="sRGB">
<feFlood flood-opacity="0" result="BackgroundImageFix"/>
<feColorMatrix in="SourceAlpha" type="matrix" values="0 0 0 0 0 0 0 0 0 0 0 0 0 0 0 0 0 0 127 0"/>
<feMorphology radius="10" operator="erode" in="SourceAlpha" result="effect1_dropShadow"/>
<feOffset dy="16"/>
<feGaussianBlur stdDeviation="6"/>
<feColorMatrix type="matrix" values="0 0 0 0 1 0 0 0 0 0.545833 0 0 0 0 0.585614 0 0 0 0.38 0"/>
<feBlend mode="normal" in2="BackgroundImageFix" result="effect1_dropShadow"/>
<feBlend mode="normal" in="SourceGraphic" in2="effect1_dropShadow" result="shape"/>
</filter>
<linearGradient id="paint0_linear" x1="128" y1="-18.088" x2="128" y2="180.348" gradientUnits="userSpaceOnUse">
<stop offset="0.161458" stop-color="#C56D86"/>
<stop offset="1" stop-color="#FF7682"/>
</linearGradient>
<linearGradient id="paint1_linear" x1="128" y1="-18.088" x2="128" y2="180.348" gradientUnits="userSpaceOnUse">
<stop stop-color="#FF7682"/>
<stop offset="1" stop-color="#B66A84"/>
</linearGradient>
<linearGradient id="paint2_linear" x1="295" y1="6" x2="295" y2="199.458" gradientUnits="userSpaceOnUse">
<stop stop-color="white"/>
<stop offset="1" stop-color="white" stop-opacity="0"/>
</linearGradient>
<linearGradient id="paint3_linear" x1="173.5" y1="82" x2="536" y2="27.5" gradientUnits="userSpaceOnUse">
<stop stop-color="white"/>
<stop offset="1" stop-color="white" stop-opacity="0"/>
</linearGradient>
<linearGradient id="paint4_linear" x1="135" y1="29" x2="135" y2="222.458" gradientUnits="userSpaceOnUse">
<stop stop-color="white"/>
<stop offset="1" stop-color="white" stop-opacity="0"/>
</linearGradient>
<linearGradient id="paint5_linear" x1="448.5" y1="58.5" x2="161" y2="33.5" gradientUnits="userSpaceOnUse">
<stop stop-color="white"/>
<stop offset="1" stop-color="white" stop-opacity="0"/>
</linearGradient>
<linearGradient id="paint6_linear" x1="222" y1="12" x2="222" y2="66.24" gradientUnits="userSpaceOnUse">
<stop stop-color="white"/>
<stop offset="0.464939" stop-color="white" stop-opacity="0.26"/>
</linearGradient>
<linearGradient id="paint7_linear" x1="222" y1="-3" x2="222" y2="51" gradientUnits="userSpaceOnUse">
<stop stop-color="white" stop-opacity="0"/>
<stop offset="0.885417" stop-color="white"/>
</linearGradient>
<linearGradient id="paint8_linear" x1="222.737" y1="19.5" x2="222.937" y2="51.2188" gradientUnits="userSpaceOnUse">
<stop stop-color="white"/>
<stop offset="1" stop-color="white" stop-opacity="0"/>
</linearGradient>
</defs>
</svg>
